<svg width="56" height="56" fill="none" xmlns="http://www.w3.org/2000/svg"><rect x="4" y="4" width="48" height="48" rx="4" fill="#212323"/><path d="M28 40.5c6.875 0 12.5-5.625 12.5-12.5S34.875 15.5 28 15.5 15.5 21.125 15.5 28 21.125 40.5 28 40.5z" stroke="#fff" stroke-width="1.5" stroke-linecap="round" stroke-linejoin="round"/><path d="M32.046 32.608V34h-8.048v-1.088l4.56-4.4c.555-.533.928-.992 1.12-1.376a2.69 2.69 0 00.288-1.184c0-.587-.208-1.04-.624-1.36-.405-.33-.992-.496-1.76-.496-1.237 0-2.192.405-2.864 1.216l-1.088-.944c.438-.533 1.008-.95 1.712-1.248.715-.299 1.51-.448 2.384-.448 1.174 0 2.107.283 2.8.848.694.555 1.04 1.312 1.04 2.272a3.87 3.87 0 01-.384 1.696c-.256.533-.741 1.141-1.456 1.824l-3.424 3.296h5.744z" fill="#fff"/><rect x="4" y="4" width="48" height="48" rx="4" stroke="#646666" stroke-opacity=".1" stroke-width="8"/></svg>