<svg width="56" height="57" fill="none" xmlns="http://www.w3.org/2000/svg"><rect x="4" y="4.5" width="48" height="48" rx="4" fill="#212323"/><path d="M15.5 35.375c0-1.168 0-1.752.251-2.188a1.89 1.89 0 01.687-.686c.435-.251 1.019-.251 2.187-.251s1.752 0 2.188.251c.285.165.521.402.686.687.251.435.251 1.019.251 2.187s0 1.752-.251 2.188a1.876 1.876 0 01-.686.686c-.436.251-1.02.251-2.188.251-1.168 0-1.752 0-2.188-.251a1.876 1.876 0 01-.686-.687c-.251-.435-.251-1.019-.251-2.187zm9.375 0c0-1.168 0-1.752.251-2.188.165-.284.401-.521.686-.686.436-.251 1.02-.251 2.188-.251 1.168 0 1.752 0 2.188.251.285.165.521.402.686.687.251.435.251 1.019.251 2.187s0 1.752-.251 2.188a1.876 1.876 0 01-.686.686c-.436.251-1.02.251-2.188.251-1.168 0-1.752 0-2.188-.251a1.876 1.876 0 01-.686-.687c-.251-.435-.251-1.019-.251-2.187zm9.375 0c0-1.168 0-1.752.251-2.188a1.89 1.89 0 01.687-.686c.435-.251 1.019-.251 2.187-.251s1.752 0 2.188.251c.284.165.521.402.686.687.251.435.251 1.019.251 2.187s0 1.752-.251 2.188a1.876 1.876 0 01-.687.686c-.435.251-1.019.251-2.187.251s-1.752 0-2.188-.251a1.876 1.876 0 01-.686-.687c-.251-.435-.251-1.019-.251-2.187z" stroke="#fff" stroke-width="1.5"/><path d="M18.625 32.25v-7.5c0-2.946 0-4.42.915-5.335.916-.915 2.389-.915 5.335-.915h6.25c2.946 0 4.42 0 5.335.915.915.916.915 2.389.915 5.335v3.75m0 0l2.5-2.5m-2.5 2.5l-2.5-2.5" stroke="#fff" stroke-width="1.5" stroke-linecap="round" stroke-linejoin="round"/><rect x="4" y="4.5" width="48" height="48" rx="4" stroke="#646666" stroke-opacity=".1" stroke-width="8"/></svg>