<svg width="56" height="56" fill="none" xmlns="http://www.w3.org/2000/svg"><rect x="4" y="4" width="48" height="48" rx="4" fill="#212323"/><path d="M28 40.5c6.875 0 12.5-5.625 12.5-12.5S34.875 15.5 28 15.5 15.5 21.125 15.5 28 21.125 40.5 28 40.5z" stroke="#fff" stroke-width="1.5" stroke-linecap="round" stroke-linejoin="round"/><path d="M28.478 27.504c1.098.107 1.936.448 2.512 1.024.576.565.864 1.29.864 2.176 0 .64-.16 1.221-.48 1.744-.32.512-.8.923-1.44 1.232-.63.299-1.403.448-2.32.448-.8 0-1.568-.117-2.304-.352-.736-.245-1.339-.581-1.808-1.008l.736-1.264c.384.363.875.656 1.472.88a5.62 5.62 0 001.904.32c.832 0 1.477-.176 1.936-.528.47-.352.704-.837.704-1.456s-.23-1.099-.688-1.44c-.459-.341-1.152-.512-2.08-.512h-.896v-1.12l2.816-3.456h-5.392V22.8h7.392v1.088l-2.928 3.616z" fill="#fff"/><rect x="4" y="4" width="48" height="48" rx="4" stroke="#646666" stroke-opacity=".1" stroke-width="8"/></svg>