<svg width="56" height="57" fill="none" xmlns="http://www.w3.org/2000/svg"><rect x="4" y="4.5" width="48" height="48" rx="4" fill="#212323"/><path d="M20.5 32.875c0-.69.56-1.25 1.25-1.25h12.5c.69 0 1.25.56 1.25 1.25a2.5 2.5 0 01-2.5 2.5H23a2.5 2.5 0 01-2.5-2.5zm.785-10.918c.302-2.514.453-3.771 1.18-4.63.23-.273.499-.51.797-.707C24.202 16 25.468 16 28 16c2.532 0 3.798 0 4.738.62.298.196.566.434.797.707.727.859.878 2.116 1.18 4.63l.113.947c.314 2.61.47 3.914-.276 4.755-.746.841-2.06.841-4.688.841h-3.728c-2.628 0-3.942 0-4.688-.84-.746-.842-.59-2.146-.277-4.756l.114-.947zM28 28.5V31" stroke="#fff" stroke-width="1.5"/><path d="M28 41v-2.5m0 0v-3.125m0 3.125l.583.146A3.6 3.6 0 0131.125 41M28 38.5l-.583.146A3.6 3.6 0 0024.875 41M20.5 33.5l-1.115-3.346a4.574 4.574 0 00-.172-.466 2.87 2.87 0 00-.164-.314c-.578-1-1.314-1.499-3.549-1.499m20 5.625l1.115-3.346c.073-.218.11-.327.172-.466a2.87 2.87 0 01.164-.314c.578-1 1.314-1.499 3.549-1.499" stroke="#fff" stroke-width="1.5" stroke-linecap="round"/><rect x="4" y="4.5" width="48" height="48" rx="4" stroke="#646666" stroke-opacity=".1" stroke-width="8"/></svg>