<svg width="56" height="57" fill="none" xmlns="http://www.w3.org/2000/svg"><rect x="4" y="4.5" width="48" height="48" rx="4" fill="#212323"/><circle cx="28" cy="21.5" r="5" stroke="#fff" stroke-width="1.5"/><path d="M35.5 25.25c2.071 0 3.75-1.4 3.75-3.125 0-1.726-1.679-3.125-3.75-3.125m-15 6.25c-2.071 0-3.75-1.4-3.75-3.125 0-1.726 1.679-3.125 3.75-3.125" stroke="#fff" stroke-width="1.5" stroke-linecap="round"/><ellipse cx="28" cy="35.25" rx="7.5" ry="5" stroke="#fff" stroke-width="1.5"/><path d="M38 37.75c2.193-.48 3.75-1.699 3.75-3.125S40.193 31.981 38 31.5m-20 6.25c-2.193-.48-3.75-1.699-3.75-3.125S15.807 31.981 18 31.5" stroke="#fff" stroke-width="1.5" stroke-linecap="round"/><rect x="4" y="4.5" width="48" height="48" rx="4" stroke="#646666" stroke-opacity=".1" stroke-width="8"/></svg>