<svg width="56" height="57" fill="none" xmlns="http://www.w3.org/2000/svg"><rect x="4" y="4.5" width="48" height="48" rx="4" fill="#212323"/><path d="M21.05 16h13.887c4.45 0 5.563 1.113 5.563 5.55v7.912c0 4.45-1.112 5.55-5.55 5.55h-13.9c-4.438.013-5.55-1.1-5.55-5.537V21.55c0-4.438 1.113-5.55 5.55-5.55zM28 35.025V41M15.5 29.75h25M22.375 41h11.25" stroke="#fff" stroke-width="1.5" stroke-linecap="round" stroke-linejoin="round"/><path d="M24.25 21l-2.5 2.5 2.5 2.5m7.5-5l2.5 2.5-2.5 2.5" stroke="#fff" stroke-width="1.5" stroke-linecap="round" stroke-linejoin="round"/><rect x="4" y="4.5" width="48" height="48" rx="4" stroke="#646666" stroke-opacity=".1" stroke-width="8"/></svg>