<svg width="56" height="57" fill="none" xmlns="http://www.w3.org/2000/svg"><rect x="4" y="4.5" width="48" height="48" rx="4" fill="#212323"/><path d="M15.5 28.533c0 6.432 4.834 11.733 11.058 12.45.919.106 1.81-.286 2.463-.941a2.101 2.101 0 000-2.966c-.654-.656-1.187-1.633-.694-2.418 1.971-3.134 12.173 4.064 12.173-6.125C40.5 21.61 34.904 16 28 16s-12.5 5.611-12.5 12.533z" stroke="#fff" stroke-width="1.5"/><circle cx="34.875" cy="27.875" r="1.125" stroke="#fff" stroke-width="1.5"/><circle cx="21.125" cy="27.875" r="1.125" stroke="#fff" stroke-width="1.5"/><path d="M26.106 22.25a1.125 1.125 0 11-2.25 0 1.125 1.125 0 012.25 0zm6.144 0a1.125 1.125 0 11-2.25 0 1.125 1.125 0 012.25 0z" stroke="#fff" stroke-width="1.5"/><rect x="4" y="4.5" width="48" height="48" rx="4" stroke="#646666" stroke-opacity=".1" stroke-width="8"/></svg>