<svg width="56" height="57" fill="none" xmlns="http://www.w3.org/2000/svg"><rect x="4" y="4.5" width="48" height="48" rx="4" fill="#212323"/><path d="M25.5 34.688h-4.738c-4.212 0-5.262-1.05-5.262-5.263v-7.5c0-4.213 1.05-5.262 5.262-5.262h13.163c4.213 0 5.263 1.05 5.263 5.262M25.5 40.337v-5.65m-10-4.999h10m-4.075 10.649H25.5" stroke="#fff" stroke-width="1.5" stroke-linecap="round" stroke-linejoin="round"/><path d="M40.5 29.5v7.138c0 2.962-.737 3.7-3.7 3.7h-4.437c-2.963 0-3.7-.738-3.7-3.7V29.5c0-2.962.737-3.7 3.7-3.7H36.8c2.963 0 3.7.738 3.7 3.7z" stroke="#fff" stroke-width="1.5" stroke-linecap="round" stroke-linejoin="round"/><path d="M34.556 36.313h.01" stroke="#fff" stroke-width="2" stroke-linecap="round" stroke-linejoin="round"/><rect x="4" y="4.5" width="48" height="48" rx="4" stroke="#646666" stroke-opacity=".1" stroke-width="8"/></svg>