<svg width="164" height="30" fill="none" xmlns="http://www.w3.org/2000/svg"><path d="M47.199 16.551L45 16.173c-2.297-.403-3.677-1.723-3.677-3.824 0-2.846 1.967-4.226 5.143-4.226 3.176 0 5.142 1.38 5.142 4.068v.33H48.64v-.33c0-.99-.806-1.49-2.174-1.49-1.38 0-2.089.402-2.089 1.429 0 .708.55 1.184 1.356 1.319l2.199.378c2.406.416 3.676 1.723 3.676 3.8 0 2.87-1.966 4.238-5.142 4.238s-5.143-1.38-5.143-4.068v-.33h2.968v.33c0 .99.807 1.49 2.175 1.49 1.38 0 2.088-.378 2.088-1.453.013-.709-.55-1.148-1.355-1.283zm10.114-.036l-.953 1.124v4.055h-2.968V8.306h2.968v5.216l4.226-5.216h3.616l-4.96 5.912 5.24 7.476h-3.59l-3.58-5.18zm8.477-8.209h2.968v13.388H65.79V8.306zm5.118 0h2.968v10.798h6.364v2.578h-9.332V8.306zm10.908 0h2.956v10.798h6.364v2.578h-9.332V8.306h.012zm16.527 8.245l-2.199-.378c-2.296-.403-3.676-1.723-3.676-3.824 0-2.846 1.966-4.226 5.142-4.226s5.143 1.38 5.143 4.068v.33h-2.956v-.33c0-.99-.806-1.49-2.174-1.49-1.38 0-2.09.402-2.09 1.429 0 .708.55 1.184 1.357 1.319l2.198.378c2.407.416 3.677 1.723 3.677 3.8 0 2.87-1.967 4.238-5.142 4.238-3.176 0-5.143-1.38-5.143-4.068v-.33h2.968v.33c0 .99.806 1.49 2.175 1.49 1.38 0 2.088-.378 2.088-1.453-.012-.709-.562-1.148-1.368-1.283zm11.409 5.339c-3.213 0-5.314-1.65-5.314-4.862v-4.056c0-3.212 2.101-4.861 5.351-4.861 3.212 0 5.313 1.649 5.313 4.861v4.056c0 1.93-.769 3.286-2.064 4.067l2.443 2.309-2.101 2.101-3.628-3.616zm2.394-8.918c0-1.514-.94-2.272-2.357-2.272-1.454 0-2.394.77-2.394 2.272v4.056c0 1.514.94 2.272 2.357 2.272 1.454 0 2.394-.77 2.394-2.272v-4.056zm15.451-4.666v8.722c0 3.212-2.101 4.861-5.35 4.861-3.212 0-5.313-1.649-5.313-4.861V8.306h2.968v8.722c0 1.514.94 2.272 2.357 2.272 1.454 0 2.394-.77 2.394-2.272V8.306h2.944zm13.12 13.388h-3.213l-.855-2.834h-4.531l-.855 2.834h-2.859l4.3-13.388h3.628l4.385 13.388zm-7.818-5.412h2.944l-1.478-4.812-1.466 4.812zm9.222-7.976h5.692c2.773 0 4.593 1.295 4.593 4.459 0 2.174-.855 3.493-2.309 4.092l2.505 4.837h-3.445l-2.174-4.458h-1.894v4.458h-2.968V8.306zm2.968 6.352h2.639c.989 0 1.624-.464 1.624-1.893 0-1.43-.647-1.869-1.624-1.869h-2.639v3.762zm9.186-6.352h9.333v2.578h-6.364v2.81h5.411v2.577h-5.411v2.833h6.364v2.578h-9.333V8.306zM10.004 26.665h-6.67V3.335h23.331v6.67H30V2.48A2.481 2.481 0 0027.52 0H2.48A2.481 2.481 0 000 2.48v25.04A2.481 2.481 0 002.48 30h7.524v-3.335z" fill="#212323"/><path d="M30 16.527v-3.335H15.805a2.481 2.481 0 00-2.479 2.48v5.118a2.481 2.481 0 002.48 2.48h10.859v3.407H13.338v3.335h14.194a2.481 2.481 0 002.48-2.48v-5.117a2.481 2.481 0 00-2.48-2.48H16.673v-3.408H30z" fill="#FF5951"/></svg>