<svg width="520" height="520" fill="none" xmlns="http://www.w3.org/2000/svg"><circle cx="260" cy="130" stroke="#E9E9E9" stroke-width="26" r="86.667"/><path d="M390 195c35.899 0 65-24.251 65-54.167 0-29.915-29.101-54.166-65-54.166M130 195c-35.898 0-65-24.251-65-54.167 0-29.915 29.102-54.166 65-54.166" stroke="#E9E9E9" stroke-width="26" stroke-linecap="round"/><ellipse cx="260" cy="368.333" rx="130" ry="86.667" stroke="#E9E9E9" stroke-width="26"/><path d="M433.333 411.667c38.009-8.335 65-29.444 65-54.167 0-24.723-26.991-45.832-65-54.167M86.667 411.667c-38.009-8.335-65-29.444-65-54.167 0-24.723 26.991-45.832 65-54.167" stroke="#E9E9E9" stroke-width="26" stroke-linecap="round"/></svg>