<svg width="24" height="24" fill="none" xmlns="http://www.w3.org/2000/svg"><path d="M2 12.026c0 5.146 3.867 9.387 8.847 9.96.735.085 1.447-.228 1.97-.753a1.68 1.68 0 000-2.372c-.523-.525-.95-1.307-.555-1.934 1.576-2.508 9.738 3.251 9.738-4.9C22 6.488 17.523 2 12 2S2 6.489 2 12.026z" stroke="#fff" stroke-width="1.5"/><circle cx="17.5" cy="11.5" r=".75" stroke="#fff" stroke-width="1.5"/><circle cx="6.5" cy="11.5" r=".75" stroke="#fff" stroke-width="1.5"/><path d="M10.335 7a.75.75 0 11-1.5 0 .75.75 0 011.5 0zm4.915 0a.75.75 0 11-1.5 0 .75.75 0 011.5 0z" stroke="#fff" stroke-width="1.5"/></svg>