<svg width="164" height="30" fill="none" xmlns="http://www.w3.org/2000/svg"><g clip-path="url(#clip0_1_3738)"><path d="M47.395 16.551l-2.199-.378c-2.296-.403-3.676-1.723-3.676-3.824 0-2.846 1.966-4.226 5.142-4.226s5.142 1.38 5.142 4.068v.33h-2.968v-.33c0-.99-.806-1.49-2.174-1.49-1.38 0-2.089.402-2.089 1.429 0 .708.55 1.184 1.356 1.319l2.199.378c2.406.416 3.676 1.723 3.676 3.8 0 2.87-1.966 4.238-5.142 4.238s-5.142-1.38-5.142-4.068v-.33h2.968v.33c0 .99.806 1.49 2.174 1.49 1.38 0 2.089-.378 2.089-1.453.012-.709-.55-1.148-1.356-1.283zm10.114-.036l-.953 1.124v4.055h-2.968V8.306h2.968v5.216l4.227-5.216h3.615l-4.96 5.912 5.241 7.476h-3.591l-3.58-5.18zm8.477-8.209h2.969v13.388h-2.969V8.306zm5.118 0h2.968v10.798h6.364v2.578h-9.332V8.306zm10.908 0h2.956v10.798h6.364v2.578H82V8.306h.012zm16.527 8.245l-2.199-.378c-2.296-.403-3.676-1.723-3.676-3.824 0-2.846 1.966-4.226 5.142-4.226s5.143 1.38 5.143 4.068v.33h-2.956v-.33c0-.99-.807-1.49-2.175-1.49-1.38 0-2.088.402-2.088 1.429 0 .708.55 1.184 1.355 1.319l2.2.378c2.405.416 3.676 1.723 3.676 3.8 0 2.87-1.967 4.238-5.143 4.238-3.176 0-5.142-1.38-5.142-4.068v-.33h2.968v.33c0 .99.806 1.49 2.174 1.49 1.38 0 2.09-.378 2.09-1.453-.013-.709-.563-1.148-1.369-1.283zm11.409 5.339c-3.213 0-5.314-1.65-5.314-4.862v-4.056c0-3.212 2.101-4.861 5.35-4.861 3.213 0 5.314 1.649 5.314 4.861v4.056c0 1.93-.77 3.286-2.064 4.067l2.443 2.309-2.101 2.101-3.628-3.616zm2.394-8.918c0-1.514-.941-2.272-2.358-2.272-1.453 0-2.394.77-2.394 2.272v4.056c0 1.514.941 2.272 2.358 2.272 1.453 0 2.394-.77 2.394-2.272v-4.056zm15.452-4.666v8.722c0 3.212-2.101 4.862-5.35 4.862-3.213 0-5.314-1.65-5.314-4.862V8.306h2.969v8.722c0 1.515.94 2.272 2.357 2.272 1.454 0 2.394-.77 2.394-2.272V8.306h2.944zm13.119 13.388H137.7l-.855-2.834h-4.532l-.855 2.834H128.6l4.3-13.388h3.628l4.385 13.388zm-7.818-5.411h2.944l-1.478-4.813-1.466 4.813zm9.222-7.977h5.693c2.772 0 4.592 1.295 4.592 4.459 0 2.174-.855 3.493-2.308 4.092l2.504 4.837h-3.445l-2.174-4.458h-1.893v4.458h-2.969V8.306zm2.969 6.352h2.638c.989 0 1.625-.464 1.625-1.893 0-1.43-.648-1.869-1.625-1.869h-2.638v3.762zm9.186-6.352h9.332v2.578h-6.364v2.81h5.411v2.577h-5.411v2.833h6.364v2.578h-9.332V8.306zM10.2 26.665H3.531V3.335h23.33v6.67h3.335V2.48A2.481 2.481 0 0027.716 0H2.677a2.481 2.481 0 00-2.48 2.48v25.04A2.481 2.481 0 002.676 30H10.2v-3.335z" fill="#fff"/><path d="M30.196 16.527v-3.335H16.002a2.481 2.481 0 00-2.48 2.48v5.118a2.481 2.481 0 002.48 2.48h10.86v3.407H13.535v3.335H27.73a2.481 2.481 0 002.48-2.48v-5.117a2.481 2.481 0 00-2.48-2.48H16.87v-3.408h13.327z" fill="#FF5951"/></g><defs><clipPath id="clip0_1_3738"><path fill="#fff" transform="translate(.196)" d="M0 0h163.607v30H0z"/></clipPath></defs></svg>