<svg width="28" height="22" viewBox="0 0 28 22" fill="none" xmlns="http://www.w3.org/2000/svg">
<path d="M0.0875076 3.22125C0.263939 2.44818 0.697654 1.75792 1.31762 1.26354C1.93759 0.769156 2.70706 0.499947 3.50001 0.5H24.5C25.293 0.499947 26.0624 0.769156 26.6824 1.26354C27.3024 1.75792 27.7361 2.44818 27.9125 3.22125L14 11.7245L0.0875076 3.22125ZM7.62939e-06 5.21975V17.6517L10.1553 11.4253L7.62939e-06 5.21975ZM11.8318 12.4525L0.334258 19.4998C0.618329 20.0987 1.06668 20.6047 1.62713 20.9589C2.18757 21.313 2.83706 21.5006 3.50001 21.5H24.5C25.1628 21.5001 25.8121 21.3121 26.3722 20.9577C26.9323 20.6032 27.3803 20.0971 27.664 19.498L16.1665 12.4508L14 13.7755L11.8318 12.4508V12.4525ZM17.8448 11.427L28 17.6517V5.21975L17.8448 11.4253V11.427Z" fill="#1A73E8"/>
</svg>
