<svg width="36" height="36" viewBox="0 0 36 36" fill="none" xmlns="http://www.w3.org/2000/svg">
<path d="M35.5 32C35.5 33.9329 33.9329 35.5 32 35.5H4C2.06714 35.5 0.5 33.9329 0.5 32V14C0.5 12.0671 2.06714 10.5 4 10.5H32C33.9329 10.5 35.5 12.0671 35.5 14V32Z" fill="#CCD6DD" stroke="black"/>
<path d="M11.95 22.636L0.637026 33.949C0.610026 33.977 0.600026 34.012 0.577026 34.04C0.917026 34.61 1.39103 35.083 1.96103 35.424C1.99003 35.401 2.02403 35.391 2.05103 35.364L13.365 24.05C13.755 23.659 13.755 23.027 13.365 22.636C12.973 22.245 12.341 22.245 11.95 22.636ZM35.423 34.04C35.402 34.012 35.39 33.977 35.363 33.95L24.051 22.636C23.659 22.245 23.027 22.245 22.636 22.636C22.245 23.028 22.245 23.66 22.636 24.05L33.949 35.364C33.975 35.39 34.011 35.401 34.039 35.424C34.61 35.084 35.083 34.61 35.423 34.04Z" fill="#99AAB5"/>
<path d="M32 10H4C1.791 10 0 11.791 0 14V15.03L14.528 29.526C16.422 31.42 19.516 31.42 21.412 29.526L36 15.009V14C36 11.791 34.209 10 32 10Z" fill="#99AAB5"/>
<path d="M20.4745 26.6884L20.4744 26.6886C19.1087 28.0551 16.8914 28.0552 15.5246 26.6885C15.5246 26.6885 15.5246 26.6884 15.5246 26.6884L1.0223 12.1852C1.63749 11.1751 2.73856 10.5 4.00003 10.5H32C33.2623 10.5 34.3627 11.1751 34.9778 12.1852L20.4745 26.6884Z" fill="#E1E8ED" stroke="black"/>
<path d="M21.5 7.5V7V2C21.5 1.17198 20.8287 0.5 20 0.5H16C15.1721 0.5 14.5 1.17214 14.5 2V7V7.5H14H9.148C8.87892 7.5 8.6982 7.53511 8.58947 7.57724C8.53963 7.59656 8.51352 7.61358 8.501 7.62369C8.50272 7.63744 8.50818 7.66169 8.52381 7.69921C8.56494 7.79799 8.6613 7.94594 8.85055 8.13545L21.5 7.5ZM21.5 7.5H22M21.5 7.5H22M22 7.5H26.716M22 7.5H26.716M26.716 7.5C26.9854 7.5 27.1663 7.53512 27.2752 7.57729M26.716 7.5L27.2752 7.57729M27.2752 7.57729C27.3252 7.59664 27.3514 7.61371 27.3639 7.62384M27.2752 7.57729L27.3639 7.62384M27.3639 7.62384C27.3622 7.63758 27.3567 7.66179 27.3412 7.69924C27.3 7.79799 27.2037 7.94593 27.0144 8.13545L27.3639 7.62384ZM16.7136 15.9984L8.85075 8.13565H27.0142L19.1514 15.9984C18.4817 16.6682 17.3833 16.6682 16.7136 15.9984ZM8.5007 7.60927C8.50082 7.60932 8.50079 7.61054 8.50029 7.61281C8.50034 7.61035 8.50059 7.60922 8.5007 7.60927ZM8.49231 7.6317C8.49152 7.6329 8.49103 7.63345 8.49098 7.63343C8.49093 7.63341 8.49132 7.63281 8.49231 7.6317ZM27.374 7.63359C27.3739 7.63361 27.3734 7.63306 27.3726 7.63186C27.3736 7.63297 27.374 7.63356 27.374 7.63359ZM27.3642 7.60941C27.3643 7.60936 27.3646 7.61049 27.3646 7.61296C27.3641 7.61069 27.3641 7.60946 27.3642 7.60941Z" fill="#55ACEE" stroke="black"/>
</svg>
