<svg width="32" height="36" viewBox="0 0 32 36" fill="none" xmlns="http://www.w3.org/2000/svg">
<path d="M16.0099 4.5C18.9416 4.5 22.8267 5.23538 25.9649 7.5287C29.0771 9.80297 31.5099 13.6481 31.5099 20C31.5099 26.5248 31.5082 30.4716 31.1411 32.797C30.9571 33.962 30.6932 34.6255 30.3673 34.9997C30.0711 35.3398 29.6698 35.5 29.0099 35.5C28.3371 35.5 27.5828 35.3309 26.7074 35.0545C26.1321 34.8728 25.5312 34.654 24.8817 34.4176C24.5364 34.2919 24.1775 34.1612 23.8014 34.0285C21.6586 33.2722 19.095 32.5 16.0099 32.5C12.9244 32.5 10.3818 33.2725 8.24967 34.0288C7.89036 34.1562 7.54641 34.2818 7.21476 34.4029C6.55185 34.645 5.93807 34.8691 5.34897 35.0543C4.4711 35.3303 3.70525 35.5 3.00994 35.5C2.76176 35.5 2.52702 35.3953 2.28838 35.1372C2.04048 34.869 1.80773 34.4528 1.59998 33.8895C1.185 32.7643 0.919077 31.1915 0.754083 29.4528C0.47511 26.5129 0.493617 23.2163 0.50577 21.0513C0.50796 20.6612 0.509944 20.3079 0.509944 20C0.509944 13.6481 2.94279 9.80297 6.05495 7.5287C9.19317 5.23538 13.0782 4.5 16.0099 4.5Z" fill="#292F33" stroke="black"/>
<path d="M4.50995 19.562C4.50995 11.1876 9.76899 4.62399 16.0099 4.62399C22.2509 4.62399 27.5099 11.1876 27.5099 19.562C27.5099 27.9364 22.2509 34.5 16.0099 34.5C9.76899 34.5 4.50995 27.9364 4.50995 19.562Z" fill="#F7DECE" stroke="black"/>
<path d="M16.01 31C13.663 31 12.435 29.84 12.303 29.707C11.912 29.316 11.912 28.684 12.303 28.293C12.69 27.905 13.316 27.903 13.707 28.283C13.758 28.33 14.513 29 16.01 29C17.529 29 18.283 28.31 18.315 28.281C18.714 27.907 19.342 27.918 19.723 28.31C20.102 28.703 20.103 29.321 19.717 29.707C19.585 29.84 18.357 31 16.01 31Z" fill="#DF1F32"/>
<path d="M17.0099 26H15.0099C14.4579 26 14.0099 25.553 14.0099 25C14.0099 24.447 14.4579 24 15.0099 24H17.0099C17.5629 24 18.0099 24.447 18.0099 25C18.0099 25.553 17.5629 26 17.0099 26Z" fill="#C1694F"/>
<path d="M11.2672 11.5713L11.2671 11.5712L11.2671 11.5712L10.9324 11.3704L10.6564 11.6464L7.6564 14.6464C7.17929 15.1236 6.70073 15.5094 6.23122 15.8879L6.2274 15.8909L6.22294 15.8945C5.76086 16.267 5.29636 16.6415 4.8942 17.073C4.05282 17.9756 3.50995 19.0997 3.50995 21C3.50995 21.4232 3.46346 21.6478 3.41893 21.7556C3.41561 21.7636 3.41262 21.7704 3.40997 21.7761C3.37912 21.7717 3.32304 21.7596 3.23199 21.7264C3.1311 21.6897 3.03732 21.6476 2.92664 21.598C2.86085 21.5684 2.78908 21.5363 2.7063 21.5009C2.51339 21.4185 2.26785 21.3234 2.01331 21.2957C1.74132 21.266 1.42846 21.3109 1.15624 21.5407C0.901529 21.7556 0.747677 22.0788 0.653343 22.4622C0.557803 22.8505 0.509955 23.3552 0.509955 24C0.509955 24.1734 0.517597 24.3401 0.528674 24.5H0.513358C0.494078 23.2055 0.500623 22.0101 0.505924 21.0419C0.508038 20.6557 0.509955 20.3057 0.509955 20C0.509955 7.332 10.2267 2.5 16.01 2.5C21.7932 2.5 31.51 7.332 31.51 20C31.51 21.345 31.51 22.5786 31.5066 23.7145C31.4942 23.2059 31.4475 22.798 31.3656 22.4763C31.2706 22.1029 31.1113 21.7793 30.834 21.579C30.5394 21.3663 30.2147 21.3647 29.9575 21.419C29.7122 21.4708 29.4733 21.5843 29.2863 21.6778C29.235 21.7035 29.1871 21.7278 29.142 21.7508C29.0025 21.8217 28.8891 21.8795 28.778 21.9227C28.7075 21.9501 28.6621 21.9613 28.6359 21.966C28.6286 21.9519 28.6196 21.9317 28.6095 21.9033C28.5565 21.7557 28.51 21.4801 28.51 21C28.51 18.806 27.4025 17.1608 25.7873 16.084C24.1869 15.017 22.0841 14.5 20.01 14.5C18.1143 14.5 15.9408 13.7835 14.2069 13.0404C13.3472 12.672 12.6098 12.3033 12.0876 12.0269C11.8268 11.8887 11.6201 11.7739 11.4794 11.6941C11.4091 11.6541 11.3552 11.623 11.3194 11.602L11.2792 11.5784L11.2696 11.5727L11.2675 11.5714L11.2672 11.5713ZM31.4921 24.5C31.4972 24.4223 31.5015 24.3429 31.5047 24.2618C31.5044 24.3417 31.504 24.4211 31.5036 24.5H31.4921ZM28.6544 21.9945C28.6543 21.9947 28.6528 21.9935 28.6502 21.99C28.6531 21.9925 28.6544 21.9943 28.6544 21.9945Z" fill="#292F33" stroke="black"/>
<path d="M6.00995 6H26.0099V5L23.0099 4L21.0099 1L18.0099 2L16.0099 0L14.0099 2L11.0099 1L9.00995 4L6.00995 5V6Z" fill="#A7A9AC"/>
<path d="M16.0099 5C16.5622 5 17.0099 4.32843 17.0099 3.5C17.0099 2.67157 16.5622 2 16.0099 2C15.4577 2 15.0099 2.67157 15.0099 3.5C15.0099 4.32843 15.4577 5 16.0099 5Z" fill="#F1F2F2"/>
<path d="M12.0099 5C12.5622 5 13.0099 4.55228 13.0099 4C13.0099 3.44772 12.5622 3 12.0099 3C11.4577 3 11.0099 3.44772 11.0099 4C11.0099 4.55228 11.4577 5 12.0099 5Z" fill="#F1F2F2"/>
<path d="M20.0099 5C20.5622 5 21.0099 4.55228 21.0099 4C21.0099 3.44772 20.5622 3 20.0099 3C19.4577 3 19.0099 3.44772 19.0099 4C19.0099 4.55228 19.4577 5 20.0099 5Z" fill="#F1F2F2"/>
<path d="M11.0099 23C10.4579 23 10.0099 22.553 10.0099 22V20C10.0099 19.447 10.4579 19 11.0099 19C11.5619 19 12.0099 19.447 12.0099 20V22C12.0099 22.553 11.5619 23 11.0099 23ZM21.0099 23C20.4569 23 20.0099 22.553 20.0099 22V20C20.0099 19.447 20.4569 19 21.0099 19C21.5629 19 22.0099 19.447 22.0099 20V22C22.0099 22.553 21.5629 23 21.0099 23Z" fill="#662113"/>
</svg>
