<svg width="36" height="31" viewBox="0 0 36 31" fill="none" xmlns="http://www.w3.org/2000/svg">
<path d="M19.9261 25.1573C19.929 25.14 19.9317 25.123 19.9343 25.1063H22.0252C22.0278 25.123 22.0306 25.14 22.0334 25.1573C22.0858 25.4713 22.1914 25.8976 22.4075 26.3299C22.6247 26.7642 22.9583 27.2138 23.468 27.5536C23.8748 27.8248 24.3751 28.0135 24.9825 28.08C24.8602 28.1375 24.7004 28.1949 24.503 28.2493C23.6601 28.4819 22.3369 28.6063 20.9798 28.6063C19.6227 28.6063 18.2994 28.4819 17.4565 28.2493C17.2591 28.1949 17.0993 28.1375 16.977 28.08C17.5845 28.0135 18.0847 27.8248 18.4915 27.5536C19.0012 27.2138 19.3348 26.7642 19.552 26.3299C19.7681 25.8976 19.8737 25.4713 19.9261 25.1573ZM5.92608 25.1573C5.92896 25.14 5.93169 25.123 5.93426 25.1063H8.02524C8.02782 25.123 8.03055 25.14 8.03343 25.1573C8.08577 25.4713 8.19136 25.8976 8.40754 26.3299C8.6247 26.7642 8.95829 27.2138 9.46803 27.5536C9.87483 27.8248 10.3751 28.0135 10.9825 28.08C10.8602 28.1375 10.7004 28.1949 10.503 28.2493C9.66012 28.4819 8.33686 28.6063 6.97976 28.6063C5.62265 28.6063 4.29939 28.4819 3.45647 28.2493C3.25909 28.1949 3.09927 28.1375 2.97702 28.08C3.58446 28.0135 4.08468 27.8248 4.49148 27.5536C5.00122 27.2138 5.33481 26.7642 5.55197 26.3299C5.76815 25.8976 5.87374 25.4713 5.92608 25.1573Z" fill="#99AAB5" stroke="black"/>
<path d="M29.4798 30.1063H1.47975C1.42968 30.1063 1.28794 30.0618 1.08838 29.8196C0.903238 29.5949 0.735822 29.2774 0.626095 28.9482C0.513555 28.6106 0.482179 28.3228 0.508928 28.1528C0.511946 28.1336 0.515325 28.1183 0.518548 28.1063H28.4798C29.3189 28.1063 29.9815 27.8946 30.5105 27.5357C31.0333 27.1809 31.3921 26.705 31.6639 26.2294C31.8762 25.8579 32.0488 25.46 32.1998 25.1121C32.2384 25.0231 32.2756 24.9374 32.3117 24.8563C32.4153 24.623 32.5086 24.4301 32.6005 24.2744C33.5593 24.9161 34.1079 25.569 34.3644 26.1637C34.6457 26.8159 34.594 27.436 34.2908 27.9919C33.6624 29.144 31.8807 30.1063 29.4798 30.1063Z" fill="#99AAB5" stroke="black"/>
<path d="M0.981818 22.1063C1.01705 17.8847 1.49364 14.5542 1.97392 11.4324C2.00561 11.2264 2.03733 11.0212 2.06895 10.8167C2.53496 7.80296 2.97974 4.92646 2.97974 1.60633C2.97974 1.59263 2.98569 1.47886 3.28955 1.30228C3.57879 1.13419 4.02762 0.97948 4.61649 0.852367C5.78548 0.600029 7.36993 0.484456 8.97437 0.501673C10.5779 0.51888 12.1658 0.668322 13.3397 0.930104C13.9309 1.06196 14.3859 1.21566 14.6811 1.37722C14.9331 1.51519 14.9743 1.60344 14.9797 1.6163C14.9791 1.82767 14.9581 2.13434 14.9321 2.51435C14.8473 3.75404 14.7092 5.77435 15.049 7.81353C15.503 10.5374 16.8191 13.4675 20.2702 15.0603C21.8822 15.8043 23.6412 16.3 25.3487 16.7187C25.8932 16.8522 26.4296 16.9773 26.9548 17.0998C28.0946 17.3657 29.182 17.6193 30.1868 17.9202C31.6521 18.359 32.8541 18.8755 33.6874 19.6075C34.3923 20.2268 34.8506 21.015 34.9563 22.1063H0.981818Z" fill="#E6E7E8" stroke="black"/>
<path d="M33.4797 24.6063L33.4464 24.1074L33.4459 24.1075L33.444 24.1076L33.4362 24.1081L33.4045 24.1102L33.2793 24.118C33.1692 24.1248 33.0065 24.1345 32.7976 24.1462C32.3796 24.1695 31.7765 24.2006 31.0368 24.2318C29.5572 24.2941 27.5333 24.3563 25.3547 24.3563C23.1749 24.3563 20.8474 24.294 18.7584 24.1083C16.6565 23.9215 14.8434 23.6133 13.6655 23.1421L33.4797 24.6063ZM33.4797 24.6063L33.4465 24.1074M33.4797 24.6063L33.4465 24.1074M33.4631 24.1063H33.4797C34.1324 24.1063 34.6883 23.6886 34.8943 23.1061C23.3217 23.0981 18.6648 22.8524 16.1796 22.6038C15.3101 22.5169 14.7164 22.4318 14.1966 22.3573C13.1799 22.2116 12.4451 22.1063 10.4797 22.1063H0.979736V22.6063C0.979736 23.4342 1.65188 24.1063 2.47974 24.1063H10.4797C10.9979 24.1063 11.1676 23.9924 11.2254 23.9384C11.2945 23.8738 11.3185 23.8049 11.3847 23.6147C11.3916 23.5947 11.399 23.5734 11.407 23.5507C11.4415 23.4521 11.4993 23.2943 11.6109 23.154C11.7381 22.994 11.915 22.8795 12.1417 22.8334C12.3481 22.7914 12.5721 22.8108 12.8061 22.8619C13.0442 22.9139 13.3269 23.0066 13.6654 23.1421L33.4631 24.1063ZM33.4631 24.1063L33.4465 24.1074M33.4631 24.1063L33.4465 24.1074" fill="#E6E7E8" stroke="black"/>
<path d="M23.4092 18.1015L23.4099 18.1016C23.4312 18.1047 23.4549 18.1063 23.4808 18.1063C23.7245 18.1063 23.9386 17.9268 23.9748 17.6764L23.4092 18.1015ZM23.4092 18.1015C23.1344 18.0618 22.9448 17.8081 22.9838 17.5349L23.1926 16.0778C23.1927 16.0777 23.1927 16.0776 23.1927 16.0775C23.2319 15.8073 23.484 15.6161 23.7604 15.6525C24.0341 15.6932 24.2226 15.9463 24.1838 16.2188L23.9749 17.6761L23.4092 18.1015ZM15.4448 14.7163L15.4445 14.7161C15.246 14.5251 15.2403 14.2083 15.4322 14.01L15.4326 14.0095L17.1197 12.2604C17.1199 12.2603 17.12 12.2601 17.1201 12.26C17.3132 12.0613 17.6301 12.0566 17.8276 12.2472L17.8281 12.2476C18.0263 12.4383 18.0327 12.7544 17.8399 12.9542L17.8399 12.9542L16.1529 14.7031C16.1528 14.7033 16.1526 14.7034 16.1525 14.7036C16.0539 14.8049 15.9231 14.8563 15.7918 14.8563C15.666 14.8563 15.5419 14.81 15.4448 14.7163ZM19.4788 17.1063C19.4045 17.1063 19.328 17.0896 19.2558 17.0538C19.0095 16.9302 18.9095 16.63 19.033 16.3829L20.0326 14.3837C20.0327 14.3836 20.0327 14.3835 20.0328 14.3834C20.1565 14.1374 20.4561 14.037 20.7049 14.1599C20.9511 14.2835 21.0511 14.5837 20.9276 14.8307L19.9281 16.8297C19.928 16.8298 19.928 16.8299 19.9279 16.8301C19.84 17.0045 19.664 17.1063 19.4788 17.1063Z" fill="#DD2E44" stroke="black"/>
</svg>
