<svg width="36" height="34" viewBox="0 0 36 34" fill="none" xmlns="http://www.w3.org/2000/svg">
<path d="M8.35355 24.6464L8.20711 24.5H8H2.00218H2.00089L2.0016 24.5L1.9942 24.4998C1.98544 24.4995 1.9703 24.4988 1.94969 24.4974C1.90829 24.4944 1.84589 24.4883 1.7697 24.4756C1.61495 24.4498 1.41625 24.3991 1.22361 24.3028C1.03292 24.2074 0.857447 24.0723 0.728525 23.8789C0.60169 23.6886 0.5 23.4125 0.5 23V11C0.5 10.5875 0.60169 10.3114 0.728525 10.1211C0.857447 9.92772 1.03292 9.79256 1.22361 9.69721C1.41625 9.60089 1.61495 9.55024 1.7697 9.52445C1.84589 9.51175 1.90829 9.50559 1.94969 9.50264C1.9703 9.50116 1.98544 9.5005 1.9942 9.50021L2.00218 9.5H8H8.20711L8.35355 9.35355L16.3529 1.35422L16.353 1.35407L16.3533 1.35385L16.3534 1.35371L16.3536 1.35355L16.3536 1.3535L16.3592 1.34807C16.3647 1.34274 16.3737 1.33407 16.3861 1.32256C16.4108 1.2995 16.4485 1.26519 16.4973 1.22338C16.5953 1.13931 16.7354 1.0273 16.9023 0.916025C17.2524 0.682627 17.6503 0.5 18 0.5H19C19.1625 0.5 19.2511 0.53919 19.3008 0.572275C19.3535 0.607447 19.3949 0.657922 19.4278 0.723607C19.4616 0.79125 19.481 0.864946 19.4912 0.92595C19.4961 0.955267 19.4983 0.978604 19.4993 0.992655C19.4997 0.998461 19.4999 1.00249 19.5 1.00449V33C19.5 33.1625 19.4608 33.2511 19.4277 33.3008C19.3926 33.3535 19.3421 33.3949 19.2764 33.4278C19.2087 33.4616 19.1351 33.481 19.0741 33.4912C19.0447 33.4961 19.0214 33.4983 19.0073 33.4993C19.0015 33.4997 18.9975 33.4999 18.9955 33.5H18C17.6503 33.5 17.2524 33.3174 16.9023 33.084C16.7354 32.9727 16.5953 32.8607 16.4973 32.7766C16.4485 32.7348 16.4108 32.7005 16.3861 32.6774C16.3737 32.6659 16.3647 32.6573 16.3592 32.6519L16.3536 32.6465L16.3536 32.6464L16.3534 32.6463L16.3533 32.6461L16.353 32.6459L16.3529 32.6458L8.35355 24.6464ZM2.00252 9.49999L2.00233 9.5L2.00252 9.49999Z" fill="#8899A6" stroke="black"/>
<path d="M16.3536 32.6464L16.3534 32.6463L16.3533 32.6461L16.353 32.6459L16.3529 32.6458L8.5 24.7929V9.20711L16.3529 1.35422L16.353 1.35407L16.3533 1.35385L16.3534 1.35371L16.3536 1.35355L16.3536 1.3535L16.3592 1.34807C16.3647 1.34274 16.3737 1.33407 16.3861 1.32256C16.4108 1.2995 16.4485 1.26519 16.4973 1.22338C16.5953 1.13931 16.7354 1.0273 16.9024 0.916025C17.2524 0.682627 17.6503 0.5 18 0.5H19C19.1625 0.5 19.2511 0.53919 19.3008 0.572275C19.3535 0.607447 19.3949 0.657922 19.4278 0.723607C19.4616 0.79125 19.481 0.864946 19.4912 0.92595C19.4961 0.955267 19.4983 0.978604 19.4993 0.992655C19.4997 0.998483 19.4999 1.00252 19.5 1.00451V33C19.5 33.1625 19.4608 33.2511 19.4277 33.3008C19.3926 33.3535 19.3421 33.3949 19.2764 33.4278C19.2088 33.4616 19.1351 33.481 19.0741 33.4912C19.0447 33.4961 19.0214 33.4983 19.0073 33.4993C19.0015 33.4997 18.9975 33.4999 18.9955 33.5H18C17.6503 33.5 17.2524 33.3174 16.9024 33.084C16.7354 32.9727 16.5953 32.8607 16.4973 32.7766C16.4485 32.7348 16.4108 32.7005 16.3861 32.6774C16.3737 32.6659 16.3647 32.6573 16.3592 32.6519L16.3536 32.6465L16.3536 32.6464Z" fill="#CCD6DD" stroke="black"/>
<path d="M28.6592 3.76371L28.66 3.76276C28.818 3.57686 29.0981 3.55258 29.2893 3.71411C33.2013 7.05 35.446 11.9156 35.446 17.063C35.446 22.2106 33.2012 27.0764 29.2899 30.4113C29.2032 30.4847 29.1017 30.519 29 30.519C28.8734 30.519 28.7487 30.4657 28.6605 30.3627C28.5002 30.1743 28.523 29.893 28.7093 29.7336C32.424 26.5674 34.553 21.9482 34.553 17.063C34.553 12.1779 32.423 7.55878 28.7085 4.39264C28.5218 4.23301 28.4995 3.95074 28.6592 3.76371Z" fill="#8899A6" stroke="black"/>
<path d="M25.9387 27.3028L25.9386 27.3026C25.7876 27.1198 25.8131 26.851 25.9963 26.6997C28.9031 24.3008 30.572 20.7645 30.572 16.999C30.572 13.2782 28.9356 9.76821 26.0828 7.37134C25.9017 7.21872 25.8788 6.94819 26.0305 6.76801L26.0313 6.76705C26.1822 6.5869 26.4516 6.56179 26.636 6.71537C29.6828 9.27654 31.43 13.0233 31.43 16.999C31.43 21.0216 29.6488 24.7972 26.5428 27.3593L26.5409 27.3609C26.4607 27.4277 26.3663 27.459 26.27 27.459C26.1444 27.459 26.024 27.4062 25.9387 27.3028Z" fill="#8899A6" stroke="black"/>
<path d="M23.3213 24.2766L23.3213 24.2765C23.1457 24.0629 23.1769 23.7483 23.39 23.5737L23.3904 23.5733C25.3668 21.9495 26.5 19.5528 26.5 17C26.5 14.4134 25.3423 11.9972 23.3254 10.3744L23.325 10.3741C23.1107 10.202 23.0761 9.88778 23.2489 9.6722C23.4255 9.45535 23.7394 9.4235 23.952 9.59509L23.9525 9.59548C26.2077 11.4107 27.5 14.1085 27.5 17C27.5 19.8541 26.2342 22.5305 24.0256 24.3446L24.0241 24.3459C23.932 24.4222 23.8211 24.459 23.709 24.459C23.5624 24.459 23.4199 24.3965 23.3213 24.2766Z" fill="#8899A6" stroke="black"/>
</svg>
