<svg width="200" height="200" fill="none" xmlns="http://www.w3.org/2000/svg"><path d="M59.794 104.101v13.609a.833.833 0 01-.828.832h-4.275a.833.833 0 01-.828-.832V95.574c0-.22.087-.432.243-.588a.826.826 0 01.585-.244h3.956a.826.826 0 01.828.832v3.117s1.414-4.447 5.612-4.447c0 0 4.151-.504 5.84 4.126 0 0 1.413-4.126 5.702-4.126 0 0 6.377-.38 6.377 6.251l.049 3.652v13.609a.833.833 0 01-.828.832h-4.275a.833.833 0 01-.828-.832l-.04-14.847c.122-3.362-2.584-3.118-2.584-3.118-3.407.062-3.079 4.356-3.079 4.356v13.609a.833.833 0 01-.828.832h-4.275a.834.834 0 01-.828-.832v-14.511s.25-3.484-2.791-3.484c0 0-3.011-.397-2.905 4.34zM170 104.06v13.609a.83.83 0 01-.828.832l-4.446.086a.832.832 0 01-.828-.831v-14.511s.25-3.484-2.791-3.484c0 0-2.905-.144-2.905 5.319v12.63a.828.828 0 01-.828.832h-4.276a.83.83 0 01-.827-.832V95.574a.826.826 0 01.827-.832h3.957a.825.825 0 01.827.832v3.117s1.415-4.447 5.612-4.447c0 0 4.496-.685 6.01 4.04.001 0 .496.975.496 5.776zm-30.87-9.907c-5.467 0-9.899 4.63-9.899 12.423 0 6.862 3.421 12.424 9.899 12.424 6.114 0 9.9-5.562 9.9-12.424 0-7.655-4.432-12.423-9.9-12.423zm3.451 12.698c0 2.934-.365 4.493-.365 4.493-.519 3.102-2.76 3.106-3.09 3.09-.357.014-2.616-.018-3.084-3.09 0 0-.365-1.559-.365-4.493v-.488c0-2.934.365-4.493.365-4.493.468-3.072 2.728-3.104 3.084-3.09.33-.017 2.571-.013 3.09 3.09 0 0 .365 1.559.365 4.493v.488zm-15.832-8.19v-3.177a.831.831 0 00-.828-.831h-14.132a.825.825 0 00-.827.831v3.152a.826.826 0 00.827.832h7.372l-8.725 12.719s-.344.515-.333 1.085v3.869s-.057 1.326 1.44.556c0 0 2.66-1.614 7.119-1.614 0 0 4.403-.055 7.339 1.753 0 0 1.218.557 1.218-.667v-3.368s.111-.891-1.052-1.447c0 0-3.379-1.865-7.81-1.559l8.392-12.135zm-76.185 15.922l-1.339-2.047c-.426-.764-.395-1.62-.395-1.62v-9.444c.182-8.16-8.82-7.457-8.82-7.457-8.004 0-9.186 6.259-9.186 6.259-.333 1.258.637 1.289.637 1.289l3.91.398s.667.153.91-.644c0 0 .515-2.73 3.395-2.73 3.134 0 3.101 2.702 3.101 2.702v2.262c-6.255.211-9.154 1.956-9.154 1.956-3.863 2.2-3.62 6.571-3.62 6.571 0 7.12 6.752 6.815 6.752 6.815 4.319 0 6.874-3.179 6.874-3.179.76 1.346 2.16 2.628 2.16 2.628.7.763 1.429.123 1.429.123l3.163-2.72c.7-.52.182-1.162.182-1.162zm-11.701-.088c-2.032 0-2.787-2.028-2.45-4.022.338-1.994 2.091-3.56 6.365-3.514v1.212c.151 5.295-2.224 6.324-3.915 6.324zm68.515.088l-1.338-2.047c-.426-.764-.396-1.62-.396-1.62v-9.444c.183-8.16-8.82-7.457-8.82-7.457-8.004 0-9.186 6.259-9.186 6.259-.333 1.258.637 1.289.637 1.289l3.91.398s.667.153.91-.644c0 0 .515-2.73 3.395-2.73 3.134 0 3.101 2.702 3.101 2.702v2.262c-6.255.211-9.154 1.956-9.154 1.956-3.863 2.2-3.62 6.571-3.62 6.571 0 7.12 6.752 6.815 6.752 6.815 4.319 0 6.874-3.179 6.874-3.179.76 1.346 2.159 2.628 2.159 2.628.7.763 1.43.123 1.43.123l3.163-2.72c.699-.52.183-1.162.183-1.162zm-11.701-.088c-2.032 0-2.787-2.028-2.45-4.022.338-1.994 2.091-3.56 6.364-3.514v1.212c.152 5.295-2.223 6.324-3.914 6.324zm22.588 17.566s-.357.621.082.76c0 0 .495.193 1.112-.38 0 0 4.504-3.935 4.613-11.097 0 0 .033-.895-.326-1.14 0 0-1.411-1.248-6.485-.868 0 0-4.422.298-6.837 2.442 0 0-.217.19-.217.434 0 0-.052.526 1.275.298 0 0 4.423-.624 7.054-.298 0 0 1.358.162 1.737.624 0 0 .624.516.298 2.224 0 .001-.895 4.342-2.306 7.001z" fill="#6E8AA7"/><path d="M117.374 125.189s.66.855-.406 1.594c0 0-11.384 9.106-30.5 9.106 0 0-19.678.971-36.11-13.958 0 0-.575-.506-.218-.976 0 0 .32-.432 1.148.038 0 0 15.456 9.631 35.756 9.631 0 0 14.109.546 28.583-5.644 0 0 1.153-.597 1.747.209z" fill="#6E8AA7"/></svg>