<svg width="80" height="80" fill="none" xmlns="http://www.w3.org/2000/svg"><path d="M59.992 23.867a2.02 2.02 0 00-.633 0 8.578 8.578 0 01-8.267-8.6c0-4.767 3.834-8.6 8.6-8.6 4.767 0 8.6 3.866 8.6 8.6-.033 4.666-3.7 8.433-8.3 8.6zm-3.433 24.266c4.566.767 9.6-.033 13.133-2.4 4.7-3.133 4.7-8.266 0-11.4-3.567-2.366-8.667-3.166-13.233-2.366m-36.567-8.1c.2-.034.433-.034.633 0a8.578 8.578 0 008.267-8.6c0-4.767-3.834-8.6-8.6-8.6-4.767 0-8.6 3.866-8.6 8.6.033 4.666 3.7 8.433 8.3 8.6zm3.433 24.266c-4.567.767-9.6-.033-13.133-2.4-4.7-3.133-4.7-8.266 0-11.4 3.566-2.366 8.666-3.166 13.233-2.366" stroke="#33C5FE" stroke-width="4" stroke-linecap="round" stroke-linejoin="round"/><path d="M40 48.767a2.014 2.014 0 00-.633 0 8.578 8.578 0 01-8.267-8.6c0-4.767 3.833-8.6 8.6-8.6 4.767 0 8.6 3.866 8.6 8.6-.033 4.666-3.7 8.466-8.3 8.6zm-9.7 10.5c-4.7 3.133-4.7 8.266 0 11.4 5.333 3.566 14.067 3.566 19.4 0 4.7-3.134 4.7-8.267 0-11.4-5.3-3.534-14.067-3.534-19.4 0z" stroke="#C0D4E3" stroke-width="4" stroke-linecap="round" stroke-linejoin="round"/></svg>