<svg width="80" height="85" fill="none" xmlns="http://www.w3.org/2000/svg"><path d="M39.333 46.533a7.767 7.767 0 100-15.533 7.767 7.767 0 000 15.533zm13.334 17.8c0-5.521-5.967-10-13.334-10-7.366 0-13.333 4.479-13.333 10" stroke="#33C5FE" stroke-width="4" stroke-linecap="round" stroke-linejoin="round"/><path d="M28.223 12.653c3.345-1 7.036-1.653 11.112-1.653C57.752 11 72.67 25.918 72.67 44.335S57.752 77.67 39.335 77.67 6 62.752 6 44.335a33.332 33.332 0 015.614-18.532M24 13.067L33.633 2M24 13.066l11.233 8.2" stroke="#C0D4E3" stroke-width="4" stroke-linecap="round" stroke-linejoin="round"/></svg>