<svg width="80" height="80" fill="none" xmlns="http://www.w3.org/2000/svg"><path d="M66.2 26.967c0 1.4-.1 2.766-.267 4.066A12.382 12.382 0 0060.966 30a12.325 12.325 0 00-9.9 4.967C48.8 31.967 45.2 30 41.133 30c-6.833 0-12.367 5.567-12.367 12.467 0 8.933 4.734 15.766 10 20.4-.166.1-.333.133-.5.2-1 .366-2.666.366-3.666 0-8.634-2.967-27.934-15.234-27.934-36.1 0-9.2 7.4-16.634 16.534-16.634 5.433 0 10.233 2.6 13.233 6.634 3.034-4.034 7.834-6.634 13.233-6.634 9.134 0 16.534 7.434 16.534 16.634z" stroke="#33C5FE" stroke-width="4" stroke-linecap="round" stroke-linejoin="round"/><path d="M73.333 42.467c0 15.6-14.433 24.8-20.9 27-.766.266-2 .266-2.766 0-2.767-.934-7-3.167-10.9-6.6-5.267-4.634-10-11.467-10-20.4C28.767 35.567 34.3 30 41.133 30c4.067 0 7.667 1.967 9.934 4.967 2.233-3 5.833-4.967 9.9-4.967 1.766 0 3.433.367 4.966 1.033a12.45 12.45 0 017.4 11.434z" stroke="#C0D4E3" stroke-width="4" stroke-linecap="round" stroke-linejoin="round"/></svg>