<svg width="80" height="80" fill="none" xmlns="http://www.w3.org/2000/svg"><path d="M73.333 38.333v13.334c0 11.666-6.666 16.666-16.666 16.666H23.332c-10 0-16.666-5-16.666-16.666V28.333c0-11.666 6.666-16.666 16.666-16.666H40" stroke="#C0D4E3" stroke-width="4" stroke-miterlimit="10" stroke-linecap="round" stroke-linejoin="round"/><path d="M23.334 30l10.433 8.333c3.433 2.734 9.066 2.734 12.5 0" stroke="#C0D4E3" stroke-width="4" stroke-miterlimit="10" stroke-linecap="round" stroke-linejoin="round"/><path d="M64.933 9.4l.934 1.9c.466.933 1.633 1.8 2.666 2l1.267.2c3.8.633 4.7 3.433 1.966 6.2L70.6 20.867c-.767.8-1.2 2.333-.967 3.4l.167.7c1.033 4.6-1.4 6.366-5.4 3.966l-.867-.5c-1.033-.6-2.7-.6-3.733 0l-.867.5c-4.033 2.434-6.466.634-5.4-3.966l.167-.7c.233-1.067-.2-2.6-.967-3.4L51.567 19.7c-2.734-2.767-1.834-5.567 1.966-6.2l1.267-.2c1-.167 2.2-1.067 2.667-2l.933-1.9c1.8-3.633 4.733-3.633 6.533 0z" stroke="#33C5FE" stroke-width="4" stroke-linecap="round" stroke-linejoin="round"/></svg>