<svg width="80" height="80" fill="none" xmlns="http://www.w3.org/2000/svg"><path d="M31.666 45.833c0 3.234 2.5 5.834 5.567 5.834H43.5c2.666 0 4.833-2.267 4.833-5.1 0-3.034-1.333-4.134-3.3-4.834L35 38.233c-1.967-.7-3.3-1.766-3.3-4.833 0-2.8 2.167-5.1 4.833-5.1H42.8c3.067 0 5.567 2.6 5.567 5.833M40 25v30" stroke="#33C5FE" stroke-width="4" stroke-linecap="round" stroke-linejoin="round"/><path d="M73.333 40C73.333 58.4 58.4 73.333 40 73.333S6.666 58.4 6.666 40 21.6 6.667 40 6.667M73.333 20V6.667H60m-3.334 16.666L73.334 6.667" stroke="#C0D4E3" stroke-width="4" stroke-linecap="round" stroke-linejoin="round"/></svg>