<svg width="80" height="80" fill="none" xmlns="http://www.w3.org/2000/svg"><path d="M73.333 43.333V30c0-16.667-6.666-23.333-23.333-23.333H30C13.333 6.667 6.666 13.333 6.666 30v20c0 16.667 6.667 23.333 23.334 23.333h13.333" stroke="#C0D4E3" stroke-width="4" stroke-linecap="round" stroke-linejoin="round"/><path d="M24.433 48.3L32.367 38a3.346 3.346 0 014.7-.6l6.1 4.8a3.372 3.372 0 004.7-.567l7.7-9.933" stroke="#33C5FE" stroke-width="4" stroke-linecap="round" stroke-linejoin="round"/><path d="M64.933 52.733l.934 1.9c.466.934 1.633 1.8 2.666 2l1.267.2c3.8.634 4.7 3.434 1.966 6.2L70.6 64.2c-.767.8-1.2 2.333-.967 3.4l.167.7c1.033 4.6-1.4 6.367-5.4 3.967l-.867-.5c-1.033-.6-2.7-.6-3.733 0l-.867.5c-4.033 2.433-6.466.633-5.4-3.967l.167-.7c.233-1.067-.2-2.6-.967-3.4l-1.166-1.167c-2.734-2.766-1.834-5.566 1.966-6.2l1.267-.2c1-.166 2.2-1.066 2.667-2l.933-1.9c1.8-3.633 4.733-3.633 6.533 0z" stroke="#C0D4E3" stroke-width="4" stroke-linecap="round" stroke-linejoin="round"/></svg>