<svg width="561" height="538" fill="none" xmlns="http://www.w3.org/2000/svg"><g clip-path="url(#clip0_9_5328)"><rect x=".286" y="70.5" width="559.957" height="466.631" rx="17.609" fill="#F6F9FA"/><g clip-path="url(#clip1_9_5328)"><rect x="26.699" y="96.912" width="507.131" height="88.043" rx="8.804" fill="#fff"/><g clip-path="url(#clip2_9_5328)"><circle cx="70.719" cy="140.934" r="26.413" fill="#33C5FE"/><path d="M60.795 154.76a2.83 2.83 0 01-1.04-.65l-.13-.13c-.13-.13-.26-.391-.26-.521 0-.26.13-.39.39-.52a5.68 5.68 0 002.472-2.472c.13-.131.26-.261.26-.391-3.643-2.212-5.855-5.725-5.855-9.498 0-6.506 6.766-11.971 14.963-11.971s14.963 5.465 14.963 11.971-6.766 11.97-14.963 11.97c-.78 0-1.692 0-2.472-.13-1.952 1.692-4.294 2.603-6.506 2.603-.65 0-1.171-.131-1.822-.261z" fill="#fff"/></g><g clip-path="url(#clip3_9_5328)"><path d="M137.147 134.282h-2.5l-7-10.74v10.74h-2.4v-14.18h3.06l6.44 10.06v-10.06h2.4v14.18zm4.774-5.94h4.78c-.026-.613-.246-1.127-.66-1.54-.4-.413-.98-.62-1.74-.62-.693 0-1.253.22-1.68.66-.426.427-.66.927-.7 1.5zm5.04 2.54l1.96.62c-.28.893-.806 1.633-1.58 2.22-.76.573-1.7.86-2.82.86-1.386 0-2.566-.473-3.54-1.42-.96-.947-1.44-2.213-1.44-3.8 0-1.493.467-2.72 1.4-3.68.947-.96 2.06-1.44 3.34-1.44 1.494 0 2.66.46 3.5 1.38.84.907 1.26 2.133 1.26 3.68 0 .413-.02.66-.06.74h-7.12c.027.733.294 1.34.8 1.82.52.48 1.14.72 1.86.72 1.254 0 2.067-.567 2.44-1.7zm9.681-6.34h2.4l2.3 6.74 1.94-6.74h2.36l-3.12 9.74h-2.32l-2.42-7-2.36 7h-2.38l-3.16-9.74h2.48l1.98 6.74 2.3-6.74zm31.53 9.74h-2.38v-10.44l-4.42 10.44h-2.08l-4.38-10.4v10.4h-2.34v-14.18h3.2l4.6 10.82 4.54-10.82h3.26v14.18zm4.784-5.94h4.78c-.026-.613-.246-1.127-.66-1.54-.4-.413-.98-.62-1.74-.62-.693 0-1.253.22-1.68.66-.426.427-.66.927-.7 1.5zm5.04 2.54l1.96.62c-.28.893-.806 1.633-1.58 2.22-.76.573-1.7.86-2.82.86-1.386 0-2.566-.473-3.54-1.42-.96-.947-1.44-2.213-1.44-3.8 0-1.493.467-2.72 1.4-3.68.947-.96 2.06-1.44 3.34-1.44 1.494 0 2.66.46 3.5 1.38.84.907 1.26 2.133 1.26 3.68 0 .413-.02.66-.06.74h-7.12c.027.733.294 1.34.8 1.82.52.48 1.14.72 1.86.72 1.254 0 2.067-.567 2.44-1.7zm3.437.76l2.02-.56c.04.467.234.86.58 1.18.347.32.814.48 1.4.48.454 0 .807-.107 1.06-.32.267-.213.4-.48.4-.8 0-.56-.38-.92-1.14-1.08l-1.44-.32c-.84-.187-1.486-.533-1.94-1.04a2.613 2.613 0 01-.68-1.8c0-.853.347-1.587 1.04-2.2.694-.627 1.54-.94 2.54-.94.64 0 1.207.093 1.7.28.494.187.874.433 1.14.74.28.293.494.58.64.86.147.28.24.56.28.84l-1.96.56a1.735 1.735 0 00-.52-1c-.28-.307-.706-.46-1.28-.46-.4 0-.733.113-1 .34-.266.213-.4.473-.4.78 0 .547.327.887.98 1.02l1.48.3c.907.2 1.6.56 2.08 1.08s.72 1.147.72 1.88c0 .813-.326 1.54-.98 2.18-.64.627-1.54.94-2.7.94-.666 0-1.266-.1-1.8-.3-.52-.2-.933-.453-1.24-.76a5.224 5.224 0 01-.7-.94 2.61 2.61 0 01-.28-.94zm9.141 0l2.02-.56c.04.467.233.86.58 1.18.347.32.813.48 1.4.48.453 0 .807-.107 1.06-.32.267-.213.4-.48.4-.8 0-.56-.38-.92-1.14-1.08l-1.44-.32c-.84-.187-1.487-.533-1.94-1.04a2.613 2.613 0 01-.68-1.8c0-.853.347-1.587 1.04-2.2.693-.627 1.54-.94 2.54-.94.64 0 1.207.093 1.7.28.493.187.873.433 1.14.74.28.293.493.58.64.86.147.28.24.56.28.84l-1.96.56a1.74 1.74 0 00-.52-1c-.28-.307-.707-.46-1.28-.46-.4 0-.733.113-1 .34-.267.213-.4.473-.4.78 0 .547.327.887.98 1.02l1.48.3c.907.2 1.6.56 2.08 1.08s.72 1.147.72 1.88c0 .813-.327 1.54-.98 2.18-.64.627-1.54.94-2.7.94-.667 0-1.267-.1-1.8-.3-.52-.2-.933-.453-1.24-.76a5.177 5.177 0 01-.7-.94 2.61 2.61 0 01-.28-.94zm9.264 0c0-.827.267-1.487.8-1.98.547-.507 1.26-.827 2.14-.96l2.5-.38c.48-.067.72-.3.72-.7 0-.44-.153-.793-.46-1.06-.307-.28-.767-.42-1.38-.42-.587 0-1.053.167-1.4.5-.347.32-.547.74-.6 1.26l-2.12-.48c.093-.88.513-1.627 1.26-2.24.747-.627 1.693-.94 2.84-.94 1.413 0 2.453.34 3.12 1.02.68.68 1.02 1.553 1.02 2.62v4.84c0 .64.04 1.16.12 1.56h-2.16c-.067-.2-.1-.613-.1-1.24-.64 1.027-1.64 1.54-3 1.54-.987 0-1.787-.287-2.4-.86-.6-.587-.9-1.28-.9-2.08zm3.74 1.12c.72 0 1.3-.193 1.74-.58.453-.4.68-1.047.68-1.94v-.44l-2.54.38c-.867.147-1.3.587-1.3 1.32 0 .347.127.647.38.9.253.24.6.36 1.04.36zm6.785 2.06l2.14-.56c.08.613.34 1.113.78 1.5.453.4 1.007.6 1.66.6 1.84 0 2.76-.973 2.76-2.92v-1.02c-.227.413-.587.753-1.08 1.02-.493.267-1.073.4-1.74.4-1.307 0-2.387-.447-3.24-1.34-.84-.893-1.26-2.027-1.26-3.4 0-1.32.42-2.44 1.26-3.36.84-.92 1.92-1.38 3.24-1.38 1.427 0 2.387.473 2.88 1.42v-1.24h2.24v8.82c0 1.44-.407 2.633-1.22 3.58-.813.96-2.073 1.44-3.78 1.44-1.253 0-2.307-.34-3.16-1.02-.853-.68-1.347-1.527-1.48-2.54zm4.9-2.96c.747 0 1.347-.247 1.8-.74.467-.507.7-1.18.7-2.02 0-.827-.233-1.487-.7-1.98-.467-.507-1.067-.76-1.8-.76-.747 0-1.36.253-1.84.76-.467.493-.7 1.153-.7 1.98 0 .84.233 1.513.7 2.02.467.493 1.08.74 1.84.74zm9.197-3.52h4.78c-.026-.613-.246-1.127-.66-1.54-.4-.413-.98-.62-1.74-.62-.693 0-1.253.22-1.68.66-.426.427-.66.927-.7 1.5zm5.04 2.54l1.96.62c-.28.893-.806 1.633-1.58 2.22-.76.573-1.7.86-2.82.86-1.386 0-2.566-.473-3.54-1.42-.96-.947-1.44-2.213-1.44-3.8 0-1.493.467-2.72 1.4-3.68.947-.96 2.06-1.44 3.34-1.44 1.494 0 2.66.46 3.5 1.38.84.907 1.26 2.133 1.26 3.68 0 .413-.02.66-.06.74h-7.12c.027.733.294 1.34.8 1.82.52.48 1.14.72 1.86.72 1.254 0 2.067-.567 2.44-1.7z" fill="#4A5C72"/><path opacity=".7" d="M135.211 163.217h-1.764v-5.67h-6.516v5.67h-1.764v-12.762h1.764v5.454h6.516v-5.454h1.764v12.762zm4.163-5.22h4.734c-.024-.648-.24-1.176-.648-1.584-.408-.42-.984-.63-1.728-.63-.672 0-1.224.222-1.656.666a2.32 2.32 0 00-.702 1.548zm4.986 2.25l1.458.504a3.881 3.881 0 01-1.404 1.98c-.684.504-1.512.756-2.484.756-1.212 0-2.244-.414-3.096-1.242-.84-.84-1.26-1.968-1.26-3.384 0-1.32.408-2.412 1.224-3.276.816-.864 1.788-1.296 2.916-1.296 1.308 0 2.328.414 3.06 1.242.732.816 1.098 1.914 1.098 3.294 0 .216-.012.396-.036.54h-6.516c.012.768.264 1.398.756 1.89.504.492 1.122.738 1.854.738 1.236 0 2.046-.582 2.43-1.746zm5.657 6.588h-1.854l2.16-4.572-3.726-7.704h1.944l2.7 5.976 2.592-5.976h1.818l-5.634 12.276zm20.779-3.618l-1.386-3.564h-5.652l-1.35 3.564h-1.89l5.076-12.762h2.034l5.076 12.762h-1.908zm-4.23-10.926l-2.178 5.724h4.392l-2.214-5.724zm9.455 10.926h-1.692v-13.032h1.692v13.032zm3.976-5.22h4.734c-.024-.648-.24-1.176-.648-1.584-.408-.42-.984-.63-1.728-.63-.672 0-1.224.222-1.656.666a2.32 2.32 0 00-.702 1.548zm4.986 2.25l1.458.504a3.881 3.881 0 01-1.404 1.98c-.684.504-1.512.756-2.484.756-1.212 0-2.244-.414-3.096-1.242-.84-.84-1.26-1.968-1.26-3.384 0-1.32.408-2.412 1.224-3.276.816-.864 1.788-1.296 2.916-1.296 1.308 0 2.328.414 3.06 1.242.732.816 1.098 1.914 1.098 3.294 0 .216-.012.396-.036.54h-6.516c.012.768.264 1.398.756 1.89.504.492 1.122.738 1.854.738 1.236 0 2.046-.582 2.43-1.746zm2.324 2.97l3.222-4.41-3.114-4.248h2.052l2.124 3.042 2.088-3.042h1.998l-3.078 4.248c.18.228.714.966 1.602 2.214a375.39 375.39 0 001.584 2.196h-2.034l-2.232-3.186-2.196 3.186h-2.016zm9.922-1.152c0-.324.126-.606.378-.846s.564-.36.936-.36c.408 0 .75.15 1.026.45.288.3.432.72.432 1.26 0 1.08-.276 1.914-.828 2.502-.552.588-1.164.924-1.836 1.008v-.936a1.744 1.744 0 001.062-.72c.276-.372.42-.78.432-1.224-.084.06-.216.09-.396.09-.348 0-.636-.108-.864-.324-.228-.228-.342-.528-.342-.9zm9.431-1.17c0-.744.24-1.338.72-1.782.48-.456 1.116-.738 1.908-.846l2.34-.342c.444-.06.666-.276.666-.648 0-.456-.156-.828-.468-1.116-.312-.288-.78-.432-1.404-.432-.576 0-1.032.162-1.368.486-.336.312-.534.732-.594 1.26l-1.62-.378c.084-.828.462-1.5 1.134-2.016.672-.528 1.476-.792 2.412-.792 1.224 0 2.13.3 2.718.9.588.588.882 1.344.882 2.268v4.338c0 .516.036.99.108 1.422h-1.656c-.06-.36-.09-.75-.09-1.17-.24.384-.594.72-1.062 1.008-.456.288-1.032.432-1.728.432-.852 0-1.548-.252-2.088-.756-.54-.516-.81-1.128-.81-1.836zm3.132 1.17c.756 0 1.362-.204 1.818-.612.456-.408.684-1.056.684-1.944v-.396l-2.646.396c-.384.06-.69.198-.918.414-.228.216-.342.51-.342.882 0 .336.126.63.378.882.264.252.606.378 1.026.378zm11.636-7.596v1.8a5.216 5.216 0 00-.738-.054c-1.584 0-2.376.888-2.376 2.664v4.338h-1.692v-8.658h1.656v1.512c.528-1.104 1.392-1.656 2.592-1.656.192 0 .378.018.558.054zm2.814 3.528h4.734c-.024-.648-.24-1.176-.648-1.584-.408-.42-.984-.63-1.728-.63-.672 0-1.224.222-1.656.666a2.32 2.32 0 00-.702 1.548zm4.986 2.25l1.458.504a3.881 3.881 0 01-1.404 1.98c-.684.504-1.512.756-2.484.756-1.212 0-2.244-.414-3.096-1.242-.84-.84-1.26-1.968-1.26-3.384 0-1.32.408-2.412 1.224-3.276.816-.864 1.788-1.296 2.916-1.296 1.308 0 2.328.414 3.06 1.242.732.816 1.098 1.914 1.098 3.294 0 .216-.012.396-.036.54h-6.516c.012.768.264 1.398.756 1.89.504.492 1.122.738 1.854.738 1.236 0 2.046-.582 2.43-1.746zm10.331 6.588h-1.854l2.16-4.572-3.726-7.704h1.944l2.7 5.976 2.592-5.976h1.818l-5.634 12.276zm8.693-5.67c.528.54 1.17.81 1.926.81s1.392-.27 1.908-.81c.528-.552.792-1.314.792-2.286 0-.96-.264-1.71-.792-2.25a2.509 2.509 0 00-1.908-.828c-.756 0-1.398.276-1.926.828-.516.54-.774 1.29-.774 2.25 0 .972.258 1.734.774 2.286zm-1.26-5.562c.84-.876 1.902-1.314 3.186-1.314s2.34.438 3.168 1.314c.84.864 1.26 1.956 1.26 3.276 0 1.332-.414 2.436-1.242 3.312-.828.864-1.89 1.296-3.186 1.296s-2.358-.432-3.186-1.296c-.828-.876-1.242-1.98-1.242-3.312 0-1.32.414-2.412 1.242-3.276zm15.397 6.57a2.261 2.261 0 01-1.044.99 3.564 3.564 0 01-1.512.324c-.984 0-1.77-.324-2.358-.972-.588-.66-.882-1.494-.882-2.502v-5.454h1.692v5.202c0 .648.156 1.182.468 1.602.324.42.822.63 1.494.63s1.182-.198 1.53-.594c.348-.408.522-.948.522-1.62v-5.22h1.692v7.056c0 .564.03 1.098.09 1.602h-1.62a6.067 6.067 0 01-.072-1.044zm13.345-6.084h-2.088v7.128H271.9v-7.128h-1.602v-1.53h1.602v-1.458c0-.924.27-1.65.81-2.178s1.218-.792 2.034-.792c.516 0 .852.06 1.008.18v1.512c-.18-.072-.426-.108-.738-.108a1.48 1.48 0 00-.972.342c-.264.216-.396.594-.396 1.134v1.368h2.088v1.53zm6.62-1.62v1.8a5.216 5.216 0 00-.738-.054c-1.584 0-2.376.888-2.376 2.664v4.338h-1.692v-8.658h1.656v1.512c.528-1.104 1.392-1.656 2.592-1.656.192 0 .378.018.558.054zm2.813 3.528h4.734c-.024-.648-.24-1.176-.648-1.584-.408-.42-.984-.63-1.728-.63-.672 0-1.224.222-1.656.666a2.32 2.32 0 00-.702 1.548zm4.986 2.25l1.458.504a3.881 3.881 0 01-1.404 1.98c-.684.504-1.512.756-2.484.756-1.212 0-2.244-.414-3.096-1.242-.84-.84-1.26-1.968-1.26-3.384 0-1.32.408-2.412 1.224-3.276.816-.864 1.788-1.296 2.916-1.296 1.308 0 2.328.414 3.06 1.242.732.816 1.098 1.914 1.098 3.294 0 .216-.012.396-.036.54h-6.516c.012.768.264 1.398.756 1.89.504.492 1.122.738 1.854.738 1.236 0 2.046-.582 2.43-1.746zm4.77-2.25h4.734c-.024-.648-.24-1.176-.648-1.584-.408-.42-.984-.63-1.728-.63-.672 0-1.224.222-1.656.666a2.32 2.32 0 00-.702 1.548zm4.986 2.25l1.458.504a3.881 3.881 0 01-1.404 1.98c-.684.504-1.512.756-2.484.756-1.212 0-2.244-.414-3.096-1.242-.84-.84-1.26-1.968-1.26-3.384 0-1.32.408-2.412 1.224-3.276.816-.864 1.788-1.296 2.916-1.296 1.308 0 2.328.414 3.06 1.242.732.816 1.098 1.914 1.098 3.294 0 .216-.012.396-.036.54h-6.516c.012.768.264 1.398.756 1.89.504.492 1.122.738 1.854.738 1.236 0 2.046-.582 2.43-1.746zm9.864-2.034v5.004h-1.692v-8.658h1.656v1.242c.576-.996 1.464-1.494 2.664-1.494.996 0 1.758.318 2.286.954.54.636.81 1.458.81 2.466v5.49h-1.692v-5.202c0-1.452-.672-2.178-2.016-2.178-.636 0-1.134.228-1.494.684-.348.444-.522 1.008-.522 1.692zm10.198 2.952c.528.54 1.17.81 1.926.81s1.392-.27 1.908-.81c.528-.552.792-1.314.792-2.286 0-.96-.264-1.71-.792-2.25a2.509 2.509 0 00-1.908-.828c-.756 0-1.398.276-1.926.828-.516.54-.774 1.29-.774 2.25 0 .972.258 1.734.774 2.286zm-1.26-5.562c.84-.876 1.902-1.314 3.186-1.314s2.34.438 3.168 1.314c.84.864 1.26 1.956 1.26 3.276 0 1.332-.414 2.436-1.242 3.312-.828.864-1.89 1.296-3.186 1.296s-2.358-.432-3.186-1.296c-.828-.876-1.242-1.98-1.242-3.312 0-1.32.414-2.412 1.242-3.276zm14.481-1.044h1.746l2.25 6.516 1.908-6.516h1.782l-2.808 8.658h-1.746l-2.304-6.588-2.25 6.588h-1.782l-2.844-8.658h1.854l1.944 6.516 2.25-6.516zm13.067 5.004h-1.584a8.196 8.196 0 01-.018-.63c0-1.2.498-2.136 1.494-2.808l.792-.54c.636-.432.954-1.02.954-1.764 0-.576-.186-1.062-.558-1.458-.372-.396-.9-.594-1.584-.594-.732 0-1.29.228-1.674.684a2.435 2.435 0 00-.576 1.62c0 .36.042.654.126.882l-1.746-.216a3.15 3.15 0 01-.108-.864c0-.588.132-1.152.396-1.692s.708-1.008 1.332-1.404c.624-.396 1.374-.594 2.25-.594 1.2 0 2.154.36 2.862 1.08.72.72 1.08 1.566 1.08 2.538 0 1.26-.612 2.304-1.836 3.132l-.828.558c-.528.36-.792.936-.792 1.728 0 .108.006.222.018.342zm-1.638 3.402a1.128 1.128 0 01-.342-.828c0-.324.114-.6.342-.828a1.1 1.1 0 01.828-.36c.324 0 .6.12.828.36.24.228.36.504.36.828 0 .324-.12.6-.36.828a1.128 1.128 0 01-.828.342c-.324 0-.6-.114-.828-.342z" fill="#6E8AA7"/></g></g><g clip-path="url(#clip4_9_5328)"><rect x="26.699" y="207.847" width="507.131" height="88.043" rx="8.804" fill="#fff"/><g clip-path="url(#clip5_9_5328)"><circle cx="70.719" cy="251.869" r="26.413" fill="#C0D4E3"/><g clip-path="url(#clip6_9_5328)" fill="#fff"><path d="M84.933 241.938a3.167 3.167 0 00-1.881-.634H59.807a3.167 3.167 0 00-1.88.634l13.503 8.674 13.503-8.674z"/><path d="M71.816 252.84h-.084a1.054 1.054 0 01-.57.085h-.085l-.18-.085-14.158-9.149a3.158 3.158 0 00-.106.781v14.792a3.172 3.172 0 003.17 3.17h23.245a3.171 3.171 0 003.17-3.17v-14.792a3.163 3.163 0 00-.106-.781l-14.116 9.065-.18.084z"/></g></g><g clip-path="url(#clip7_9_5328)"><path d="M137.147 245.217h-2.5l-7-10.74v10.74h-2.4v-14.18h3.06l6.44 10.06v-10.06h2.4v14.18zm4.774-5.94h4.78c-.026-.614-.246-1.127-.66-1.54-.4-.414-.98-.62-1.74-.62-.693 0-1.253.22-1.68.66-.426.426-.66.926-.7 1.5zm5.04 2.54l1.96.62c-.28.893-.806 1.633-1.58 2.22-.76.573-1.7.86-2.82.86-1.386 0-2.566-.474-3.54-1.42-.96-.947-1.44-2.214-1.44-3.8 0-1.494.467-2.72 1.4-3.68.947-.96 2.06-1.44 3.34-1.44 1.494 0 2.66.46 3.5 1.38.84.906 1.26 2.133 1.26 3.68 0 .413-.02.66-.06.74h-7.12c.027.733.294 1.34.8 1.82.52.48 1.14.72 1.86.72 1.254 0 2.067-.567 2.44-1.7zm9.681-6.34h2.4l2.3 6.74 1.94-6.74h2.36l-3.12 9.74h-2.32l-2.42-7-2.36 7h-2.38l-3.16-9.74h2.48l1.98 6.74 2.3-6.74zm24.69 9.74h-8.76v-14.18h8.76v2.24h-6.36v3.76h5.76v2.18h-5.76v3.76h6.36v2.24zm4.785 0h-2.3v-9.74h2.22v1.24c.267-.48.667-.854 1.2-1.12a3.79 3.79 0 011.68-.4c.653 0 1.24.146 1.76.44.52.293.907.72 1.16 1.28.68-1.147 1.733-1.72 3.16-1.72.96 0 1.773.313 2.44.94.667.626 1 1.546 1 2.76v6.32h-2.24v-5.94c0-.6-.16-1.08-.48-1.44-.307-.374-.773-.56-1.4-.56-.6 0-1.087.206-1.46.62-.373.413-.56.926-.56 1.54v5.78h-2.28v-5.94c0-.6-.16-1.08-.48-1.44-.307-.374-.773-.56-1.4-.56-.613 0-1.107.206-1.48.62-.36.4-.54.913-.54 1.54v5.78zm14.561-2.64c0-.827.266-1.487.8-1.98.546-.507 1.26-.827 2.14-.96l2.5-.38c.48-.067.72-.3.72-.7 0-.44-.154-.794-.46-1.06-.307-.28-.767-.42-1.38-.42-.587 0-1.054.166-1.4.5-.347.32-.547.74-.6 1.26l-2.12-.48c.093-.88.513-1.627 1.26-2.24.746-.627 1.693-.94 2.84-.94 1.413 0 2.453.34 3.12 1.02.68.68 1.02 1.553 1.02 2.62v4.84c0 .64.04 1.16.12 1.56h-2.16c-.067-.2-.1-.614-.1-1.24-.64 1.026-1.64 1.54-3 1.54-.987 0-1.787-.287-2.4-.86-.6-.587-.9-1.28-.9-2.08zm3.74 1.12c.72 0 1.3-.194 1.74-.58.453-.4.68-1.047.68-1.94v-.44l-2.54.38c-.867.146-1.3.586-1.3 1.32 0 .346.126.646.38.9.253.24.6.36 1.04.36zm9.804 1.52h-2.3v-9.74h2.3v9.74zm-2.22-12.1a1.448 1.448 0 01-.44-1.06c0-.414.147-.767.44-1.06.294-.307.647-.46 1.06-.46.427 0 .787.146 1.08.44.294.293.44.653.44 1.08 0 .413-.146.766-.44 1.06-.293.293-.653.44-1.08.44-.413 0-.766-.147-1.06-.44zm7.533 12.1h-2.32v-14.48h2.32v14.48z" fill="#4A5C72"/><path opacity=".7" d="M138.505 274.151l-1.386-3.564h-5.652l-1.35 3.564h-1.89l5.076-12.762h2.034l5.076 12.762h-1.908zm-4.23-10.926l-2.178 5.724h4.392l-2.214-5.724zm9.455 10.926h-1.692v-13.032h1.692v13.032zm3.976-5.22h4.734c-.024-.648-.24-1.176-.648-1.584-.408-.42-.984-.63-1.728-.63-.672 0-1.224.222-1.656.666a2.32 2.32 0 00-.702 1.548zm4.986 2.25l1.458.504a3.881 3.881 0 01-1.404 1.98c-.684.504-1.512.756-2.484.756-1.212 0-2.244-.414-3.096-1.242-.84-.84-1.26-1.968-1.26-3.384 0-1.32.408-2.412 1.224-3.276.816-.864 1.788-1.296 2.916-1.296 1.308 0 2.328.414 3.06 1.242.732.816 1.098 1.914 1.098 3.294 0 .216-.012.396-.036.54h-6.516c.012.768.264 1.398.756 1.89.504.492 1.122.738 1.854.738 1.236 0 2.046-.582 2.43-1.746zm2.324 2.97l3.222-4.41-3.114-4.248h2.052l2.124 3.042 2.088-3.042h1.998l-3.078 4.248c.18.228.714.966 1.602 2.214a375.39 375.39 0 001.584 2.196h-2.034l-2.232-3.186-2.196 3.186h-2.016zm9.922-1.152c0-.324.126-.606.378-.846s.564-.36.936-.36c.408 0 .75.15 1.026.45.288.3.432.72.432 1.26 0 1.08-.276 1.914-.828 2.502-.552.588-1.164.924-1.836 1.008v-.936a1.744 1.744 0 001.062-.72c.276-.372.42-.78.432-1.224-.084.06-.216.09-.396.09-.348 0-.636-.108-.864-.324-.228-.228-.342-.528-.342-.9zm16.631 4.77h-1.854l2.16-4.572-3.726-7.704h1.944l2.7 5.976 2.592-5.976h1.818l-5.634 12.276zm8.693-5.67c.528.54 1.17.81 1.926.81s1.392-.27 1.908-.81c.528-.552.792-1.314.792-2.286 0-.96-.264-1.71-.792-2.25a2.509 2.509 0 00-1.908-.828c-.756 0-1.398.276-1.926.828-.516.54-.774 1.29-.774 2.25 0 .972.258 1.734.774 2.286zm-1.26-5.562c.84-.876 1.902-1.314 3.186-1.314s2.34.438 3.168 1.314c.84.864 1.26 1.956 1.26 3.276 0 1.332-.414 2.436-1.242 3.312-.828.864-1.89 1.296-3.186 1.296s-2.358-.432-3.186-1.296c-.828-.876-1.242-1.98-1.242-3.312 0-1.32.414-2.412 1.242-3.276zm15.396 6.57a2.261 2.261 0 01-1.044.99 3.564 3.564 0 01-1.512.324c-.984 0-1.77-.324-2.358-.972-.588-.66-.882-1.494-.882-2.502v-5.454h1.692v5.202c0 .648.156 1.182.468 1.602.324.42.822.63 1.494.63s1.182-.198 1.53-.594c.348-.408.522-.948.522-1.62v-5.22H206v7.056c0 .564.03 1.098.09 1.602h-1.62a6.067 6.067 0 01-.072-1.044zm9.296-7.704v1.8a5.216 5.216 0 00-.738-.054c-1.584 0-2.376.888-2.376 2.664v4.338h-1.692v-8.658h1.656v1.512c.528-1.104 1.392-1.656 2.592-1.656.192 0 .378.018.558.054zm8.085 6.696c.528.54 1.17.81 1.926.81s1.392-.27 1.908-.81c.528-.552.792-1.314.792-2.286 0-.96-.264-1.71-.792-2.25a2.509 2.509 0 00-1.908-.828c-.756 0-1.398.276-1.926.828-.516.54-.774 1.29-.774 2.25 0 .972.258 1.734.774 2.286zm-1.26-5.562c.84-.876 1.902-1.314 3.186-1.314s2.34.438 3.168 1.314c.84.864 1.26 1.956 1.26 3.276 0 1.332-.414 2.436-1.242 3.312-.828.864-1.89 1.296-3.186 1.296s-2.358-.432-3.186-1.296c-.828-.876-1.242-1.98-1.242-3.312 0-1.32.414-2.412 1.242-3.276zm14.585-1.134v1.8a5.216 5.216 0 00-.738-.054c-1.584 0-2.376.888-2.376 2.664v4.338h-1.692v-8.658h1.656v1.512c.528-1.104 1.392-1.656 2.592-1.656.192 0 .378.018.558.054zm2.723 4.392c0 .912.222 1.656.666 2.232.456.576 1.08.864 1.872.864.756 0 1.362-.294 1.818-.882.456-.588.684-1.338.684-2.25 0-.9-.222-1.626-.666-2.178-.444-.552-1.05-.828-1.818-.828s-1.386.282-1.854.846c-.468.564-.702 1.296-.702 2.196zm5.058 3.186v-.144c-.228.444-.576.816-1.044 1.116-.456.288-1.002.432-1.638.432-1.236 0-2.232-.432-2.988-1.296-.744-.876-1.116-1.974-1.116-3.294 0-1.26.384-2.328 1.152-3.204.768-.888 1.752-1.332 2.952-1.332.708 0 1.284.144 1.728.432.444.276.75.618.918 1.026v-5.598h1.674v11.43c0 .588.03 1.122.09 1.602h-1.638a6.723 6.723 0 01-.09-1.17zm5.614-4.05h4.734c-.024-.648-.24-1.176-.648-1.584-.408-.42-.984-.63-1.728-.63-.672 0-1.224.222-1.656.666a2.32 2.32 0 00-.702 1.548zm4.986 2.25l1.458.504a3.881 3.881 0 01-1.404 1.98c-.684.504-1.512.756-2.484.756-1.212 0-2.244-.414-3.096-1.242-.84-.84-1.26-1.968-1.26-3.384 0-1.32.408-2.412 1.224-3.276.816-.864 1.788-1.296 2.916-1.296 1.308 0 2.328.414 3.06 1.242.732.816 1.098 1.914 1.098 3.294 0 .216-.012.396-.036.54h-6.516c.012.768.264 1.398.756 1.89.504.492 1.122.738 1.854.738 1.236 0 2.046-.582 2.43-1.746zm8.478-5.778v1.8a5.216 5.216 0 00-.738-.054c-1.584 0-2.376.888-2.376 2.664v4.338h-1.692v-8.658h1.656v1.512c.528-1.104 1.392-1.656 2.592-1.656.192 0 .378.018.558.054zm11.11 0v1.8a5.216 5.216 0 00-.738-.054c-1.584 0-2.376.888-2.376 2.664v4.338h-1.692v-8.658h1.656v1.512c.528-1.104 1.392-1.656 2.592-1.656.192 0 .378.018.558.054zm2.813 3.528h4.734c-.024-.648-.24-1.176-.648-1.584-.408-.42-.984-.63-1.728-.63-.672 0-1.224.222-1.656.666a2.32 2.32 0 00-.702 1.548zm4.986 2.25l1.458.504a3.881 3.881 0 01-1.404 1.98c-.684.504-1.512.756-2.484.756-1.212 0-2.244-.414-3.096-1.242-.84-.84-1.26-1.968-1.26-3.384 0-1.32.408-2.412 1.224-3.276.816-.864 1.788-1.296 2.916-1.296 1.308 0 2.328.414 3.06 1.242.732.816 1.098 1.914 1.098 3.294 0 .216-.012.396-.036.54h-6.516c.012.768.264 1.398.756 1.89.504.492 1.122.738 1.854.738 1.236 0 2.046-.582 2.43-1.746zm5.346 6.39h-1.674v-12.078h1.638v1.35c.252-.456.63-.828 1.134-1.116.504-.288 1.092-.432 1.764-.432 1.248 0 2.22.426 2.916 1.278.708.852 1.062 1.932 1.062 3.24 0 1.32-.366 2.412-1.098 3.276-.72.864-1.698 1.296-2.934 1.296-.636 0-1.2-.132-1.692-.396s-.864-.6-1.116-1.008v4.59zm5.112-7.758c0-.876-.234-1.596-.702-2.16-.456-.576-1.074-.864-1.854-.864-.768 0-1.392.288-1.872.864-.468.564-.702 1.284-.702 2.16 0 .9.234 1.638.702 2.214.48.564 1.104.846 1.872.846s1.386-.282 1.854-.846c.468-.576.702-1.314.702-2.214zm5.576 4.338h-1.692v-13.032h1.692v13.032zm2.338-2.322c0-.744.24-1.338.72-1.782.48-.456 1.116-.738 1.908-.846l2.34-.342c.444-.06.666-.276.666-.648 0-.456-.156-.828-.468-1.116-.312-.288-.78-.432-1.404-.432-.576 0-1.032.162-1.368.486-.336.312-.534.732-.594 1.26l-1.62-.378c.084-.828.462-1.5 1.134-2.016.672-.528 1.476-.792 2.412-.792 1.224 0 2.13.3 2.718.9.588.588.882 1.344.882 2.268v4.338c0 .516.036.99.108 1.422h-1.656c-.06-.36-.09-.75-.09-1.17-.24.384-.594.72-1.062 1.008-.456.288-1.032.432-1.728.432-.852 0-1.548-.252-2.088-.756-.54-.516-.81-1.128-.81-1.836zm3.132 1.17c.756 0 1.362-.204 1.818-.612.456-.408.684-1.056.684-1.944v-.396l-2.646.396c-.384.06-.69.198-.918.414-.228.216-.342.51-.342.882 0 .336.126.63.378.882.264.252.606.378 1.026.378zm10.466-6.21c-.732 0-1.356.264-1.872.792-.504.528-.756 1.272-.756 2.232 0 .948.252 1.692.756 2.232.516.54 1.146.81 1.89.81.72 0 1.266-.18 1.638-.54.384-.36.642-.774.774-1.242l1.494.648c-.24.72-.696 1.35-1.368 1.89-.66.54-1.506.81-2.538.81-1.26 0-2.304-.438-3.132-1.314-.828-.876-1.242-1.974-1.242-3.294 0-1.344.414-2.442 1.242-3.294.828-.864 1.866-1.296 3.114-1.296 1.056 0 1.908.27 2.556.81.66.54 1.092 1.188 1.296 1.944l-1.53.648a2.734 2.734 0 00-.756-1.296c-.372-.36-.894-.54-1.566-.54zm6.919 2.142h4.734c-.024-.648-.24-1.176-.648-1.584-.408-.42-.984-.63-1.728-.63-.672 0-1.224.222-1.656.666a2.32 2.32 0 00-.702 1.548zm4.986 2.25l1.458.504a3.881 3.881 0 01-1.404 1.98c-.684.504-1.512.756-2.484.756-1.212 0-2.244-.414-3.096-1.242-.84-.84-1.26-1.968-1.26-3.384 0-1.32.408-2.412 1.224-3.276.816-.864 1.788-1.296 2.916-1.296 1.308 0 2.328.414 3.06 1.242.732.816 1.098 1.914 1.098 3.294 0 .216-.012.396-.036.54h-6.516c.012.768.264 1.398.756 1.89.504.492 1.122.738 1.854.738 1.236 0 2.046-.582 2.43-1.746zm4.68-1.386c0 .912.222 1.656.666 2.232.456.576 1.08.864 1.872.864.756 0 1.362-.294 1.818-.882.456-.588.684-1.338.684-2.25 0-.9-.222-1.626-.666-2.178-.444-.552-1.05-.828-1.818-.828s-1.386.282-1.854.846c-.468.564-.702 1.296-.702 2.196zm5.058 3.186v-.144c-.228.444-.576.816-1.044 1.116-.456.288-1.002.432-1.638.432-1.236 0-2.232-.432-2.988-1.296-.744-.876-1.116-1.974-1.116-3.294 0-1.26.384-2.328 1.152-3.204.768-.888 1.752-1.332 2.952-1.332.708 0 1.284.144 1.728.432.444.276.75.618.918 1.026v-5.598h1.674v11.43c0 .588.03 1.122.09 1.602h-1.638a6.723 6.723 0 01-.09-1.17zm10.996 1.17h-1.8v-12.762h1.8v12.762zm5.009-1.566h2.61c1.248 0 2.28-.414 3.096-1.242.828-.828 1.242-2.01 1.242-3.546 0-1.548-.408-2.742-1.224-3.582-.804-.84-1.83-1.26-3.078-1.26h-2.646v9.63zm2.664 1.566h-4.428v-12.762h4.464c1.716 0 3.156.57 4.32 1.71 1.164 1.128 1.746 2.694 1.746 4.698 0 1.992-.588 3.552-1.764 4.68-1.176 1.116-2.622 1.674-4.338 1.674zm13.189-7.29v-1.368h2.592l.648-3.006h1.512l-.648 3.006h2.556l.648-3.006h1.512l-.648 3.006h2.43v1.368h-2.718l-.612 2.88h2.448v1.368h-2.754l-.648 3.042h-1.512l.648-3.042h-2.556l-.648 3.042h-1.512l.648-3.042h-2.268v-1.368h2.574l.612-2.88h-2.304zm3.816 0l-.612 2.88h2.556l.612-2.88h-2.556zm12.821 4.662v-2.034l5.004-7.002h2.43v7.398h1.998v1.638h-1.998v2.628h-1.71v-2.628h-5.724zm5.724-1.638v-5.706l-4.104 5.706h4.104zm4.612 1.098l1.692-.504c.048.72.312 1.302.792 1.746.492.444 1.104.666 1.836.666.708 0 1.302-.216 1.782-.648.48-.432.72-1.002.72-1.71 0-.768-.24-1.362-.72-1.782-.48-.42-1.08-.63-1.8-.63-.876 0-1.584.282-2.124.846-.168-.06-.444-.168-.828-.324a68.873 68.873 0 00-.9-.36l1.512-5.796h6.156v1.62h-4.986l-.864 3.348c.516-.576 1.308-.864 2.376-.864 1.164 0 2.112.348 2.844 1.044.744.696 1.116 1.638 1.116 2.826 0 1.128-.396 2.076-1.188 2.844-.792.756-1.824 1.134-3.096 1.134-1.2 0-2.202-.336-3.006-1.008-.792-.672-1.23-1.488-1.314-2.448zm13.281-2.25l-.864-1.458 3.438-3.168h-5.58v-1.62h7.92v1.584l-3.33 3.078c.948 0 1.782.312 2.502.936.732.624 1.098 1.494 1.098 2.61 0 1.032-.378 1.914-1.134 2.646-.756.732-1.788 1.098-3.096 1.098-1.284 0-2.316-.354-3.096-1.062-.768-.72-1.182-1.59-1.242-2.61l1.728-.396c.036.756.294 1.368.774 1.836.492.456 1.098.684 1.818.684.768 0 1.368-.204 1.8-.612.444-.42.666-.936.666-1.548 0-.708-.234-1.248-.702-1.62-.468-.372-1.026-.558-1.674-.558-.348 0-.69.06-1.026.18zm8.438-2.052l-1.764-.216a4.557 4.557 0 01-.018-.468c0-1.044.366-1.932 1.098-2.664.732-.744 1.71-1.116 2.934-1.116 1.212 0 2.172.348 2.88 1.044.708.684 1.062 1.53 1.062 2.538 0 1.476-.732 2.676-2.196 3.6l-2.304 1.476c-.828.528-1.302 1.074-1.422 1.638h5.994v1.638h-8.172c.024-.984.246-1.848.666-2.592.432-.744 1.134-1.428 2.106-2.052l1.944-1.26c1.068-.684 1.602-1.494 1.602-2.43 0-.576-.192-1.062-.576-1.458-.384-.396-.924-.594-1.62-.594-.732 0-1.29.222-1.674.666-.384.444-.576 1.02-.576 1.728 0 .108.012.282.036.522zm12.169 7.47h-1.728v-8.226h-2.826v-1.242c.792-.012 1.458-.216 1.998-.612.54-.408.876-.936 1.008-1.584h1.548v11.664z" fill="#6E8AA7"/></g></g><g clip-path="url(#clip8_9_5328)"><rect x="26.699" y="318.782" width="507.131" height="88.043" rx="8.804" fill="#fff"/><g clip-path="url(#clip9_9_5328)"><path d="M127.647 356.152h-2.4v-14.18h8.82v2.26h-6.42v3.98h5.76v2.22h-5.76v5.72zm7.23-2.64c0-.826.267-1.486.8-1.98.547-.506 1.26-.826 2.14-.96l2.5-.38c.48-.066.72-.3.72-.7 0-.44-.153-.793-.46-1.06-.307-.28-.767-.42-1.38-.42-.587 0-1.053.167-1.4.5-.347.32-.547.74-.6 1.26l-2.12-.48c.093-.88.513-1.626 1.26-2.24.747-.626 1.693-.94 2.84-.94 1.413 0 2.453.34 3.12 1.02.68.68 1.02 1.554 1.02 2.62v4.84c0 .64.04 1.16.12 1.56h-2.16c-.067-.2-.1-.613-.1-1.24-.64 1.027-1.64 1.54-3 1.54-.987 0-1.787-.286-2.4-.86-.6-.586-.9-1.28-.9-2.08zm3.74 1.12c.72 0 1.3-.193 1.74-.58.453-.4.68-1.046.68-1.94v-.44l-2.54.38c-.867.147-1.3.587-1.3 1.32 0 .347.127.647.38.9.253.24.6.36 1.04.36zm11.725-6.38c-.747 0-1.38.274-1.9.82-.52.534-.78 1.267-.78 2.2 0 .947.26 1.694.78 2.24.533.547 1.18.82 1.94.82.68 0 1.22-.18 1.62-.54.413-.373.687-.793.82-1.26l2.04.74c-.267.867-.787 1.614-1.56 2.24-.76.627-1.733.94-2.92.94-1.427 0-2.627-.493-3.6-1.48-.96-.986-1.44-2.22-1.44-3.7 0-1.493.473-2.726 1.42-3.7.96-.973 2.147-1.46 3.56-1.46 1.213 0 2.2.314 2.96.94.773.627 1.273 1.38 1.5 2.26l-2.08.76a2.556 2.556 0 00-.78-1.28c-.373-.36-.9-.54-1.58-.54zm8.103 1.96h4.78c-.027-.613-.247-1.126-.66-1.54-.4-.413-.98-.62-1.74-.62-.694 0-1.254.22-1.68.66-.427.427-.66.927-.7 1.5zm5.04 2.54l1.96.62c-.28.894-.807 1.634-1.58 2.22-.76.574-1.7.86-2.82.86-1.387 0-2.567-.473-3.54-1.42-.96-.946-1.44-2.213-1.44-3.8 0-1.493.466-2.72 1.4-3.68.946-.96 2.06-1.44 3.34-1.44 1.493 0 2.66.46 3.5 1.38.84.907 1.26 2.134 1.26 3.68 0 .414-.02.66-.06.74h-7.12c.026.734.293 1.34.8 1.82.52.48 1.14.72 1.86.72 1.253 0 2.066-.566 2.44-1.7zm6.557 3.4h-2.26v-14.48h2.28v5.94c.24-.413.633-.76 1.18-1.04.546-.28 1.173-.42 1.88-.42 1.413 0 2.513.48 3.3 1.44.8.947 1.2 2.16 1.2 3.64 0 1.507-.42 2.747-1.26 3.72-.827.96-1.934 1.44-3.32 1.44-1.387 0-2.387-.513-3-1.54v1.3zm4.5-2.64c.493-.56.74-1.313.74-2.26 0-.946-.24-1.686-.72-2.22-.48-.546-1.114-.82-1.9-.82-.76 0-1.387.274-1.88.82-.494.534-.74 1.274-.74 2.22 0 .934.246 1.68.74 2.24.493.56 1.12.84 1.88.84.773 0 1.4-.273 1.88-.82zm7.65.04c.533.547 1.18.82 1.94.82s1.4-.273 1.92-.82c.533-.546.8-1.306.8-2.28 0-.96-.267-1.706-.8-2.24a2.548 2.548 0 00-1.92-.82c-.76 0-1.407.274-1.94.82-.52.534-.78 1.28-.78 2.24 0 .96.26 1.72.78 2.28zm1.94-7.44c1.467 0 2.673.487 3.62 1.46.96.974 1.44 2.207 1.44 3.7 0 1.494-.48 2.734-1.44 3.72-.947.974-2.153 1.46-3.62 1.46-1.453 0-2.66-.486-3.62-1.46-.947-.986-1.42-2.226-1.42-3.72 0-1.493.473-2.726 1.42-3.7.96-.973 2.167-1.46 3.62-1.46zm9.642 7.44c.533.547 1.18.82 1.94.82s1.4-.273 1.92-.82c.533-.546.8-1.306.8-2.28 0-.96-.267-1.706-.8-2.24a2.548 2.548 0 00-1.92-.82c-.76 0-1.407.274-1.94.82-.52.534-.78 1.28-.78 2.24 0 .96.26 1.72.78 2.28zm1.94-7.44c1.467 0 2.673.487 3.62 1.46.96.974 1.44 2.207 1.44 3.7 0 1.494-.48 2.734-1.44 3.72-.947.974-2.153 1.46-3.62 1.46-1.453 0-2.66-.486-3.62-1.46-.947-.986-1.42-2.226-1.42-3.72 0-1.493.473-2.726 1.42-3.7.96-.973 2.167-1.46 3.62-1.46zm16.422.3l-4 4.12 4.08 5.62h-2.84l-2.86-3.98-1.2 1.26v2.72h-2.3v-14.48h2.3v8.68l3.74-3.94h3.08zm22.52 9.74h-2.38v-10.44l-4.42 10.44h-2.08l-4.38-10.4v10.4h-2.34v-14.18h3.2l4.6 10.82 4.54-10.82h3.26v14.18zm4.785-5.94h4.78c-.027-.613-.247-1.126-.66-1.54-.4-.413-.98-.62-1.74-.62-.694 0-1.254.22-1.68.66-.427.427-.66.927-.7 1.5zm5.04 2.54l1.96.62c-.28.894-.807 1.634-1.58 2.22-.76.574-1.7.86-2.82.86-1.387 0-2.567-.473-3.54-1.42-.96-.946-1.44-2.213-1.44-3.8 0-1.493.466-2.72 1.4-3.68.946-.96 2.06-1.44 3.34-1.44 1.493 0 2.66.46 3.5 1.38.84.907 1.26 2.134 1.26 3.68 0 .414-.02.66-.06.74h-7.12c.026.734.293 1.34.8 1.82.52.48 1.14.72 1.86.72 1.253 0 2.066-.566 2.44-1.7zm3.437.76l2.02-.56c.04.467.233.86.58 1.18.346.32.813.48 1.4.48.453 0 .806-.106 1.06-.32.266-.213.4-.48.4-.8 0-.56-.38-.92-1.14-1.08l-1.44-.32c-.84-.186-1.487-.533-1.94-1.04a2.605 2.605 0 01-.68-1.8c0-.853.346-1.586 1.04-2.2.693-.626 1.54-.94 2.54-.94.64 0 1.206.094 1.7.28.493.187.873.434 1.14.74.28.294.493.58.64.86.146.28.24.56.28.84l-1.96.56a1.75 1.75 0 00-.52-1c-.28-.306-.707-.46-1.28-.46-.4 0-.734.114-1 .34-.267.214-.4.474-.4.78 0 .547.326.887.98 1.02l1.48.3c.906.2 1.6.56 2.08 1.08s.72 1.147.72 1.88c0 .814-.327 1.54-.98 2.18-.64.627-1.54.94-2.7.94-.667 0-1.267-.1-1.8-.3-.52-.2-.934-.453-1.24-.76a5.13 5.13 0 01-.7-.94 2.59 2.59 0 01-.28-.94zm9.14 0l2.02-.56c.04.467.234.86.58 1.18.347.32.814.48 1.4.48.454 0 .807-.106 1.06-.32.267-.213.4-.48.4-.8 0-.56-.38-.92-1.14-1.08l-1.44-.32c-.84-.186-1.486-.533-1.94-1.04a2.61 2.61 0 01-.68-1.8c0-.853.347-1.586 1.04-2.2.694-.626 1.54-.94 2.54-.94.64 0 1.207.094 1.7.28.494.187.874.434 1.14.74.28.294.494.58.64.86.147.28.24.56.28.84l-1.96.56a1.738 1.738 0 00-.52-1c-.28-.306-.706-.46-1.28-.46-.4 0-.733.114-1 .34-.266.214-.4.474-.4.78 0 .547.327.887.98 1.02l1.48.3c.907.2 1.6.56 2.08 1.08s.72 1.147.72 1.88c0 .814-.326 1.54-.98 2.18-.64.627-1.54.94-2.7.94-.666 0-1.266-.1-1.8-.3-.52-.2-.933-.453-1.24-.76a5.224 5.224 0 01-.7-.94 2.61 2.61 0 01-.28-.94zm9.264 0c0-.826.267-1.486.8-1.98.547-.506 1.26-.826 2.14-.96l2.5-.38c.48-.066.72-.3.72-.7 0-.44-.153-.793-.46-1.06-.306-.28-.766-.42-1.38-.42-.586 0-1.053.167-1.4.5-.346.32-.546.74-.6 1.26l-2.12-.48c.094-.88.514-1.626 1.26-2.24.747-.626 1.694-.94 2.84-.94 1.414 0 2.454.34 3.12 1.02.68.68 1.02 1.554 1.02 2.62v4.84c0 .64.04 1.16.12 1.56h-2.16c-.066-.2-.1-.613-.1-1.24-.64 1.027-1.64 1.54-3 1.54-.986 0-1.786-.286-2.4-.86-.6-.586-.9-1.28-.9-2.08zm3.74 1.12c.72 0 1.3-.193 1.74-.58.454-.4.68-1.046.68-1.94v-.44l-2.54.38c-.866.147-1.3.587-1.3 1.32 0 .347.127.647.38.9.254.24.6.36 1.04.36zm6.785 2.06l2.14-.56c.08.614.34 1.114.78 1.5.454.4 1.007.6 1.66.6 1.84 0 2.76-.973 2.76-2.92v-1.02c-.226.414-.586.754-1.08 1.02-.493.267-1.073.4-1.74.4-1.306 0-2.386-.446-3.24-1.34-.84-.893-1.26-2.026-1.26-3.4 0-1.32.42-2.44 1.26-3.36.84-.92 1.92-1.38 3.24-1.38 1.427 0 2.387.474 2.88 1.42v-1.24h2.24v8.82c0 1.44-.406 2.634-1.22 3.58-.813.96-2.073 1.44-3.78 1.44-1.253 0-2.306-.34-3.16-1.02-.853-.68-1.346-1.526-1.48-2.54zm4.9-2.96c.747 0 1.347-.246 1.8-.74.467-.506.7-1.18.7-2.02 0-.826-.233-1.486-.7-1.98-.466-.506-1.066-.76-1.8-.76-.746 0-1.36.254-1.84.76-.466.494-.7 1.154-.7 1.98 0 .84.234 1.514.7 2.02.467.494 1.08.74 1.84.74zm9.898-3.2v5.62h-2.32v-9.74h2.26v1.3c.306-.533.713-.926 1.22-1.18.52-.266 1.073-.4 1.66-.4 1.146 0 2.02.36 2.62 1.08.6.72.9 1.647.9 2.78v6.16h-2.32v-5.76c0-.653-.16-1.173-.48-1.56-.32-.4-.827-.6-1.52-.6-.64 0-1.14.22-1.5.66-.347.427-.52.974-.52 1.64zm10.784-.32h4.78c-.027-.613-.247-1.126-.66-1.54-.4-.413-.98-.62-1.74-.62-.693 0-1.253.22-1.68.66-.427.427-.66.927-.7 1.5zm5.04 2.54l1.96.62c-.28.894-.807 1.634-1.58 2.22-.76.574-1.7.86-2.82.86-1.387 0-2.567-.473-3.54-1.42-.96-.946-1.44-2.213-1.44-3.8 0-1.493.467-2.72 1.4-3.68.947-.96 2.06-1.44 3.34-1.44 1.493 0 2.66.46 3.5 1.38.84.907 1.26 2.134 1.26 3.68 0 .414-.02.66-.06.74h-7.12c.027.734.293 1.34.8 1.82.52.48 1.14.72 1.86.72 1.253 0 2.067-.566 2.44-1.7zm9.997-6.4v2.36c-.267-.04-.52-.06-.76-.06-1.747 0-2.62.954-2.62 2.86v4.64h-2.32v-9.74h2.26v1.56a2.57 2.57 0 011.1-1.22 3.263 3.263 0 011.72-.46c.213 0 .42.02.62.06z" fill="#4A5C72"/><path opacity=".7" d="M135.211 385.087h-1.764v-5.67h-6.516v5.67h-1.764v-12.762h1.764v5.454h6.516v-5.454h1.764v12.762zm4.847-2.052c.528.54 1.17.81 1.926.81s1.392-.27 1.908-.81c.528-.552.792-1.314.792-2.286 0-.96-.264-1.71-.792-2.25a2.509 2.509 0 00-1.908-.828c-.756 0-1.398.276-1.926.828-.516.54-.774 1.29-.774 2.25 0 .972.258 1.734.774 2.286zm-1.26-5.562c.84-.876 1.902-1.314 3.186-1.314s2.34.438 3.168 1.314c.84.864 1.26 1.956 1.26 3.276 0 1.332-.414 2.436-1.242 3.312-.828.864-1.89 1.296-3.186 1.296s-2.358-.432-3.186-1.296c-.828-.876-1.242-1.98-1.242-3.312 0-1.32.414-2.412 1.242-3.276zm14.481-1.044h1.746l2.25 6.516 1.908-6.516h1.782l-2.808 8.658h-1.746l-2.304-6.588-2.25 6.588h-1.782l-2.844-8.658h1.854l1.944 6.516 2.25-6.516zm17.532 1.296c-.732 0-1.356.264-1.872.792-.504.528-.756 1.272-.756 2.232 0 .948.252 1.692.756 2.232.516.54 1.146.81 1.89.81.72 0 1.266-.18 1.638-.54.384-.36.642-.774.774-1.242l1.494.648c-.24.72-.696 1.35-1.368 1.89-.66.54-1.506.81-2.538.81-1.26 0-2.304-.438-3.132-1.314-.828-.876-1.242-1.974-1.242-3.294 0-1.344.414-2.442 1.242-3.294.828-.864 1.866-1.296 3.114-1.296 1.056 0 1.908.27 2.556.81.66.54 1.092 1.188 1.296 1.944l-1.53.648a2.734 2.734 0 00-.756-1.296c-.372-.36-.894-.54-1.566-.54zm5.281 5.04c0-.744.24-1.338.72-1.782.48-.456 1.116-.738 1.908-.846l2.34-.342c.444-.06.666-.276.666-.648 0-.456-.156-.828-.468-1.116-.312-.288-.78-.432-1.404-.432-.576 0-1.032.162-1.368.486-.336.312-.534.732-.594 1.26l-1.62-.378c.084-.828.462-1.5 1.134-2.016.672-.528 1.476-.792 2.412-.792 1.224 0 2.13.3 2.718.9.588.588.882 1.344.882 2.268v4.338c0 .516.036.99.108 1.422h-1.656c-.06-.36-.09-.75-.09-1.17-.24.384-.594.72-1.062 1.008-.456.288-1.032.432-1.728.432-.852 0-1.548-.252-2.088-.756-.54-.516-.81-1.128-.81-1.836zm3.132 1.17c.756 0 1.362-.204 1.818-.612.456-.408.684-1.056.684-1.944v-.396l-2.646.396c-.384.06-.69.198-.918.414-.228.216-.342.51-.342.882 0 .336.126.63.378.882.264.252.606.378 1.026.378zm8.522-3.852v5.004h-1.692v-8.658h1.656v1.242c.576-.996 1.464-1.494 2.664-1.494.996 0 1.758.318 2.286.954.54.636.81 1.458.81 2.466v5.49h-1.692v-5.202c0-1.452-.672-2.178-2.016-2.178-.636 0-1.134.228-1.494.684-.348.444-.522 1.008-.522 1.692zm14.895 5.004h-1.8v-12.762h1.8v12.762zm6.755-2.25l1.53-.54c.06.468.264.858.612 1.17.348.3.816.45 1.404.45.456 0 .816-.108 1.08-.324.264-.228.396-.504.396-.828 0-.576-.372-.948-1.116-1.116l-1.476-.324c-.672-.144-1.2-.432-1.584-.864-.384-.432-.576-.954-.576-1.566 0-.744.3-1.386.9-1.926.612-.54 1.338-.81 2.178-.81a4.05 4.05 0 011.476.252c.432.156.768.366 1.008.63s.42.51.54.738c.12.228.21.462.27.702l-1.494.558a1.653 1.653 0 00-.126-.414c-.06-.144-.156-.3-.288-.468-.12-.168-.3-.3-.54-.396a2.046 2.046 0 00-.846-.162c-.42 0-.768.114-1.044.342-.264.228-.396.498-.396.81 0 .552.33.9.99 1.044l1.404.306c.768.168 1.356.48 1.764.936.42.444.63.99.63 1.638 0 .684-.282 1.302-.846 1.854-.552.552-1.326.828-2.322.828-1.068 0-1.902-.264-2.502-.792-.6-.54-.942-1.116-1.026-1.728zm9.959-2.97h4.734c-.024-.648-.24-1.176-.648-1.584-.408-.42-.984-.63-1.728-.63-.672 0-1.224.222-1.656.666a2.32 2.32 0 00-.702 1.548zm4.986 2.25l1.458.504a3.881 3.881 0 01-1.404 1.98c-.684.504-1.512.756-2.484.756-1.212 0-2.244-.414-3.096-1.242-.84-.84-1.26-1.968-1.26-3.384 0-1.32.408-2.412 1.224-3.276.816-.864 1.788-1.296 2.916-1.296 1.308 0 2.328.414 3.06 1.242.732.816 1.098 1.914 1.098 3.294 0 .216-.012.396-.036.54h-6.516c.012.768.264 1.398.756 1.89.504.492 1.122.738 1.854.738 1.236 0 2.046-.582 2.43-1.746zm4.77-2.25h4.734c-.024-.648-.24-1.176-.648-1.584-.408-.42-.984-.63-1.728-.63-.672 0-1.224.222-1.656.666a2.32 2.32 0 00-.702 1.548zm4.986 2.25l1.458.504a3.881 3.881 0 01-1.404 1.98c-.684.504-1.512.756-2.484.756-1.212 0-2.244-.414-3.096-1.242-.84-.84-1.26-1.968-1.26-3.384 0-1.32.408-2.412 1.224-3.276.816-.864 1.788-1.296 2.916-1.296 1.308 0 2.328.414 3.06 1.242.732.816 1.098 1.914 1.098 3.294 0 .216-.012.396-.036.54h-6.516c.012.768.264 1.398.756 1.89.504.492 1.122.738 1.854.738 1.236 0 2.046-.582 2.43-1.746zm10.44-8.424v2.736h1.872v1.53h-1.872v4.5c0 .408.09.708.27.9.192.192.504.288.936.288.252 0 .474-.024.666-.072v1.44c-.288.108-.672.162-1.152.162-.744 0-1.332-.216-1.764-.648-.432-.432-.648-1.038-.648-1.818v-4.752h-1.656v-1.53h.468c.444 0 .774-.12.99-.36.228-.252.342-.576.342-.972v-1.404h1.548zm5.822 6.3v5.094h-1.692v-13.032h1.692v5.382c.576-.84 1.452-1.26 2.628-1.26.996 0 1.758.318 2.286.954.54.636.81 1.458.81 2.466v5.49h-1.692v-5.202c0-1.452-.672-2.178-2.016-2.178-.624 0-1.11.216-1.458.648-.348.42-.534.966-.558 1.638zm9.513-.126h4.734c-.024-.648-.24-1.176-.648-1.584-.408-.42-.984-.63-1.728-.63-.672 0-1.224.222-1.656.666a2.32 2.32 0 00-.702 1.548zm4.986 2.25l1.458.504a3.881 3.881 0 01-1.404 1.98c-.684.504-1.512.756-2.484.756-1.212 0-2.244-.414-3.096-1.242-.84-.84-1.26-1.968-1.26-3.384 0-1.32.408-2.412 1.224-3.276.816-.864 1.788-1.296 2.916-1.296 1.308 0 2.328.414 3.06 1.242.732.816 1.098 1.914 1.098 3.294 0 .216-.012.396-.036.54h-6.516c.012.768.264 1.398.756 1.89.504.492 1.122.738 1.854.738 1.236 0 2.046-.582 2.43-1.746zm10.44-8.424v2.736h1.872v1.53h-1.872v4.5c0 .408.09.708.27.9.192.192.504.288.936.288.252 0 .474-.024.666-.072v1.44c-.288.108-.672.162-1.152.162-.744 0-1.332-.216-1.764-.648-.432-.432-.648-1.038-.648-1.818v-4.752h-1.656v-1.53h.468c.444 0 .774-.12.99-.36.228-.252.342-.576.342-.972v-1.404h1.548zm8.761 2.646v1.8a5.216 5.216 0 00-.738-.054c-1.584 0-2.376.888-2.376 2.664v4.338h-1.692v-8.658h1.656v1.512c.528-1.104 1.392-1.656 2.592-1.656.192 0 .378.018.558.054zm1.263 6.426c0-.744.24-1.338.72-1.782.48-.456 1.116-.738 1.908-.846l2.34-.342c.444-.06.666-.276.666-.648 0-.456-.156-.828-.468-1.116-.312-.288-.78-.432-1.404-.432-.576 0-1.032.162-1.368.486-.336.312-.534.732-.594 1.26l-1.62-.378c.084-.828.462-1.5 1.134-2.016.672-.528 1.476-.792 2.412-.792 1.224 0 2.13.3 2.718.9.588.588.882 1.344.882 2.268v4.338c0 .516.036.99.108 1.422H291.1c-.06-.36-.09-.75-.09-1.17-.24.384-.594.72-1.062 1.008-.456.288-1.032.432-1.728.432-.852 0-1.548-.252-2.088-.756-.54-.516-.81-1.128-.81-1.836zm3.132 1.17c.756 0 1.362-.204 1.818-.612.456-.408.684-1.056.684-1.944v-.396l-2.646.396c-.384.06-.69.198-.918.414-.228.216-.342.51-.342.882 0 .336.126.63.378.882.264.252.606.378 1.026.378zm10.466-6.21c-.732 0-1.356.264-1.872.792-.504.528-.756 1.272-.756 2.232 0 .948.252 1.692.756 2.232.516.54 1.146.81 1.89.81.72 0 1.266-.18 1.638-.54.384-.36.642-.774.774-1.242l1.494.648c-.24.72-.696 1.35-1.368 1.89-.66.54-1.506.81-2.538.81-1.26 0-2.304-.438-3.132-1.314-.828-.876-1.242-1.974-1.242-3.294 0-1.344.414-2.442 1.242-3.294.828-.864 1.866-1.296 3.114-1.296 1.056 0 1.908.27 2.556.81.66.54 1.092 1.188 1.296 1.944l-1.53.648a2.734 2.734 0 00-.756-1.296c-.372-.36-.894-.54-1.566-.54zm13.667-1.296l-3.69 3.654 3.762 5.004h-2.124l-2.826-3.816-1.206 1.206v2.61h-1.674v-13.032h1.674v8.208l3.744-3.834h2.34zm3.373 8.658h-1.674v-8.658h1.674v8.658zm-1.71-11.07a1.21 1.21 0 01-.342-.864c0-.336.114-.624.342-.864.24-.24.528-.36.864-.36.336 0 .624.12.864.36.24.228.36.516.36.864 0 .336-.12.624-.36.864a1.21 1.21 0 01-.864.342 1.21 1.21 0 01-.864-.342zm6.281 6.066v5.004h-1.692v-8.658h1.656v1.242c.576-.996 1.464-1.494 2.664-1.494.996 0 1.758.318 2.286.954.54.636.81 1.458.81 2.466v5.49h-1.692v-5.202c0-1.452-.672-2.178-2.016-2.178-.636 0-1.134.228-1.494.684-.348.444-.522 1.008-.522 1.692zm7.785 5.472l1.638-.378c.06.612.306 1.116.738 1.512.432.408.972.612 1.62.612 1.764 0 2.646-.936 2.646-2.808v-1.242c-.216.42-.558.762-1.026 1.026-.456.264-.996.396-1.62.396-1.152 0-2.106-.39-2.862-1.17-.744-.792-1.116-1.8-1.116-3.024 0-1.188.372-2.184 1.116-2.988.744-.816 1.698-1.224 2.862-1.224 1.32 0 2.208.456 2.664 1.368v-1.206h1.674v8.01c0 .576-.078 1.11-.234 1.602a4.09 4.09 0 01-.702 1.386c-.324.42-.78.75-1.368.99-.576.24-1.254.36-2.034.36-1.068 0-1.974-.306-2.718-.918-.744-.6-1.17-1.368-1.278-2.304zm4.248-2.304c.732 0 1.326-.252 1.782-.756.456-.516.684-1.188.684-2.016 0-.828-.228-1.494-.684-1.998-.456-.516-1.05-.774-1.782-.774-.744 0-1.35.252-1.818.756-.456.504-.684 1.176-.684 2.016 0 .852.222 1.53.666 2.034.456.492 1.068.738 1.836.738zm12.981-3.168v5.004h-1.692v-8.658h1.656v1.242c.576-.996 1.464-1.494 2.664-1.494.996 0 1.758.318 2.286.954.54.636.81 1.458.81 2.466v5.49h-1.692v-5.202c0-1.452-.672-2.178-2.016-2.178-.636 0-1.134.228-1.494.684-.348.444-.522 1.008-.522 1.692zm13.945 3.96a2.261 2.261 0 01-1.044.99 3.564 3.564 0 01-1.512.324c-.984 0-1.77-.324-2.358-.972-.588-.66-.882-1.494-.882-2.502v-5.454h1.692v5.202c0 .648.156 1.182.468 1.602.324.42.822.63 1.494.63s1.182-.198 1.53-.594c.348-.408.522-.948.522-1.62v-5.22h1.692v7.056c0 .564.03 1.098.09 1.602h-1.62a6.067 6.067 0 01-.072-1.044zm6.164 1.044h-1.674v-8.658h1.62v1.152a2.607 2.607 0 011.116-1.044c.48-.24.984-.36 1.512-.36.564 0 1.08.138 1.548.414.468.276.816.684 1.044 1.224.6-1.092 1.566-1.638 2.898-1.638.828 0 1.53.282 2.106.846.588.564.882 1.38.882 2.448v5.616h-1.674v-5.436c0-.6-.156-1.08-.468-1.44-.3-.36-.756-.54-1.368-.54-.588 0-1.068.21-1.44.63-.372.408-.558.924-.558 1.548v5.238h-1.692v-5.436c0-.6-.156-1.08-.468-1.44-.3-.36-.756-.54-1.368-.54-.6 0-1.086.204-1.458.612-.372.408-.558.936-.558 1.584v5.22zm15.433 0h-1.674v-13.032h1.674v5.598c.228-.42.588-.768 1.08-1.044.504-.288 1.098-.432 1.782-.432 1.26 0 2.238.426 2.934 1.278.696.852 1.044 1.938 1.044 3.258 0 1.332-.36 2.436-1.08 3.312-.72.864-1.704 1.296-2.952 1.296-1.296 0-2.232-.498-2.808-1.494v1.26zm4.41-2.124c.468-.564.702-1.314.702-2.25 0-.936-.234-1.674-.702-2.214-.456-.552-1.074-.828-1.854-.828-.756 0-1.374.276-1.854.828-.48.552-.72 1.29-.72 2.214 0 .924.24 1.674.72 2.25.48.564 1.098.846 1.854.846.768 0 1.386-.282 1.854-.846zm5.684-3.096h4.734c-.024-.648-.24-1.176-.648-1.584-.408-.42-.984-.63-1.728-.63-.672 0-1.224.222-1.656.666a2.32 2.32 0 00-.702 1.548zm4.986 2.25l1.458.504a3.881 3.881 0 01-1.404 1.98c-.684.504-1.512.756-2.484.756-1.212 0-2.244-.414-3.096-1.242-.84-.84-1.26-1.968-1.26-3.384 0-1.32.408-2.412 1.224-3.276.816-.864 1.788-1.296 2.916-1.296 1.308 0 2.328.414 3.06 1.242.732.816 1.098 1.914 1.098 3.294 0 .216-.012.396-.036.54h-6.516c.012.768.264 1.398.756 1.89.504.492 1.122.738 1.854.738 1.236 0 2.046-.582 2.43-1.746zm8.478-5.778v1.8a5.216 5.216 0 00-.738-.054c-1.584 0-2.376.888-2.376 2.664v4.338h-1.692v-8.658h1.656v1.512c.528-1.104 1.392-1.656 2.592-1.656.192 0 .378.018.558.054zm5.827 5.094h-1.584a8.196 8.196 0 01-.018-.63c0-1.2.498-2.136 1.494-2.808l.792-.54c.636-.432.954-1.02.954-1.764 0-.576-.186-1.062-.558-1.458-.372-.396-.9-.594-1.584-.594-.732 0-1.29.228-1.674.684a2.435 2.435 0 00-.576 1.62c0 .36.042.654.126.882l-1.746-.216a3.15 3.15 0 01-.108-.864c0-.588.132-1.152.396-1.692s.708-1.008 1.332-1.404c.624-.396 1.374-.594 2.25-.594 1.2 0 2.154.36 2.862 1.08.72.72 1.08 1.566 1.08 2.538 0 1.26-.612 2.304-1.836 3.132l-.828.558c-.528.36-.792.936-.792 1.728 0 .108.006.222.018.342zm-1.638 3.402a1.128 1.128 0 01-.342-.828c0-.324.114-.6.342-.828a1.1 1.1 0 01.828-.36c.324 0 .6.12.828.36.24.228.36.504.36.828 0 .324-.12.6-.36.828a1.128 1.128 0 01-.828.342c-.324 0-.6-.114-.828-.342z" fill="#6E8AA7"/></g><g clip-path="url(#clip10_9_5328)"><circle cx="70.719" cy="362.805" r="26.413" fill="#C0D4E3"/><path fill-rule="evenodd" clip-rule="evenodd" d="M66.565 351.327a12.729 12.729 0 00-7.178 6.963 12.74 12.74 0 00-.993 5.006 12.558 12.558 0 004.146 9.481 1.06 1.06 0 01.357.739v2.351a1.07 1.07 0 001.492.937l2.641-1.149a.992.992 0 01.7 0 14.52 14.52 0 003.83.502 12.838 12.838 0 0012.854-12.815A12.837 12.837 0 0071.6 350.487a12.742 12.742 0 00-5.034.84zm9.088 15.164a1.97 1.97 0 01-1.317.892 1.986 1.986 0 01-1.549-.364l-3.09-2.311a.798.798 0 00-.95 0l-4.173 3.17a.621.621 0 01-.898-.832l3.869-6.154a1.994 1.994 0 011.317-.892 1.975 1.975 0 011.548.364l3.09 2.311a.79.79 0 00.951 0l4.173-3.169a.622.622 0 01.8.036.62.62 0 01.098.796l-3.87 6.153z" fill="#fff"/></g></g><g clip-path="url(#clip11_9_5328)"><rect x="26.699" y="422.674" width="507.131" height="88.043" rx="8.804" fill="#fff"/><g clip-path="url(#clip12_9_5328)"><circle cx="70.719" cy="466.696" r="26.413" fill="#C0D4E3"/><path d="M60.795 480.523a2.82 2.82 0 01-1.04-.651l-.13-.13c-.13-.13-.26-.39-.26-.52 0-.26.13-.391.39-.521a5.67 5.67 0 002.472-2.472c.13-.13.26-.26.26-.39-3.643-2.212-5.855-5.725-5.855-9.498 0-6.506 6.766-11.971 14.963-11.971s14.963 5.465 14.963 11.971c0 6.505-6.766 11.97-14.963 11.97-.78 0-1.692 0-2.472-.13-1.952 1.691-4.294 2.602-6.506 2.602-.65 0-1.171-.13-1.822-.26z" fill="#fff"/></g><g clip-path="url(#clip13_9_5328)"><path d="M137.147 460.044h-2.5l-7-10.74v10.74h-2.4v-14.18h3.06l6.44 10.06v-10.06h2.4v14.18zm4.774-5.94h4.78c-.026-.613-.246-1.127-.66-1.54-.4-.413-.98-.62-1.74-.62-.693 0-1.253.22-1.68.66-.426.427-.66.927-.7 1.5zm5.04 2.54l1.96.62c-.28.893-.806 1.633-1.58 2.22-.76.573-1.7.86-2.82.86-1.386 0-2.566-.473-3.54-1.42-.96-.947-1.44-2.213-1.44-3.8 0-1.493.467-2.72 1.4-3.68.947-.96 2.06-1.44 3.34-1.44 1.494 0 2.66.46 3.5 1.38.84.907 1.26 2.133 1.26 3.68 0 .413-.02.66-.06.74h-7.12c.027.733.294 1.34.8 1.82.52.48 1.14.72 1.86.72 1.254 0 2.067-.567 2.44-1.7zm9.681-6.34h2.4l2.3 6.74 1.94-6.74h2.36l-3.12 9.74h-2.32l-2.42-7-2.36 7h-2.38l-3.16-9.74h2.48l1.98 6.74 2.3-6.74zm31.53 9.74h-2.38v-10.44l-4.42 10.44h-2.08l-4.38-10.4v10.4h-2.34v-14.18h3.2l4.6 10.82 4.54-10.82h3.26v14.18zm4.784-5.94h4.78c-.026-.613-.246-1.127-.66-1.54-.4-.413-.98-.62-1.74-.62-.693 0-1.253.22-1.68.66-.426.427-.66.927-.7 1.5zm5.04 2.54l1.96.62c-.28.893-.806 1.633-1.58 2.22-.76.573-1.7.86-2.82.86-1.386 0-2.566-.473-3.54-1.42-.96-.947-1.44-2.213-1.44-3.8 0-1.493.467-2.72 1.4-3.68.947-.96 2.06-1.44 3.34-1.44 1.494 0 2.66.46 3.5 1.38.84.907 1.26 2.133 1.26 3.68 0 .413-.02.66-.06.74h-7.12c.027.733.294 1.34.8 1.82.52.48 1.14.72 1.86.72 1.254 0 2.067-.567 2.44-1.7zm3.437.76l2.02-.56c.04.467.234.86.58 1.18.347.32.814.48 1.4.48.454 0 .807-.107 1.06-.32.267-.213.4-.48.4-.8 0-.56-.38-.92-1.14-1.08l-1.44-.32c-.84-.187-1.486-.533-1.94-1.04a2.613 2.613 0 01-.68-1.8c0-.853.347-1.587 1.04-2.2.694-.627 1.54-.94 2.54-.94.64 0 1.207.093 1.7.28.494.187.874.433 1.14.74.28.293.494.58.64.86.147.28.24.56.28.84l-1.96.56a1.735 1.735 0 00-.52-1c-.28-.307-.706-.46-1.28-.46-.4 0-.733.113-1 .34-.266.213-.4.473-.4.78 0 .547.327.887.98 1.02l1.48.3c.907.2 1.6.56 2.08 1.08s.72 1.147.72 1.88c0 .813-.326 1.54-.98 2.18-.64.627-1.54.94-2.7.94-.666 0-1.266-.1-1.8-.3-.52-.2-.933-.453-1.24-.76a5.224 5.224 0 01-.7-.94 2.61 2.61 0 01-.28-.94zm9.141 0l2.02-.56c.04.467.233.86.58 1.18.347.32.813.48 1.4.48.453 0 .807-.107 1.06-.32.267-.213.4-.48.4-.8 0-.56-.38-.92-1.14-1.08l-1.44-.32c-.84-.187-1.487-.533-1.94-1.04a2.613 2.613 0 01-.68-1.8c0-.853.347-1.587 1.04-2.2.693-.627 1.54-.94 2.54-.94.64 0 1.207.093 1.7.28.493.187.873.433 1.14.74.28.293.493.58.64.86.147.28.24.56.28.84l-1.96.56a1.74 1.74 0 00-.52-1c-.28-.307-.707-.46-1.28-.46-.4 0-.733.113-1 .34-.267.213-.4.473-.4.78 0 .547.327.887.98 1.02l1.48.3c.907.2 1.6.56 2.08 1.08s.72 1.147.72 1.88c0 .813-.327 1.54-.98 2.18-.64.627-1.54.94-2.7.94-.667 0-1.267-.1-1.8-.3-.52-.2-.933-.453-1.24-.76a5.177 5.177 0 01-.7-.94 2.61 2.61 0 01-.28-.94zm9.264 0c0-.827.267-1.487.8-1.98.547-.507 1.26-.827 2.14-.96l2.5-.38c.48-.067.72-.3.72-.7 0-.44-.153-.793-.46-1.06-.307-.28-.767-.42-1.38-.42-.587 0-1.053.167-1.4.5-.347.32-.547.74-.6 1.26l-2.12-.48c.093-.88.513-1.627 1.26-2.24.747-.627 1.693-.94 2.84-.94 1.413 0 2.453.34 3.12 1.02.68.68 1.02 1.553 1.02 2.62v4.84c0 .64.04 1.16.12 1.56h-2.16c-.067-.2-.1-.613-.1-1.24-.64 1.027-1.64 1.54-3 1.54-.987 0-1.787-.287-2.4-.86-.6-.587-.9-1.28-.9-2.08zm3.74 1.12c.72 0 1.3-.193 1.74-.58.453-.4.68-1.047.68-1.94v-.44l-2.54.38c-.867.147-1.3.587-1.3 1.32 0 .347.127.647.38.9.253.24.6.36 1.04.36zm6.785 2.06l2.14-.56c.08.613.34 1.113.78 1.5.453.4 1.007.6 1.66.6 1.84 0 2.76-.973 2.76-2.92v-1.02c-.227.413-.587.753-1.08 1.02-.493.267-1.073.4-1.74.4-1.307 0-2.387-.447-3.24-1.34-.84-.893-1.26-2.027-1.26-3.4 0-1.32.42-2.44 1.26-3.36.84-.92 1.92-1.38 3.24-1.38 1.427 0 2.387.473 2.88 1.42v-1.24h2.24v8.82c0 1.44-.407 2.633-1.22 3.58-.813.96-2.073 1.44-3.78 1.44-1.253 0-2.307-.34-3.16-1.02-.853-.68-1.347-1.527-1.48-2.54zm4.9-2.96c.747 0 1.347-.247 1.8-.74.467-.507.7-1.18.7-2.02 0-.827-.233-1.487-.7-1.98-.467-.507-1.067-.76-1.8-.76-.747 0-1.36.253-1.84.76-.467.493-.7 1.153-.7 1.98 0 .84.233 1.513.7 2.02.467.493 1.08.74 1.84.74zm9.197-3.52h4.78c-.026-.613-.246-1.127-.66-1.54-.4-.413-.98-.62-1.74-.62-.693 0-1.253.22-1.68.66-.426.427-.66.927-.7 1.5zm5.04 2.54l1.96.62c-.28.893-.806 1.633-1.58 2.22-.76.573-1.7.86-2.82.86-1.386 0-2.566-.473-3.54-1.42-.96-.947-1.44-2.213-1.44-3.8 0-1.493.467-2.72 1.4-3.68.947-.96 2.06-1.44 3.34-1.44 1.494 0 2.66.46 3.5 1.38.84.907 1.26 2.133 1.26 3.68 0 .413-.02.66-.06.74h-7.12c.027.733.294 1.34.8 1.82.52.48 1.14.72 1.86.72 1.254 0 2.067-.567 2.44-1.7z" fill="#4A5C72"/><path opacity=".7" d="M135.211 488.979h-1.764v-5.67h-6.516v5.67h-1.764v-12.762h1.764v5.454h6.516v-5.454h1.764v12.762zm4.847-2.052c.528.54 1.17.81 1.926.81s1.392-.27 1.908-.81c.528-.552.792-1.314.792-2.286 0-.96-.264-1.71-.792-2.25a2.509 2.509 0 00-1.908-.828c-.756 0-1.398.276-1.926.828-.516.54-.774 1.29-.774 2.25 0 .972.258 1.734.774 2.286zm-1.26-5.562c.84-.876 1.902-1.314 3.186-1.314s2.34.438 3.168 1.314c.84.864 1.26 1.956 1.26 3.276 0 1.332-.414 2.436-1.242 3.312-.828.864-1.89 1.296-3.186 1.296s-2.358-.432-3.186-1.296c-.828-.876-1.242-1.98-1.242-3.312 0-1.32.414-2.412 1.242-3.276zm14.481-1.044h1.746l2.25 6.516 1.908-6.516h1.782l-2.808 8.658h-1.746l-2.304-6.588-2.25 6.588h-1.782l-2.844-8.658h1.854l1.944 6.516 2.25-6.516zm17.532 1.296c-.732 0-1.356.264-1.872.792-.504.528-.756 1.272-.756 2.232 0 .948.252 1.692.756 2.232.516.54 1.146.81 1.89.81.72 0 1.266-.18 1.638-.54.384-.36.642-.774.774-1.242l1.494.648c-.24.72-.696 1.35-1.368 1.89-.66.54-1.506.81-2.538.81-1.26 0-2.304-.438-3.132-1.314-.828-.876-1.242-1.974-1.242-3.294 0-1.344.414-2.442 1.242-3.294.828-.864 1.866-1.296 3.114-1.296 1.056 0 1.908.27 2.556.81.66.54 1.092 1.188 1.296 1.944l-1.53.648a2.734 2.734 0 00-.756-1.296c-.372-.36-.894-.54-1.566-.54zm5.281 5.04c0-.744.24-1.338.72-1.782.48-.456 1.116-.738 1.908-.846l2.34-.342c.444-.06.666-.276.666-.648 0-.456-.156-.828-.468-1.116-.312-.288-.78-.432-1.404-.432-.576 0-1.032.162-1.368.486-.336.312-.534.732-.594 1.26l-1.62-.378c.084-.828.462-1.5 1.134-2.016.672-.528 1.476-.792 2.412-.792 1.224 0 2.13.3 2.718.9.588.588.882 1.344.882 2.268v4.338c0 .516.036.99.108 1.422h-1.656c-.06-.36-.09-.75-.09-1.17-.24.384-.594.72-1.062 1.008-.456.288-1.032.432-1.728.432-.852 0-1.548-.252-2.088-.756-.54-.516-.81-1.128-.81-1.836zm3.132 1.17c.756 0 1.362-.204 1.818-.612.456-.408.684-1.056.684-1.944v-.396l-2.646.396c-.384.06-.69.198-.918.414-.228.216-.342.51-.342.882 0 .336.126.63.378.882.264.252.606.378 1.026.378zm8.522-3.852v5.004h-1.692v-8.658h1.656v1.242c.576-.996 1.464-1.494 2.664-1.494.996 0 1.758.318 2.286.954.54.636.81 1.458.81 2.466v5.49h-1.692v-5.202c0-1.452-.672-2.178-2.016-2.178-.636 0-1.134.228-1.494.684-.348.444-.522 1.008-.522 1.692zm14.895 5.004h-1.8v-12.762h1.8v12.762zm12.371-8.748v1.8a5.216 5.216 0 00-.738-.054c-1.584 0-2.376.888-2.376 2.664v4.338h-1.692v-8.658h1.656v1.512c.528-1.104 1.392-1.656 2.592-1.656.192 0 .378.018.558.054zm2.814 3.528h4.734c-.024-.648-.24-1.176-.648-1.584-.408-.42-.984-.63-1.728-.63-.672 0-1.224.222-1.656.666a2.32 2.32 0 00-.702 1.548zm4.986 2.25l1.458.504a3.881 3.881 0 01-1.404 1.98c-.684.504-1.512.756-2.484.756-1.212 0-2.244-.414-3.096-1.242-.84-.84-1.26-1.968-1.26-3.384 0-1.32.408-2.412 1.224-3.276.816-.864 1.788-1.296 2.916-1.296 1.308 0 2.328.414 3.06 1.242.732.816 1.098 1.914 1.098 3.294 0 .216-.012.396-.036.54h-6.516c.012.768.264 1.398.756 1.89.504.492 1.122.738 1.854.738 1.236 0 2.046-.582 2.43-1.746zm5.363-2.034v5.004h-1.692v-8.658h1.656v1.242c.576-.996 1.464-1.494 2.664-1.494.996 0 1.758.318 2.286.954.54.636.81 1.458.81 2.466v5.49h-1.692v-5.202c0-1.452-.672-2.178-2.016-2.178-.636 0-1.134.228-1.494.684-.348.444-.522 1.008-.522 1.692zm9.514-.216h4.734c-.024-.648-.24-1.176-.648-1.584-.408-.42-.984-.63-1.728-.63-.672 0-1.224.222-1.656.666a2.32 2.32 0 00-.702 1.548zm4.986 2.25l1.458.504a3.881 3.881 0 01-1.404 1.98c-.684.504-1.512.756-2.484.756-1.212 0-2.244-.414-3.096-1.242-.84-.84-1.26-1.968-1.26-3.384 0-1.32.408-2.412 1.224-3.276.816-.864 1.788-1.296 2.916-1.296 1.308 0 2.328.414 3.06 1.242.732.816 1.098 1.914 1.098 3.294 0 .216-.012.396-.036.54h-6.516c.012.768.264 1.398.756 1.89.504.492 1.122.738 1.854.738 1.236 0 2.046-.582 2.43-1.746zm8.462-5.688h1.746l2.25 6.516 1.908-6.516h1.782l-2.808 8.658h-1.746l-2.304-6.588-2.25 6.588h-1.782l-2.844-8.658h1.854l1.944 6.516 2.25-6.516zm15.569 8.658h-1.674v-8.658h1.62v1.152a2.607 2.607 0 011.116-1.044c.48-.24.984-.36 1.512-.36.564 0 1.08.138 1.548.414.468.276.816.684 1.044 1.224.6-1.092 1.566-1.638 2.898-1.638.828 0 1.53.282 2.106.846.588.564.882 1.38.882 2.448v5.616h-1.674v-5.436c0-.6-.156-1.08-.468-1.44-.3-.36-.756-.54-1.368-.54-.588 0-1.068.21-1.44.63-.372.408-.558.924-.558 1.548v5.238h-1.692v-5.436c0-.6-.156-1.08-.468-1.44-.3-.36-.756-.54-1.368-.54-.6 0-1.086.204-1.458.612-.372.408-.558.936-.558 1.584v5.22zm15.92 3.618h-1.854l2.16-4.572-3.726-7.704h1.944l2.7 5.976 2.592-5.976h1.818l-5.634 12.276zm10.952-5.868l1.53-.54c.06.468.264.858.612 1.17.348.3.816.45 1.404.45.456 0 .816-.108 1.08-.324.264-.228.396-.504.396-.828 0-.576-.372-.948-1.116-1.116l-1.476-.324c-.672-.144-1.2-.432-1.584-.864-.384-.432-.576-.954-.576-1.566 0-.744.3-1.386.9-1.926.612-.54 1.338-.81 2.178-.81a4.05 4.05 0 011.476.252c.432.156.768.366 1.008.63s.42.51.54.738c.12.228.21.462.27.702l-1.494.558a1.653 1.653 0 00-.126-.414c-.06-.144-.156-.3-.288-.468-.12-.168-.3-.3-.54-.396a2.046 2.046 0 00-.846-.162c-.42 0-.768.114-1.044.342-.264.228-.396.498-.396.81 0 .552.33.9.99 1.044l1.404.306c.768.168 1.356.48 1.764.936.42.444.63.99.63 1.638 0 .684-.282 1.302-.846 1.854-.552.552-1.326.828-2.322.828-1.068 0-1.902-.264-2.502-.792-.6-.54-.942-1.116-1.026-1.728zm14.567 1.206a2.261 2.261 0 01-1.044.99 3.564 3.564 0 01-1.512.324c-.984 0-1.77-.324-2.358-.972-.588-.66-.882-1.494-.882-2.502v-5.454h1.692v5.202c0 .648.156 1.182.468 1.602.324.42.822.63 1.494.63s1.182-.198 1.53-.594c.348-.408.522-.948.522-1.62v-5.22h1.692v7.056c0 .564.03 1.098.09 1.602h-1.62a6.067 6.067 0 01-.072-1.044zm6.163 1.044h-1.674v-13.032h1.674v5.598c.228-.42.588-.768 1.08-1.044.504-.288 1.098-.432 1.782-.432 1.26 0 2.238.426 2.934 1.278.696.852 1.044 1.938 1.044 3.258 0 1.332-.36 2.436-1.08 3.312-.72.864-1.704 1.296-2.952 1.296-1.296 0-2.232-.498-2.808-1.494v1.26zm4.41-2.124c.468-.564.702-1.314.702-2.25 0-.936-.234-1.674-.702-2.214-.456-.552-1.074-.828-1.854-.828-.756 0-1.374.276-1.854.828-.48.552-.72 1.29-.72 2.214 0 .924.24 1.674.72 2.25.48.564 1.098.846 1.854.846.768 0 1.386-.282 1.854-.846zm3.776-.126l1.53-.54c.06.468.264.858.612 1.17.348.3.816.45 1.404.45.456 0 .816-.108 1.08-.324.264-.228.396-.504.396-.828 0-.576-.372-.948-1.116-1.116l-1.476-.324c-.672-.144-1.2-.432-1.584-.864-.384-.432-.576-.954-.576-1.566 0-.744.3-1.386.9-1.926.612-.54 1.338-.81 2.178-.81a4.05 4.05 0 011.476.252c.432.156.768.366 1.008.63s.42.51.54.738c.12.228.21.462.27.702l-1.494.558a1.653 1.653 0 00-.126-.414c-.06-.144-.156-.3-.288-.468-.12-.168-.3-.3-.54-.396a2.046 2.046 0 00-.846-.162c-.42 0-.768.114-1.044.342-.264.228-.396.498-.396.81 0 .552.33.9.99 1.044l1.404.306c.768.168 1.356.48 1.764.936.42.444.63.99.63 1.638 0 .684-.282 1.302-.846 1.854-.552.552-1.326.828-2.322.828-1.068 0-1.902-.264-2.502-.792-.6-.54-.942-1.116-1.026-1.728zm12.497-5.112c-.732 0-1.356.264-1.872.792-.504.528-.756 1.272-.756 2.232 0 .948.252 1.692.756 2.232.516.54 1.146.81 1.89.81.72 0 1.266-.18 1.638-.54.384-.36.642-.774.774-1.242l1.494.648c-.24.72-.696 1.35-1.368 1.89-.66.54-1.506.81-2.538.81-1.26 0-2.304-.438-3.132-1.314-.828-.876-1.242-1.974-1.242-3.294 0-1.344.414-2.442 1.242-3.294.828-.864 1.866-1.296 3.114-1.296 1.056 0 1.908.27 2.556.81.66.54 1.092 1.188 1.296 1.944l-1.53.648a2.734 2.734 0 00-.756-1.296c-.372-.36-.894-.54-1.566-.54zm10.714-1.386v1.8a5.216 5.216 0 00-.738-.054c-1.584 0-2.376.888-2.376 2.664v4.338h-1.692v-8.658h1.656v1.512c.528-1.104 1.392-1.656 2.592-1.656.192 0 .378.018.558.054zm3.478 8.748h-1.674v-8.658h1.674v8.658zm-1.71-11.07a1.21 1.21 0 01-.342-.864c0-.336.114-.624.342-.864.24-.24.528-.36.864-.36.336 0 .624.12.864.36.24.228.36.516.36.864 0 .336-.12.624-.36.864a1.21 1.21 0 01-.864.342 1.21 1.21 0 01-.864-.342zm6.263 14.49h-1.674v-12.078h1.638v1.35c.252-.456.63-.828 1.134-1.116.504-.288 1.092-.432 1.764-.432 1.248 0 2.22.426 2.916 1.278.708.852 1.062 1.932 1.062 3.24 0 1.32-.366 2.412-1.098 3.276-.72.864-1.698 1.296-2.934 1.296-.636 0-1.2-.132-1.692-.396s-.864-.6-1.116-1.008v4.59zm5.112-7.758c0-.876-.234-1.596-.702-2.16-.456-.576-1.074-.864-1.854-.864-.768 0-1.392.288-1.872.864-.468.564-.702 1.284-.702 2.16 0 .9.234 1.638.702 2.214.48.564 1.104.846 1.872.846s1.386-.282 1.854-.846c.468-.576.702-1.314.702-2.214zm6.064-7.056v2.736h1.872v1.53h-1.872v4.5c0 .408.09.708.27.9.192.192.504.288.936.288.252 0 .474-.024.666-.072v1.44c-.288.108-.672.162-1.152.162-.744 0-1.332-.216-1.764-.648-.432-.432-.648-1.038-.648-1.818v-4.752h-1.656v-1.53h.468c.444 0 .774-.12.99-.36.228-.252.342-.576.342-.972v-1.404h1.548zm5.804 11.394h-1.674v-8.658h1.674v8.658zm-1.71-11.07a1.21 1.21 0 01-.342-.864c0-.336.114-.624.342-.864.24-.24.528-.36.864-.36.336 0 .624.12.864.36.24.228.36.516.36.864 0 .336-.12.624-.36.864a1.21 1.21 0 01-.864.342 1.21 1.21 0 01-.864-.342zm6.371 9.018c.528.54 1.17.81 1.926.81s1.392-.27 1.908-.81c.528-.552.792-1.314.792-2.286 0-.96-.264-1.71-.792-2.25a2.509 2.509 0 00-1.908-.828c-.756 0-1.398.276-1.926.828-.516.54-.774 1.29-.774 2.25 0 .972.258 1.734.774 2.286zm-1.26-5.562c.84-.876 1.902-1.314 3.186-1.314s2.34.438 3.168 1.314c.84.864 1.26 1.956 1.26 3.276 0 1.332-.414 2.436-1.242 3.312-.828.864-1.89 1.296-3.186 1.296s-2.358-.432-3.186-1.296c-.828-.876-1.242-1.98-1.242-3.312 0-1.32.414-2.412 1.242-3.276zm11.471 2.61v5.004h-1.692v-8.658h1.656v1.242c.576-.996 1.464-1.494 2.664-1.494.996 0 1.758.318 2.286.954.54.636.81 1.458.81 2.466v5.49h-1.692v-5.202c0-1.452-.672-2.178-2.016-2.178-.636 0-1.134.228-1.494.684-.348.444-.522 1.008-.522 1.692zm11.823 1.35h-1.584a8.196 8.196 0 01-.018-.63c0-1.2.498-2.136 1.494-2.808l.792-.54c.636-.432.954-1.02.954-1.764 0-.576-.186-1.062-.558-1.458-.372-.396-.9-.594-1.584-.594-.732 0-1.29.228-1.674.684a2.435 2.435 0 00-.576 1.62c0 .36.042.654.126.882l-1.746-.216a3.15 3.15 0 01-.108-.864c0-.588.132-1.152.396-1.692s.708-1.008 1.332-1.404c.624-.396 1.374-.594 2.25-.594 1.2 0 2.154.36 2.862 1.08.72.72 1.08 1.566 1.08 2.538 0 1.26-.612 2.304-1.836 3.132l-.828.558c-.528.36-.792.936-.792 1.728 0 .108.006.222.018.342zm-1.638 3.402a1.128 1.128 0 01-.342-.828c0-.324.114-.6.342-.828a1.1 1.1 0 01.828-.36c.324 0 .6.12.828.36.24.228.36.504.36.828 0 .324-.12.6-.36.828a1.128 1.128 0 01-.828.342c-.324 0-.6-.114-.828-.342z" fill="#6E8AA7"/></g></g></g><g clip-path="url(#clip14_9_5328)"><g clip-path="url(#clip15_9_5328)"><circle cx="26.699" cy="26.478" r="26.413" fill="#33C5FE"/><path fill-rule="evenodd" clip-rule="evenodd" d="M17.914 38.1a4.949 4.949 0 01-3.502-1.452 4.964 4.964 0 01-1.45-3.508v-4.96l5.687-5.696c.2.338.441.652.716.934l1.513 1.515-4.614 4.9h4.952v1.654a1.655 1.655 0 001.65 1.653h6.604a1.65 1.65 0 001.65-1.653v-1.654h4.953l-4.614-4.9 1.512-1.515a5.02 5.02 0 00.719-.933l5.685 5.695v4.96a4.964 4.964 0 01-1.45 3.508 4.949 4.949 0 01-3.502 1.453h-16.51zm8.254-13.229c-.422 0-.845-.162-1.167-.484L21.7 21.08a1.659 1.659 0 01-.358-1.802 1.651 1.651 0 011.525-1.019h1.65V13.3a1.655 1.655 0 011.651-1.611 1.65 1.65 0 011.651 1.61v4.961h1.651a1.652 1.652 0 011.167 2.82l-3.301 3.308a1.645 1.645 0 01-1.168.484z" fill="#fff"/></g><path d="M71.81 35.87h-3.008V18.39h3.008v17.48zm6.804-6.928v6.927h-2.86V23.864h2.786v1.602c.378-.657.88-1.142 1.504-1.454a4.422 4.422 0 012.046-.494c1.413 0 2.49.444 3.23 1.332.739.887 1.109 2.03 1.109 3.426v7.593h-2.86v-7.1c0-.805-.197-1.446-.592-1.922-.394-.494-1.019-.74-1.873-.74-.79 0-1.406.271-1.85.814-.427.525-.64 1.2-.64 2.021zm14.082 6.927H89.91V18.021h2.81v7.322c.296-.51.78-.937 1.455-1.282.674-.345 1.446-.518 2.317-.518 1.742 0 3.098.592 4.068 1.775.986 1.167 1.479 2.663 1.479 4.487 0 1.857-.518 3.385-1.553 4.585-1.02 1.183-2.383 1.775-4.093 1.775-1.709 0-2.941-.633-3.697-1.898v1.602zm5.546-3.254c.608-.69.912-1.619.912-2.786 0-1.166-.295-2.079-.887-2.736-.592-.674-1.372-1.01-2.342-1.01-.937 0-1.71.336-2.317 1.01-.608.657-.912 1.57-.912 2.736 0 1.15.304 2.071.912 2.761.608.69 1.38 1.036 2.317 1.036.953 0 1.726-.337 2.317-1.01zm9.43.05c.658.673 1.455 1.01 2.391 1.01.937 0 1.726-.337 2.367-1.01.657-.674.986-1.611.986-2.81 0-1.184-.329-2.105-.986-2.762-.641-.674-1.43-1.01-2.367-1.01-.936 0-1.733.336-2.391 1.01-.641.657-.961 1.578-.961 2.761s.32 2.12.961 2.81zm2.391-9.171c1.808 0 3.296.6 4.463 1.8 1.183 1.2 1.774 2.72 1.774 4.56 0 1.84-.591 3.37-1.774 4.585-1.167 1.2-2.655 1.8-4.463 1.8-1.791 0-3.278-.6-4.462-1.8-1.166-1.216-1.75-2.744-1.75-4.585 0-1.84.584-3.36 1.75-4.56 1.184-1.2 2.671-1.8 4.462-1.8zm7.062 12.375l4.364-6.064-4.29-5.941h3.402c.082.131.526.788 1.331 1.972a105.072 105.072 0 011.307 1.873l2.613-3.845h3.254l-4.215 5.892 4.363 6.113h-3.353l-2.785-4.018c-.05.066-.296.427-.74 1.085-.427.64-.846 1.265-1.257 1.873a24.91 24.91 0 00-.715 1.06h-3.279z" fill="#4A5C72"/></g><g clip-path="url(#clip16_9_5328)" fill="#DDEAF3"><circle cx="552.099" cy="20.399" r="8"/><circle cx="523.307" cy="20.399" r="8"/><circle cx="493" cy="20.399" r="8"/></g><defs><clipPath id="clip0_9_5328"><path fill="#fff" transform="translate(.286 70.5)" d="M0 0h559.957v466.631H0z"/></clipPath><clipPath id="clip1_9_5328"><path fill="#fff" transform="translate(26.7 96.912)" d="M0 0h507.131v88.043H0z"/></clipPath><clipPath id="clip2_9_5328"><path fill="#fff" transform="translate(44.306 114.52)" d="M0 0h52.826v52.826H0z"/></clipPath><clipPath id="clip3_9_5328"><path fill="#fff" transform="translate(123.547 116.282)" d="M0 0h234.196v51.065H0z"/></clipPath><clipPath id="clip4_9_5328"><path fill="#fff" transform="translate(26.7 207.847)" d="M0 0h507.131v88.043H0z"/></clipPath><clipPath id="clip5_9_5328"><path fill="#fff" transform="translate(44.306 225.456)" d="M0 0h52.826v52.826H0z"/></clipPath><clipPath id="clip6_9_5328"><path fill="#fff" transform="translate(56.633 241.304)" d="M0 0h29.584v21.13H0z"/></clipPath><clipPath id="clip7_9_5328"><path fill="#fff" transform="translate(123.547 227.217)" d="M0 0h316.957v51.065H0z"/></clipPath><clipPath id="clip8_9_5328"><path fill="#fff" transform="translate(26.7 318.782)" d="M0 0h507.131v88.043H0z"/></clipPath><clipPath id="clip9_9_5328"><path fill="#fff" transform="translate(123.547 338.152)" d="M0 0h302.87v51.065H0z"/></clipPath><clipPath id="clip10_9_5328"><path fill="#fff" transform="translate(44.306 336.392)" d="M0 0h52.826v52.826H0z"/></clipPath><clipPath id="clip11_9_5328"><path fill="#fff" transform="translate(26.7 422.674)" d="M0 0h507.131v88.043H0z"/></clipPath><clipPath id="clip12_9_5328"><path fill="#fff" transform="translate(44.306 440.283)" d="M0 0h52.826v52.826H0z"/></clipPath><clipPath id="clip13_9_5328"><path fill="#fff" transform="translate(123.547 442.044)" d="M0 0h288.783v51.065H0z"/></clipPath><clipPath id="clip14_9_5328"><path fill="#fff" transform="translate(.286 .065)" d="M0 0h133.335v52.826H0z"/></clipPath><clipPath id="clip15_9_5328"><path fill="#fff" transform="translate(.286 .065)" d="M0 0h52.826v52.826H0z"/></clipPath><clipPath id="clip16_9_5328"><path fill="#fff" transform="translate(485 12)" d="M0 0h76v17H0z"/></clipPath></defs></svg>