<svg width="20" height="20" fill="none" xmlns="http://www.w3.org/2000/svg"><path d="M10 0a10 10 0 100 20 10 10 0 000-20zm0 2a7.94 7.94 0 015.51 2.22 24.93 24.93 0 01-4.83 2.18 29.07 29.07 0 00-2.87-4.09A7.94 7.94 0 0110 2zM5.89 3.15A27.16 27.16 0 018.7 7a25.11 25.11 0 01-6 .74h-.36a8 8 0 013.55-4.59zM4 15.31A7.9 7.9 0 012 10v-.29h.68a26.67 26.67 0 007-1c.32.61.62 1.24.91 1.89a14.3 14.3 0 00-4.29 2.41l-.3.24a20.995 20.995 0 00-2 2.06zM10 18a7.92 7.92 0 01-4.47-1.37 17.92 17.92 0 011.56-1.58l.32-.27a12.63 12.63 0 014-2.27 32.01 32.01 0 011.4 5A8.08 8.08 0 0110 18zm4.63-1.49a34.88 34.88 0 00-1.28-4.46h.34c.04-.01.08-.01.12 0h.69a9.43 9.43 0 013.09.53 7.94 7.94 0 01-2.96 3.93zM14.5 10h-.62a1.56 1.56 0 00-.39 0c-.272.017-.542.05-.81.1h-.1c-.29-.67-.59-1.32-.92-2a26.57 26.57 0 005.13-2.4A8 8 0 0118 10v.51a11.48 11.48 0 00-3.5-.51z" fill="#fff"/></svg>