<svg width="200" height="200" fill="none" xmlns="http://www.w3.org/2000/svg"><path d="M72.775 96.082c1.602 0 2.901-1.33 2.901-2.97 0-1.64-1.299-2.97-2.901-2.97-1.603 0-2.901 1.33-2.901 2.97 0 1.64 1.299 2.97 2.9 2.97zm95.747 10.148c-.442-.318-.782-.371-1.065.246-4.873 10.801-13.084 5.411-12.268 5.886 1.821-.853 6.611-4.785 5.887-10.214-.439-3.318-3.222-4.79-6.175-4.263-5.156.92-7.052 6.611-6.087 11.65.169.865.471 1.579.773 2.278-5.826 4.848-8.14-4.341-8.402-5.439-.011-.059 4.498-3.905 5.752-13.07 1.314-9.606-1.68-11.355-4.741-11.3-5.666.1-7.197 12.215-5.14 22.312-.172.046-.974.501-2.262.552-.927-2.985-4.888-5.602-5.925-4.594-2.594 2.523.63 7.454 2.898 7.84-1.363 8.589-9.884 6.462-8.298-4.298 2.775-5.274 4.886-13.115 4.509-17.85-.133-1.675-1.344-3.92-4.082-3.81-5.267.214-5.84 12.332-5.222 20.933-.031-.212-.324 1.045-2.482 1.67-.511-2.901-5.073-5.811-6.147-4.412-2.011 2.619 1.473 7.29 3.124 7.615-1.363 8.589-9.883 6.462-8.297-4.299 2.775-5.273 4.885-13.114 4.508-17.848-.133-1.677-1.344-3.922-4.082-3.811-5.267.213-5.84 12.332-5.222 20.932-.031-.215-.33 1.083-2.577 1.698-.075-3.763-4.655-5.488-5.755-4.287-1.96 2.14.45 6.531 2.678 7.615-1.362 8.589-9.883 6.462-8.297-4.299 2.775-5.273 4.885-13.114 4.509-17.848-.133-1.677-1.344-3.922-4.083-3.811-5.266.213-5.69 12.94-5.073 21.541-1.734 7.607-7.552 17.106-6.796-1.923.075-1.335.156-1.841-.494-2.341-.487-.389-1.595-.202-2.2-.186-.737.03-.922.47-1.084 1.137-.38 1.721-.447 3.388-.501 5.664-.036 1.065-.12 1.561-.52 3.013-.4 1.451-2.682 4.104-3.932 3.66-1.734-.61-1.165-5.618-.84-9.06.27-2.719-.596-3.94-2.817-4.385-1.3-.277-2.09-.234-3.444-.671-1.28-.413-1.57-2.892-4.301-2.066-1.494.452-.534 3.691-.893 6.092-1.765 11.81-5.437 12.134-7.141 6.397 7.673-19.234 2.22-26.816-.973-26.816-3.325 0-7.126 2.344-5.516 17.341-.783-.233-1.023-.36-1.88-.36-4.845 0-8.146 4.009-8.146 8.954s3.301 8.954 8.146 8.954c2.86 0 4.868-1.332 6.39-3.391.992 1.454 2.2 3.413 4.41 3.325 6.586-.263 8.501-14.09 8.727-14.861.705.111 1.37.321 2.02.433 1.084.166 1.163.605 1.138 1.72-.287 9.404 1.409 12.697 5.255 12.697 2.143 0 4.053-2.155 5.369-3.696.983 2.076 2.548 3.632 4.65 3.695 5.09.13 7.039-8.174 6.861-7.081-.14.857 1.652 7.035 6.892 7.057 6.492.028 7.699-7.278 7.843-8.502.018-.243.026-.218 0 0l-.005.074c2.06-.392 3.124-1.523 3.124-1.523s1.655 10.065 7.785 9.951c6.365-.118 7.566-6.722 7.723-8.01.021-.306.033-.27 0 0l-.002.038c2.448-.912 3.092-1.826 3.092-1.826s1.315 9.864 7.785 9.95c5.765.078 7.901-5.965 7.914-8.494.972.011 2.771-.59 2.729-.624 0 0 2.112 8.625 8.009 9.068 2.769.208 4.846-1.595 6.03-2.417 2.782 2.306 12.048 5.252 17.898-4.9.826-1.457-.95-3.178-1.261-3.402zm-130.61 7.37c-2.826 0-4.639-2.675-4.639-5.559 0-2.885 1.664-5.56 4.49-5.56 1.273 0 1.98.144 2.971 1.025.18.725.689 2.396.937 3.155.331 1.016.726 1.88 1.124 2.821-.568 2.413-2.433 4.118-4.883 4.118zm6.889-10.009c-.118-.191-.093-.074-.225-.255-.518-1.442-1.516-4.662-1.632-8.32-.13-4.137.543-8.986 2.53-8.986 1.345 0 2.776 9.828-.673 17.561zm39.802-4.31c-.32-2.456-.336-13.4 2.232-13.099 1.417.588-.9 10.915-2.232 13.099zm18.746 0c-.319-2.456-.335-13.4 2.232-13.099 1.418.588-.899 10.915-2.232 13.099zm18.598.152c-.319-2.455-.335-13.4 2.232-13.099 1.417.588-.899 10.916-2.232 13.1zm20.532-13.892c2.347-.249 2.25 10.242-2.461 16.865-.608-2.394-1.539-16.043 2.461-16.865zm9.866 22.573c-.754-3.897 1.194-6.457 3.202-6.737.702-.115 1.719.35 1.922 1.22.333 1.64-.049 4.072-4.543 7.158a6.402 6.402 0 01-.581-1.641z" fill="#6E8AA7"/></svg>