<svg width="200" height="200" fill="none" xmlns="http://www.w3.org/2000/svg"><path d="M47.479 77h1.262c4.381.093 8.691 1.808 11.787 4.845-1.143 1.136-2.31 2.225-3.43 3.361-1.737-1.53-3.833-2.712-6.119-3.13-3.381-.695-7.024-.069-9.858 1.809-3.096 1.97-5.191 5.308-5.644 8.878-.5 3.524.524 7.233 2.882 9.968 2.262 2.666 5.715 4.335 9.286 4.451 3.334.186 6.81-.811 9.24-3.083 1.904-1.599 2.785-4.033 3.071-6.398-3.953 0-7.905.023-11.858 0v-4.775h16.644c.858 5.123-.38 10.895-4.381 14.558-2.667 2.596-6.358 4.126-10.12 4.427-3.643.348-7.406-.324-10.644-2.04-3.881-2.017-6.977-5.424-8.501-9.435-1.429-3.685-1.453-7.858-.119-11.567 1.214-3.385 3.548-6.375 6.548-8.461 2.882-2.064 6.382-3.2 9.954-3.408zM141 78h5v33.994c-1.659 0-3.341.024-5-.024.023-11.307 0-22.639 0-33.97zM75.259 89.21c3.116-.592 6.492.07 9.066 1.94 2.337 1.657 3.966 4.26 4.462 7.1.637 3.29-.165 6.887-2.29 9.49-2.29 2.911-6.044 4.473-9.704 4.237-3.352-.19-6.61-1.87-8.593-4.615-2.243-3.03-2.786-7.195-1.559-10.745 1.228-3.81 4.699-6.72 8.618-7.407zm.708 4.497a6.345 6.345 0 00-3.305 2.106c-2.29 2.745-2.149 7.218.378 9.774 1.44 1.467 3.612 2.153 5.619 1.751 1.865-.331 3.494-1.586 4.391-3.242 1.558-2.816 1.11-6.698-1.275-8.899-1.535-1.42-3.778-2.011-5.808-1.49zm24.291-4.495c3.568-.687 7.466.308 10.136 2.817 4.348 3.907 4.82 11.223 1.111 15.721-2.245 2.841-5.883 4.404-9.475 4.238-3.426-.095-6.804-1.799-8.836-4.617-2.292-3.101-2.788-7.363-1.489-10.985 1.3-3.694 4.702-6.511 8.553-7.174zm.709 4.498a6.46 6.46 0 00-3.308 2.084c-2.268 2.699-2.173 7.102.26 9.683 1.442 1.539 3.686 2.297 5.765 1.871 1.843-.356 3.497-1.587 4.395-3.244 1.536-2.841 1.087-6.724-1.323-8.926-1.536-1.42-3.781-1.989-5.789-1.468zm20.569-3.14c2.717-1.688 6.331-2.157 9.26-.703.921.399 1.677 1.078 2.409 1.758.024-.633 0-1.29.024-1.946 1.582.024 3.165 0 4.771.024v20.68c-.024 3.119-.827 6.425-3.094 8.699-2.48 2.509-6.283 3.282-9.708 2.767-3.662-.54-6.85-3.189-8.268-6.542 1.418-.68 2.906-1.219 4.37-1.852.827 1.922 2.504 3.564 4.606 3.939s4.535-.141 5.905-1.876c1.465-1.782 1.465-4.22 1.394-6.401-1.087 1.055-2.338 1.993-3.85 2.345-3.283.914-6.897-.211-9.425-2.415-2.551-2.204-4.063-5.604-3.921-8.981.071-3.822 2.244-7.503 5.527-9.496zm4.89 3.002c-1.441.234-2.787 1.031-3.709 2.133-2.22 2.626-2.22 6.823.024 9.403 1.276 1.524 3.331 2.368 5.315 2.157 1.866-.188 3.59-1.36 4.511-2.978 1.559-2.743 1.299-6.472-.803-8.863-1.299-1.477-3.378-2.204-5.338-1.852zm26.125-1.766c2.811-2.65 7.144-3.549 10.751-2.153 3.419 1.301 5.597 4.59 6.698 7.974-5.082 2.13-10.141 4.235-15.224 6.365.703 1.348 1.78 2.579 3.232 3.076 2.038.733 4.474.473 6.184-.899.679-.521 1.217-1.207 1.733-1.87 1.288.876 2.576 1.728 3.864 2.603-1.827 2.768-4.895 4.709-8.197 5.016-3.654.45-7.542-.97-9.907-3.857-3.888-4.543-3.514-12.161.866-16.255zm2.506 4.377c-.796 1.16-1.124 2.58-1.101 3.976 3.397-1.42 6.793-2.84 10.189-4.283-.562-1.325-1.921-2.13-3.303-2.343-2.225-.402-4.543.805-5.785 2.65z" fill="#6E8AA7"/></svg>