<svg width="200" height="200" fill="none" xmlns="http://www.w3.org/2000/svg"><path d="M133 84.65c0-1.463 1.225-2.65 2.735-2.65h31.53c1.511 0 2.735 1.187 2.735 2.65v31.7c0 1.464-1.224 2.65-2.735 2.65h-31.53c-1.51 0-2.735-1.186-2.735-2.65v-31.7zM30 113h15.333v-5.087H35.55V88.51H30V113zm23.096 0V96.132h-5.55V113h5.55zm-2.774-19.171c1.935 0 3.14-1.296 3.14-2.915C53.425 89.259 52.257 88 50.358 88c-1.898 0-3.14 1.26-3.14 2.914 0 1.62 1.205 2.915 3.067 2.915h.036zM55.672 113h5.55v-9.421c0-.504.036-1.008.183-1.367.4-1.007 1.314-2.051 2.847-2.051 2.008 0 2.812 1.547 2.812 3.814V113h5.549v-9.672c0-5.182-2.738-7.593-6.39-7.593-2.993 0-4.308 1.69-5.038 2.843h.037V96.13h-5.55c.074 1.584 0 16.869 0 16.869zm24.77-24.49h-5.55V113h5.55v-5.469l1.386-1.764L86.173 113H93l-7.301-10.471 6.388-7.124h-6.68s-4.563 6.373-4.965 7.129V88.509z" fill="#6E8AA7"/><path d="M108.085 105.833c.075-.418.186-1.219.186-2.126 0-4.205-2.229-8.474-8.097-8.474-6.277 0-9.174 4.754-9.174 9.067 0 5.333 3.529 8.664 9.694 8.664 2.452 0 4.716-.346 6.574-1.075l-.743-3.571c-1.523.484-3.083.726-5.014.726-2.637 0-4.939-1.037-5.125-3.246l11.699.034v.001zm-11.736-3.658c.149-1.389 1.115-3.437 3.529-3.437 2.562 0 3.157 2.187 3.157 3.437H96.35zm25.857-13.174v8.175h-.075c-.817-1.144-2.525-1.908-4.79-1.908-4.346 0-8.171 3.331-8.135 9.022 0 5.275 3.455 8.71 7.763 8.71 2.34 0 4.568-.972 5.683-2.846h.111l.223 2.464H128a86.683 86.683 0 01-.149-5.066V89h-5.646.001zm0 16.087c0 .416-.037.833-.112 1.179-.333 1.493-1.67 2.533-3.305 2.533-2.339 0-3.862-1.804-3.862-4.649 0-2.671 1.3-4.823 3.9-4.823 1.745 0 2.97 1.145 3.305 2.567.074.313.074.66.074.972v2.221z" fill="#6E8AA7"/><path d="M143.902 113V96.131h-5.573V113h5.574-.001zm-2.786-19.171c1.944 0 3.154-1.296 3.154-2.914-.037-1.656-1.21-2.915-3.116-2.915-1.908 0-3.154 1.26-3.154 2.915 0 1.618 1.209 2.914 3.08 2.914h.036zM146.987 113h5.573v-9.419c0-.504.037-1.009.184-1.368.403-1.008 1.32-2.051 2.86-2.051 2.016 0 2.823 1.547 2.823 3.815V113H164v-9.672c0-5.181-2.749-7.592-6.416-7.592-3.007 0-4.327 1.69-5.06 2.841h.037v-2.445h-5.573c.072 1.582-.001 16.868-.001 16.868z" fill="#fff"/></svg>