<svg width="60" height="60" fill="none" xmlns="http://www.w3.org/2000/svg"><path d="M56.691 22.04l-7.66-7.659-9.17 20.426-3.127 6.956 1.225 1.224a9.698 9.698 0 007.842 2.788 9.674 9.674 0 005.705-2.605l5.211-5.211a11.267 11.267 0 00-.026-15.918z" fill="#6B88A5"/><path d="M45.775 45.775a9.697 9.697 0 01-7.842-2.788l-1.224-1.224-6.67-6.67-3.178-3.178-9.197 20.4 4.377 4.376a11.216 11.216 0 006.513 3.205c3.335.416 6.826-.626 9.38-3.205L51.48 43.144a9.489 9.489 0 01-5.706 2.631zM37.933 3.283A11.134 11.134 0 0031.524.104a11.289 11.289 0 00-9.275 2.97l-.208.209-13.704 13.73a9.602 9.602 0 015.888-2.788 9.698 9.698 0 017.842 2.787l1.276 1.277 6.67 6.67 3.178 3.178 9.197-20.425-4.455-4.43z" fill="#32C5FF"/><path d="M22.067 17.013a9.698 9.698 0 00-7.842-2.788 9.6 9.6 0 00-5.888 2.788L3.1 22.249c-4.194 4.403-4.116 11.36.209 15.684l7.711 7.712 9.197-20.4 3.126-6.956-1.276-1.276z" fill="#6B88A5"/></svg>