<svg width="200" height="200" fill="none" xmlns="http://www.w3.org/2000/svg"><path d="M100.71 110.875c0 .493 0 .605.328.907l1.837 1.837v.078h-8.143v-3.528c-.82 2.325-2.988 3.863-5.4 3.83-4.187 0-7.225-3.359-7.225-9.542 0-5.79 3.278-9.654 7.88-9.654 2.04-.132 3.939 1.072 4.734 3.001v-7.783a.98.98 0 00-.372-.941l-1.75-1.725v-.078l8.111-.975v24.573zm-5.978-1.12V98.14a3.042 3.042 0 00-1.08-.869 3.002 3.002 0 00-1.347-.295c-1.979 0-3.892 1.836-3.892 7.291 0 5.107 1.651 6.91 3.706 6.91a3.243 3.243 0 001.475-.394 3.28 3.28 0 001.137-1.028zm11.378 3.942v-15.68a1.06 1.06 0 00-.328-.94l-1.803-1.905v-.078h8.143v15.904c0 .493 0 .605.328.907l1.793 1.725v.078l-8.133-.011zm-.295-24.337c0-1.856 1.468-3.36 3.279-3.36s3.279 1.504 3.279 3.36c0 1.855-1.468 3.36-3.279 3.36-1.81 0-3.279-1.505-3.279-3.36zm28.278 21.481c0 .493 0 .639.327.941l1.837 1.837v.078h-8.187v-4.021c-.746 2.543-3.017 4.294-5.607 4.323-3.629 0-5.575-2.71-5.575-7.839 0-2.476 0-5.186.076-8.232a.955.955 0 00-.328-.907l-1.803-1.849v-.078h8.078v10.226c0 3.36.481 5.6 2.535 5.6a3.248 3.248 0 001.535-.505 3.312 3.312 0 001.111-1.187v-11.2a1.073 1.073 0 00-.328-.94l-1.815-1.916v-.078h8.144v15.747zm27.72 2.856c0-.605.109-8.31.109-10.08 0-3.36-.514-5.678-2.82-5.678a3.618 3.618 0 00-1.639.455 3.66 3.66 0 00-1.257 1.158 13.97 13.97 0 01.327 3.192c0 2.329-.076 5.297-.109 8.265a.964.964 0 00.328.907l1.837 1.725v.078h-8.22c0-.56.109-8.31.109-10.079 0-3.416-.514-5.679-2.787-5.679a3.242 3.242 0 00-1.567.475c-.474.29-.868.697-1.144 1.183v11.424c0 .493 0 .605.328.907l1.792 1.725v.078h-8.132v-15.68a1.073 1.073 0 00-.328-.94l-1.804-1.96v-.079h8.144v3.987c.755-2.632 3.161-4.4 5.837-4.29 2.711 0 4.547 1.546 5.323 4.48.862-2.706 3.343-4.522 6.121-4.48 3.629 0 5.684 2.745 5.684 7.93 0 2.475-.076 5.298-.109 8.266a.905.905 0 00.371.907l1.793 1.725v.078h-8.187zm-102.3-2.441l2.416 2.363v.078H49.675v-.078l2.46-2.363a.967.967 0 00.328-.908V95.24c0-.639 0-1.501.109-2.24l-8.264 21h-.098l-8.559-19.32c-.186-.482-.24-.515-.36-.84v12.667a4.495 4.495 0 00.404 2.475l3.443 4.637v.078H30v-.078l3.443-4.648c.364-.765.504-1.62.404-2.464v-14a2.756 2.756 0 00-.568-1.915l-2.437-3.237v-.078h8.744l7.324 16.363 6.449-16.363h8.558v.078L59.513 90.1a.967.967 0 00-.372.941v19.309a.91.91 0 00.372.907zm9.586-7.572v.079c0 4.793 2.416 6.72 5.247 6.72 2.364.082 4.552-1.276 5.574-3.461h.077c-.984 4.738-3.848 6.977-8.133 6.977-4.623 0-8.985-2.855-8.985-9.475 0-6.955 4.373-9.732 9.204-9.732 3.892 0 8.034 1.881 8.034 7.929v.963H69.1zm0-.963h5.389v-.974c0-4.928-.995-6.239-2.492-6.239-1.815 0-2.919 1.96-2.919 7.213h.022z" fill="#6E8AA7"/></svg>