<svg width="200" height="200" fill="none" xmlns="http://www.w3.org/2000/svg"><path d="M50.995 79C39.4 79 30 88.402 30 100c0 11.599 9.4 21 20.995 21s20.995-9.401 20.995-21c0-11.597-9.4-21-20.995-21zm9.628 30.287a1.307 1.307 0 01-1.8.436c-4.93-3.014-11.135-3.695-18.443-2.025a1.307 1.307 0 01-1.567-.984 1.306 1.306 0 01.984-1.567c7.998-1.829 14.858-1.042 20.392 2.34a1.31 1.31 0 01.434 1.801v-.001zm2.57-5.717a1.636 1.636 0 01-2.252.539c-5.642-3.469-14.246-4.474-20.92-2.447a1.638 1.638 0 01-2.043-1.091 1.64 1.64 0 011.091-2.042c7.625-2.314 17.103-1.193 23.584 2.791a1.637 1.637 0 01.54 2.251v-.001zm.22-5.954c-6.767-4.02-17.93-4.39-24.39-2.428a1.963 1.963 0 11-1.14-3.76c7.415-2.251 19.744-1.816 27.534 2.81a1.964 1.964 0 01-2.004 3.378zm23.707.77c-3.625-.864-4.27-1.471-4.27-2.746 0-1.205 1.134-2.016 2.82-2.016 1.634 0 3.255.616 4.954 1.883a.236.236 0 00.18.044.234.234 0 00.156-.097l1.77-2.495a.238.238 0 00-.045-.323c-2.022-1.624-4.3-2.413-6.962-2.413-3.914 0-6.648 2.35-6.648 5.711 0 3.605 2.359 4.881 6.434 5.867 3.469.799 4.054 1.468 4.054 2.665 0 1.327-1.183 2.151-3.088 2.151-2.116 0-3.842-.713-5.773-2.385a.248.248 0 00-.174-.057.234.234 0 00-.163.084l-1.985 2.362a.236.236 0 00.024.33c2.246 2.005 5.009 3.065 7.99 3.065 4.218 0 6.943-2.305 6.943-5.873.008-3.011-1.795-4.679-6.21-5.753l-.007-.004zm15.759-3.575c-1.828 0-3.328.72-4.564 2.195v-1.66a.238.238 0 00-.237-.239h-3.246a.238.238 0 00-.237.238v18.457c0 .131.106.238.237.238h3.246c.13 0 .237-.107.237-.238v-5.826c1.237 1.388 2.736 2.067 4.564 2.067 3.397 0 6.836-2.616 6.836-7.615.005-5.001-3.435-7.618-6.832-7.618h-.004zm3.061 7.617c0 2.546-1.568 4.322-3.813 4.322-2.22 0-3.893-1.857-3.893-4.322s1.674-4.323 3.893-4.323c2.209 0 3.813 1.817 3.813 4.322v.001zm12.588-7.617c-4.374 0-7.802 3.369-7.802 7.671 0 4.255 3.404 7.589 7.748 7.589 4.391 0 7.828-3.358 7.828-7.643 0-4.271-3.414-7.617-7.774-7.617zm0 11.965c-2.327 0-4.081-1.87-4.081-4.35 0-2.49 1.694-4.296 4.027-4.296 2.342 0 4.108 1.87 4.108 4.351 0 2.489-1.705 4.295-4.054 4.295zm17.116-11.669h-3.572v-3.652a.238.238 0 00-.237-.238h-3.245a.238.238 0 00-.238.238v3.652h-1.561a.237.237 0 00-.236.238v2.79c0 .132.105.239.236.239h1.561v7.219c0 2.918 1.452 4.397 4.315 4.397 1.164 0 2.13-.24 3.04-.756a.239.239 0 00.12-.206v-2.657a.237.237 0 00-.344-.214 4.083 4.083 0 01-1.905.46c-1.042 0-1.506-.473-1.506-1.533v-6.71h3.572a.237.237 0 00.236-.237v-2.79a.23.23 0 00-.233-.238l-.003-.002zm12.445.015v-.449c0-1.32.506-1.908 1.64-1.908.677 0 1.22.134 1.829.337a.237.237 0 00.312-.226V90.14a.237.237 0 00-.168-.228 8.909 8.909 0 00-2.698-.387c-2.997 0-4.582 1.688-4.582 4.881v.687h-1.56a.239.239 0 00-.238.238v2.805c0 .13.108.238.238.238h1.56v11.136c0 .131.106.238.237.238h3.245a.238.238 0 00.238-.238V98.374h3.031l4.642 11.134c-.527 1.17-1.045 1.402-1.753 1.402-.571 0-1.174-.17-1.789-.507a.244.244 0 00-.189-.018.244.244 0 00-.141.128l-1.1 2.414a.237.237 0 00.102.307c1.149.622 2.186.888 3.467.888 2.397 0 3.721-1.117 4.889-4.121l5.631-14.554a.235.235 0 00-.025-.221.235.235 0 00-.195-.103h-3.379a.239.239 0 00-.225.159l-3.461 9.89-3.792-9.897a.236.236 0 00-.221-.153h-5.546.001zm-7.216-.015h-3.246a.238.238 0 00-.237.238v14.165c0 .131.106.238.237.238h3.246a.239.239 0 00.238-.238V95.346a.238.238 0 00-.238-.238zm-1.604-6.449a2.328 2.328 0 10-.004 4.656 2.328 2.328 0 00.005-4.656h-.001zm28.435 11.004a2.275 2.275 0 01-2.284-2.285 2.296 2.296 0 012.296-2.297A2.275 2.275 0 01170 97.364a2.298 2.298 0 01-2.296 2.298zm.012-4.355c-1.17 0-2.055.93-2.055 2.07 0 1.138.879 2.056 2.044 2.056 1.169 0 2.056-.93 2.056-2.07 0-1.138-.88-2.056-2.044-2.056h-.001zm.507 2.291l.646.905h-.545l-.582-.83h-.5v.83h-.456v-2.398h1.069c.558 0 .924.285.924.765.002.393-.226.633-.554.728h-.002zm-.386-1.082h-.595v.76h.595c.297 0 .474-.146.474-.38 0-.247-.178-.38-.474-.38z" fill="#6E8AA7"/></svg>