<svg width="630" height="349" fill="none" xmlns="http://www.w3.org/2000/svg"><g filter="url(#filter0_d_9_5021)"><rect width="630" height="328.125" rx="6.563" fill="#F6F9FA"/><g filter="url(#filter1_d_9_5021)"><g filter="url(#filter2_d_9_5021)"><rect x="111.562" y="28.547" width="505.313" height="44.953" rx="6.563" fill="#fff"/></g></g><g opacity=".2" filter="url(#filter3_d_9_5021)"><rect x="584.062" y="41.344" width="20" height="20" rx="6.567" fill="#C0D4E3"/></g><path fill-rule="evenodd" clip-rule="evenodd" d="M594.334 51.985c2.17 0 3.93 1.4 3.93 2.118 0 .72-1.76 2.119-3.93 2.119-2.171 0-3.931-1.4-3.931-2.119 0-.719 1.76-2.118 3.931-2.118zm0-4.957a2.12 2.12 0 110 4.24 2.12 2.12 0 010-4.24z" fill="#C0D4E3"/><g filter="url(#filter4_d_9_5021)"><rect x="124.688" y="41.344" width="204" height="20" rx="6.567" fill="#F6F8FA"/></g><rect x="144.375" y="47.623" width="39.074" height="6.567" rx="3.284" fill="#E1E8F1" opacity=".9"/><path fill-rule="evenodd" clip-rule="evenodd" d="M134.25 53.47l-1.446.668a.56.56 0 01-.752-.302.603.603 0 01-.046-.302l.163-1.64-1.057-1.226a.613.613 0 01.043-.839.569.569 0 01.262-.139l1.547-.344.792-1.427a.558.558 0 01.987 0l.793 1.427 1.546.344a.595.595 0 01.439.705.602.602 0 01-.134.273l-1.057 1.226.164 1.64a.589.589 0 01-.508.652.553.553 0 01-.291-.048l-1.445-.668z" fill="#E1E8F1"/><path d="M0 15.422h98.438v312.703H6.561A6.562 6.562 0 010 321.563V15.423z" fill="#fff"/><rect x="15.749" y="179.485" width="40.059" height="8.866" rx="4.433" fill="#C0D4E3"/><rect x="15.749" y="210.336" width="44.656" height="6.567" rx="3.284" fill="#E1E8F1"/><rect x="15.749" y="198.516" width="66.984" height="6.567" rx="3.284" fill="#E1E8F1"/><g opacity=".2" filter="url(#filter5_d_9_5021)"><rect x="13.125" y="230.016" width="72" height="84" rx="6.567" fill="#C0D4E3"/></g><path fill-rule="evenodd" clip-rule="evenodd" d="M52.312 270.185a.982.982 0 01.047.049l4.328 4.806a.998.998 0 01-.09 1.428 1.04 1.04 0 01-.683.254h-12.45c-.57 0-1.031-.453-1.031-1.012a1 1 0 01.312-.725l1.766-1.686a1.048 1.048 0 011.213-.163l.717.384c.403.215.903.144 1.227-.176l3.185-3.152a1.046 1.046 0 011.459-.007zm-5.326-2a1.423 1.423 0 110 2.846 1.423 1.423 0 010-2.846z" fill="#C0D4E3"/><g clip-path="url(#clip0_9_5021)" fill="#E1E8F1"><g clip-path="url(#clip1_9_5021)" fill-rule="evenodd" clip-rule="evenodd"><path d="M18.05 114.809l-1.445.668a.561.561 0 01-.753-.301.62.62 0 01-.046-.303l.164-1.639-1.057-1.227a.612.612 0 01.043-.839.57.57 0 01.262-.139l1.546-.344.793-1.427a.557.557 0 01.779-.216.58.58 0 01.208.216l.792 1.427 1.547.344a.595.595 0 01.438.706.602.602 0 01-.134.272l-1.056 1.227.163 1.639a.588.588 0 01-.508.652.539.539 0 01-.29-.048l-1.446-.668zm0-16.418l-1.445.669a.561.561 0 01-.753-.302.617.617 0 01-.046-.303l.164-1.64-1.057-1.225a.612.612 0 01.043-.84.563.563 0 01.262-.138l1.546-.345.793-1.426a.558.558 0 01.987 0l.792 1.426 1.547.345a.594.594 0 01.438.705.603.603 0 01-.134.273l-1.056 1.226.163 1.64a.589.589 0 01-.508.652.55.55 0 01-.29-.048l-1.446-.669zm0-16.418l-1.445.669a.561.561 0 01-.753-.302.617.617 0 01-.046-.303l.164-1.639-1.057-1.226a.612.612 0 01.043-.84.563.563 0 01.262-.138l1.546-.345.793-1.426a.558.558 0 01.987 0l.792 1.426 1.547.345a.595.595 0 01.438.705.604.604 0 01-.134.273l-1.056 1.226.163 1.64a.589.589 0 01-.508.652.55.55 0 01-.29-.048l-1.446-.669z"/></g><rect x="29.543" y="108.962" width="40.059" height="6.567" rx="3.284"/><rect x="29.543" y="92.544" width="55.492" height="6.567" rx="3.284"/><rect x="29.543" y="76.126" width="45.313" height="6.567" rx="3.284"/></g><g opacity=".2" filter="url(#filter6_d_9_5021)"><rect x="13.125" y="28.547" width="26.25" height="26.25" rx="6.563" fill="#C0D4E3"/></g><path fill-rule="evenodd" clip-rule="evenodd" d="M26.25 45.515l-2.167 1.002a.841.841 0 01-1.128-.453.924.924 0 01-.069-.453l.245-2.457-1.584-1.838a.917.917 0 01.065-1.258.842.842 0 01.392-.209l2.319-.516 1.187-2.138a.836.836 0 011.168-.325.87.87 0 01.312.325l1.187 2.138 2.319.517c.461.102.756.576.657 1.057a.905.905 0 01-.2.409l-1.585 1.838.246 2.457c.048.49-.293.927-.762.978a.825.825 0 01-.435-.072l-2.167-1.002z" fill="#C0D4E3"/><rect x="45.938" y="44.013" width="25.94" height="6.567" rx="3.284" fill="#E1E8F1"/><rect x="45.938" y="32.201" width="39.074" height="6.567" rx="3.284" fill="#E1E8F1"/><path d="M0 6.563A6.562 6.562 0 016.563 0h616.875A6.562 6.562 0 01630 6.563v8.859H0v-8.86z" fill="#DDEAF3"/><circle cx="8.367" cy="8.039" r="3.117" fill="#F6F9FA"/><circle cx="16.57" cy="8.039" r="3.117" fill="#F6F9FA"/><circle cx="24.773" cy="8.039" r="3.117" fill="#F6F9FA"/><g filter="url(#filter7_d_9_5021)"><g filter="url(#filter8_d_9_5021)"><rect x="111.562" y="118.453" width="159.797" height="164.063" rx="6.563" fill="#fff"/></g><rect width="19.688" height="19.688" rx="6.563" transform="matrix(-1 0 0 1 144.375 131.578)" fill="#E1E8F1"/><path d="M139.125 138.141l-4.668 5.334a1.64 1.64 0 01-2.309.16l-2.211-1.915" stroke="#33C5FE" stroke-width="4.922" stroke-linecap="round" stroke-linejoin="round"/></g><rect x="159.796" y="200.201" width="59.104" height="6.567" rx="3.284" fill="#E1E8F1"/><rect x="145.031" y="188.388" width="88.984" height="6.567" rx="3.284" fill="#E1E8F1"/><rect x="156.515" y="169.641" width="66" height="9" rx="4.5" fill="#C0D4E3"/><g filter="url(#filter9_d_9_5021)"><rect x="140.109" y="239.859" width="98.438" height="22.969" rx="6.563" fill="#33C5FE"/></g><rect x="169.641" y="248.062" width="39" height="7" rx="3.5" fill="#E1E8F1" opacity=".3"/><g filter="url(#filter10_d_9_5021)"><g filter="url(#filter11_d_9_5021)"><rect x="284.157" y="118.453" width="159.797" height="164.063" rx="6.563" fill="#fff"/></g></g><rect x="332.391" y="200.201" width="59.104" height="6.567" rx="3.284" fill="#E1E8F1"/><rect x="317.625" y="188.388" width="88.984" height="6.567" rx="3.284" fill="#E1E8F1"/><rect x="329.109" y="169.641" width="66" height="9" rx="4.5" fill="#C0D4E3"/><g filter="url(#filter12_d_9_5021)"><rect x="312.703" y="239.859" width="99" height="23" rx="6.567" fill="#66C109"/></g><rect x="342.234" y="247.779" width="39.074" height="6.567" rx="3.284" fill="#fff" opacity=".3"/><rect width="19.688" height="19.688" rx="6.563" transform="matrix(-1 0 0 1 316.969 131.578)" fill="#E1E8F1"/><g filter="url(#filter13_d_9_5021)"><g filter="url(#filter14_d_9_5021)"><rect x="457" y="118.453" width="159.797" height="164.063" rx="6.563" fill="#fff"/></g><rect width="19.688" height="19.688" rx="6.563" transform="matrix(-1 0 0 1 485.547 131.578)" fill="#E1E8F1"/></g><rect x="505.234" y="200.201" width="59.104" height="6.567" rx="3.284" fill="#E1E8F1"/><rect x="490.469" y="188.388" width="88.984" height="6.567" rx="3.284" fill="#E1E8F1"/><rect x="501.954" y="169.641" width="66" height="9" rx="4.5" fill="#C0D4E3"/><g filter="url(#filter15_d_9_5021)"><rect x="485.547" y="239.859" width="99" height="23" rx="6.567" fill="#FFC500"/></g><rect x="515.078" y="247.779" width="39.074" height="6.567" rx="3.284" fill="#fff" opacity=".3"/></g><defs><filter id="filter0_d_9_5021" x="0" y="0" width="630" height="348.125" filterUnits="userSpaceOnUse" color-interpolation-filters="sRGB"><feFlood flood-opacity="0" result="BackgroundImageFix"/><feColorMatrix in="SourceAlpha" values="0 0 0 0 0 0 0 0 0 0 0 0 0 0 0 0 0 0 127 0" result="hardAlpha"/><feMorphology radius="40" in="SourceAlpha" result="effect1_dropShadow_9_5021"/><feOffset dy="20"/><feGaussianBlur stdDeviation="20"/><feColorMatrix values="0 0 0 0 0.858824 0 0 0 0 0.890196 0 0 0 0 0.929412 0 0 0 0.4 0"/><feBlend in2="BackgroundImageFix" result="effect1_dropShadow_9_5021"/><feBlend in="SourceGraphic" in2="effect1_dropShadow_9_5021" result="shape"/></filter><filter id="filter1_d_9_5021" x="111.562" y="28.547" width="505.312" height="51.516" filterUnits="userSpaceOnUse" color-interpolation-filters="sRGB"><feFlood flood-opacity="0" result="BackgroundImageFix"/><feColorMatrix in="SourceAlpha" values="0 0 0 0 0 0 0 0 0 0 0 0 0 0 0 0 0 0 127 0" result="hardAlpha"/><feMorphology radius="13.125" in="SourceAlpha" result="effect1_dropShadow_9_5021"/><feOffset dy="6.563"/><feGaussianBlur stdDeviation="6.563"/><feColorMatrix values="0 0 0 0 0.858824 0 0 0 0 0.890196 0 0 0 0 0.929412 0 0 0 0.4 0"/><feBlend in2="BackgroundImageFix" result="effect1_dropShadow_9_5021"/><feBlend in="SourceGraphic" in2="effect1_dropShadow_9_5021" result="shape"/></filter><filter id="filter2_d_9_5021" x="111.562" y="28.547" width="505.312" height="51.516" filterUnits="userSpaceOnUse" color-interpolation-filters="sRGB"><feFlood flood-opacity="0" result="BackgroundImageFix"/><feColorMatrix in="SourceAlpha" values="0 0 0 0 0 0 0 0 0 0 0 0 0 0 0 0 0 0 127 0" result="hardAlpha"/><feMorphology radius="13.125" in="SourceAlpha" result="effect1_dropShadow_9_5021"/><feOffset dy="6.563"/><feGaussianBlur stdDeviation="6.563"/><feColorMatrix values="0 0 0 0 0.858824 0 0 0 0 0.890196 0 0 0 0 0.929412 0 0 0 0.4 0"/><feBlend in2="BackgroundImageFix" result="effect1_dropShadow_9_5021"/><feBlend in="SourceGraphic" in2="effect1_dropShadow_9_5021" result="shape"/></filter><filter id="filter3_d_9_5021" x="584.062" y="41.344" width="20" height="26.567" filterUnits="userSpaceOnUse" color-interpolation-filters="sRGB"><feFlood flood-opacity="0" result="BackgroundImageFix"/><feColorMatrix in="SourceAlpha" values="0 0 0 0 0 0 0 0 0 0 0 0 0 0 0 0 0 0 127 0" result="hardAlpha"/><feMorphology radius="13.134" in="SourceAlpha" result="effect1_dropShadow_9_5021"/><feOffset dy="6.567"/><feGaussianBlur stdDeviation="6.567"/><feColorMatrix values="0 0 0 0 0.858824 0 0 0 0 0.890196 0 0 0 0 0.929412 0 0 0 0.4 0"/><feBlend in2="BackgroundImageFix" result="effect1_dropShadow_9_5021"/><feBlend in="SourceGraphic" in2="effect1_dropShadow_9_5021" result="shape"/></filter><filter id="filter4_d_9_5021" x="124.688" y="41.344" width="204" height="26.567" filterUnits="userSpaceOnUse" color-interpolation-filters="sRGB"><feFlood flood-opacity="0" result="BackgroundImageFix"/><feColorMatrix in="SourceAlpha" values="0 0 0 0 0 0 0 0 0 0 0 0 0 0 0 0 0 0 127 0" result="hardAlpha"/><feMorphology radius="13.134" in="SourceAlpha" result="effect1_dropShadow_9_5021"/><feOffset dy="6.567"/><feGaussianBlur stdDeviation="6.567"/><feColorMatrix values="0 0 0 0 0.858824 0 0 0 0 0.890196 0 0 0 0 0.929412 0 0 0 0.4 0"/><feBlend in2="BackgroundImageFix" result="effect1_dropShadow_9_5021"/><feBlend in="SourceGraphic" in2="effect1_dropShadow_9_5021" result="shape"/></filter><filter id="filter5_d_9_5021" x="13.125" y="230.016" width="72.238" height="90.626" filterUnits="userSpaceOnUse" color-interpolation-filters="sRGB"><feFlood flood-opacity="0" result="BackgroundImageFix"/><feColorMatrix in="SourceAlpha" values="0 0 0 0 0 0 0 0 0 0 0 0 0 0 0 0 0 0 127 0" result="hardAlpha"/><feMorphology radius="13.134" in="SourceAlpha" result="effect1_dropShadow_9_5021"/><feOffset dy="6.567"/><feGaussianBlur stdDeviation="6.567"/><feColorMatrix values="0 0 0 0 0.858824 0 0 0 0 0.890196 0 0 0 0 0.929412 0 0 0 0.4 0"/><feBlend in2="BackgroundImageFix" result="effect1_dropShadow_9_5021"/><feBlend in="SourceGraphic" in2="effect1_dropShadow_9_5021" result="shape"/></filter><filter id="filter6_d_9_5021" x="13.125" y="28.547" width="26.25" height="32.813" filterUnits="userSpaceOnUse" color-interpolation-filters="sRGB"><feFlood flood-opacity="0" result="BackgroundImageFix"/><feColorMatrix in="SourceAlpha" values="0 0 0 0 0 0 0 0 0 0 0 0 0 0 0 0 0 0 127 0" result="hardAlpha"/><feMorphology radius="13.125" in="SourceAlpha" result="effect1_dropShadow_9_5021"/><feOffset dy="6.563"/><feGaussianBlur stdDeviation="6.563"/><feColorMatrix values="0 0 0 0 0.858824 0 0 0 0 0.890196 0 0 0 0 0.929412 0 0 0 0.4 0"/><feBlend in2="BackgroundImageFix" result="effect1_dropShadow_9_5021"/><feBlend in="SourceGraphic" in2="effect1_dropShadow_9_5021" result="shape"/></filter><filter id="filter7_d_9_5021" x="111.562" y="118.453" width="159.797" height="170.625" filterUnits="userSpaceOnUse" color-interpolation-filters="sRGB"><feFlood flood-opacity="0" result="BackgroundImageFix"/><feColorMatrix in="SourceAlpha" values="0 0 0 0 0 0 0 0 0 0 0 0 0 0 0 0 0 0 127 0" result="hardAlpha"/><feMorphology radius="13.125" in="SourceAlpha" result="effect1_dropShadow_9_5021"/><feOffset dy="6.563"/><feGaussianBlur stdDeviation="6.563"/><feColorMatrix values="0 0 0 0 0.858824 0 0 0 0 0.890196 0 0 0 0 0.929412 0 0 0 0.4 0"/><feBlend in2="BackgroundImageFix" result="effect1_dropShadow_9_5021"/><feBlend in="SourceGraphic" in2="effect1_dropShadow_9_5021" result="shape"/></filter><filter id="filter8_d_9_5021" x="111.562" y="118.453" width="159.797" height="170.625" filterUnits="userSpaceOnUse" color-interpolation-filters="sRGB"><feFlood flood-opacity="0" result="BackgroundImageFix"/><feColorMatrix in="SourceAlpha" values="0 0 0 0 0 0 0 0 0 0 0 0 0 0 0 0 0 0 127 0" result="hardAlpha"/><feMorphology radius="13.125" in="SourceAlpha" result="effect1_dropShadow_9_5021"/><feOffset dy="6.563"/><feGaussianBlur stdDeviation="6.563"/><feColorMatrix values="0 0 0 0 0.858824 0 0 0 0 0.890196 0 0 0 0 0.929412 0 0 0 0.4 0"/><feBlend in2="BackgroundImageFix" result="effect1_dropShadow_9_5021"/><feBlend in="SourceGraphic" in2="effect1_dropShadow_9_5021" result="shape"/></filter><filter id="filter9_d_9_5021" x="140.109" y="239.859" width="98.438" height="29.531" filterUnits="userSpaceOnUse" color-interpolation-filters="sRGB"><feFlood flood-opacity="0" result="BackgroundImageFix"/><feColorMatrix in="SourceAlpha" values="0 0 0 0 0 0 0 0 0 0 0 0 0 0 0 0 0 0 127 0" result="hardAlpha"/><feMorphology radius="13.125" in="SourceAlpha" result="effect1_dropShadow_9_5021"/><feOffset dy="6.563"/><feGaussianBlur stdDeviation="6.563"/><feColorMatrix values="0 0 0 0 0.858824 0 0 0 0 0.890196 0 0 0 0 0.929412 0 0 0 0.4 0"/><feBlend in2="BackgroundImageFix" result="effect1_dropShadow_9_5021"/><feBlend in="SourceGraphic" in2="effect1_dropShadow_9_5021" result="shape"/></filter><filter id="filter10_d_9_5021" x="279.891" y="118.453" width="164.062" height="170.625" filterUnits="userSpaceOnUse" color-interpolation-filters="sRGB"><feFlood flood-opacity="0" result="BackgroundImageFix"/><feColorMatrix in="SourceAlpha" values="0 0 0 0 0 0 0 0 0 0 0 0 0 0 0 0 0 0 127 0" result="hardAlpha"/><feMorphology radius="13.125" in="SourceAlpha" result="effect1_dropShadow_9_5021"/><feOffset dy="6.563"/><feGaussianBlur stdDeviation="6.563"/><feColorMatrix values="0 0 0 0 0.858824 0 0 0 0 0.890196 0 0 0 0 0.929412 0 0 0 0.4 0"/><feBlend in2="BackgroundImageFix" result="effect1_dropShadow_9_5021"/><feBlend in="SourceGraphic" in2="effect1_dropShadow_9_5021" result="shape"/></filter><filter id="filter11_d_9_5021" x="284.157" y="118.453" width="159.797" height="170.625" filterUnits="userSpaceOnUse" color-interpolation-filters="sRGB"><feFlood flood-opacity="0" result="BackgroundImageFix"/><feColorMatrix in="SourceAlpha" values="0 0 0 0 0 0 0 0 0 0 0 0 0 0 0 0 0 0 127 0" result="hardAlpha"/><feMorphology radius="13.125" in="SourceAlpha" result="effect1_dropShadow_9_5021"/><feOffset dy="6.563"/><feGaussianBlur stdDeviation="6.563"/><feColorMatrix values="0 0 0 0 0.858824 0 0 0 0 0.890196 0 0 0 0 0.929412 0 0 0 0.4 0"/><feBlend in2="BackgroundImageFix" result="effect1_dropShadow_9_5021"/><feBlend in="SourceGraphic" in2="effect1_dropShadow_9_5021" result="shape"/></filter><filter id="filter12_d_9_5021" x="312.703" y="239.859" width="99" height="29.567" filterUnits="userSpaceOnUse" color-interpolation-filters="sRGB"><feFlood flood-opacity="0" result="BackgroundImageFix"/><feColorMatrix in="SourceAlpha" values="0 0 0 0 0 0 0 0 0 0 0 0 0 0 0 0 0 0 127 0" result="hardAlpha"/><feMorphology radius="13.134" in="SourceAlpha" result="effect1_dropShadow_9_5021"/><feOffset dy="6.567"/><feGaussianBlur stdDeviation="6.567"/><feColorMatrix values="0 0 0 0 0.858824 0 0 0 0 0.890196 0 0 0 0 0.929412 0 0 0 0.4 0"/><feBlend in2="BackgroundImageFix" result="effect1_dropShadow_9_5021"/><feBlend in="SourceGraphic" in2="effect1_dropShadow_9_5021" result="shape"/></filter><filter id="filter13_d_9_5021" x="452.734" y="118.453" width="164.062" height="170.625" filterUnits="userSpaceOnUse" color-interpolation-filters="sRGB"><feFlood flood-opacity="0" result="BackgroundImageFix"/><feColorMatrix in="SourceAlpha" values="0 0 0 0 0 0 0 0 0 0 0 0 0 0 0 0 0 0 127 0" result="hardAlpha"/><feMorphology radius="13.125" in="SourceAlpha" result="effect1_dropShadow_9_5021"/><feOffset dy="6.563"/><feGaussianBlur stdDeviation="6.563"/><feColorMatrix values="0 0 0 0 0.858824 0 0 0 0 0.890196 0 0 0 0 0.929412 0 0 0 0.4 0"/><feBlend in2="BackgroundImageFix" result="effect1_dropShadow_9_5021"/><feBlend in="SourceGraphic" in2="effect1_dropShadow_9_5021" result="shape"/></filter><filter id="filter14_d_9_5021" x="457" y="118.453" width="159.797" height="170.625" filterUnits="userSpaceOnUse" color-interpolation-filters="sRGB"><feFlood flood-opacity="0" result="BackgroundImageFix"/><feColorMatrix in="SourceAlpha" values="0 0 0 0 0 0 0 0 0 0 0 0 0 0 0 0 0 0 127 0" result="hardAlpha"/><feMorphology radius="13.125" in="SourceAlpha" result="effect1_dropShadow_9_5021"/><feOffset dy="6.563"/><feGaussianBlur stdDeviation="6.563"/><feColorMatrix values="0 0 0 0 0.858824 0 0 0 0 0.890196 0 0 0 0 0.929412 0 0 0 0.4 0"/><feBlend in2="BackgroundImageFix" result="effect1_dropShadow_9_5021"/><feBlend in="SourceGraphic" in2="effect1_dropShadow_9_5021" result="shape"/></filter><filter id="filter15_d_9_5021" x="485.547" y="239.859" width="99" height="29.567" filterUnits="userSpaceOnUse" color-interpolation-filters="sRGB"><feFlood flood-opacity="0" result="BackgroundImageFix"/><feColorMatrix in="SourceAlpha" values="0 0 0 0 0 0 0 0 0 0 0 0 0 0 0 0 0 0 127 0" result="hardAlpha"/><feMorphology radius="13.134" in="SourceAlpha" result="effect1_dropShadow_9_5021"/><feOffset dy="6.567"/><feGaussianBlur stdDeviation="6.567"/><feColorMatrix values="0 0 0 0 0.858824 0 0 0 0 0.890196 0 0 0 0 0.929412 0 0 0 0.4 0"/><feBlend in2="BackgroundImageFix" result="effect1_dropShadow_9_5021"/><feBlend in="SourceGraphic" in2="effect1_dropShadow_9_5021" result="shape"/></filter><clipPath id="clip0_9_5021"><path fill="#fff" transform="translate(13.125 74.484)" d="M0 0h72.238v43.343H0z"/></clipPath><clipPath id="clip1_9_5021"><path fill="#fff" transform="translate(13.125 74.484)" d="M0 0h9.851v157.61H0z"/></clipPath></defs></svg>