<svg width="630" height="367" fill="none" xmlns="http://www.w3.org/2000/svg"><g filter="url(#filter0_d_1_2579)"><g filter="url(#filter1_d_1_2579)"><rect width="630" height="328.125" rx="6.563" fill="#F6F9FA"/></g><g filter="url(#filter2_d_1_2579)"><g filter="url(#filter3_d_1_2579)"><rect x="111.562" y="28.547" width="505.313" height="44.953" rx="6.563" fill="#fff"/></g></g><g opacity=".2" filter="url(#filter4_d_1_2579)"><rect x="584.063" y="41.344" width="20" height="20" rx="6.567" fill="#C0D4E3"/></g><path fill-rule="evenodd" clip-rule="evenodd" d="M594.334 51.985c2.17 0 3.93 1.4 3.93 2.118 0 .72-1.76 2.119-3.93 2.119-2.171 0-3.931-1.4-3.931-2.119 0-.719 1.76-2.118 3.931-2.118zm0-4.957a2.12 2.12 0 11-.001 4.24 2.12 2.12 0 01.001-4.24z" fill="#C0D4E3"/><g filter="url(#filter5_d_1_2579)"><rect x="124.688" y="41.344" width="204" height="20" rx="6.567" fill="#F6F8FA"/></g><rect x="144.375" y="47.623" width="39.074" height="6.567" rx="3.284" fill="#E1E8F1" opacity=".9"/><path fill-rule="evenodd" clip-rule="evenodd" d="M134.25 53.47l-1.446.668a.561.561 0 01-.752-.302.614.614 0 01-.046-.302l.164-1.64-1.058-1.226a.612.612 0 01.044-.839.56.56 0 01.261-.139l1.547-.344.792-1.427a.559.559 0 01.987 0l.793 1.427 1.546.344a.595.595 0 01.439.705.602.602 0 01-.134.273l-1.057 1.226.164 1.64a.588.588 0 01-.508.652.55.55 0 01-.29-.048l-1.446-.668z" fill="#E1E8F1"/><path d="M0 15.422h98.438v312.703H6.561A6.562 6.562 0 010 321.563V15.423z" fill="#fff"/><rect x="15.75" y="179.485" width="40.059" height="8.866" rx="4.433" fill="#C0D4E3"/><rect x="15.75" y="210.336" width="44.656" height="6.567" rx="3.284" fill="#E1E8F1"/><rect x="15.75" y="198.516" width="66.984" height="6.567" rx="3.284" fill="#E1E8F1"/><g opacity=".2" filter="url(#filter6_d_1_2579)"><rect x="13.125" y="230.016" width="72" height="84" rx="6.567" fill="#C0D4E3"/></g><path fill-rule="evenodd" clip-rule="evenodd" d="M52.312 270.185a.982.982 0 01.047.049l4.328 4.806a.998.998 0 01-.09 1.428 1.04 1.04 0 01-.683.254h-12.45c-.57 0-1.031-.453-1.031-1.012a1 1 0 01.312-.725l1.766-1.686a1.048 1.048 0 011.213-.163l.717.384c.403.215.903.144 1.227-.176l3.185-3.152a1.046 1.046 0 011.459-.007zm-5.326-2a1.423 1.423 0 110 2.846 1.423 1.423 0 010-2.846z" fill="#C0D4E3"/><g clip-path="url(#clip0_1_2579)" fill="#E1E8F1"><g clip-path="url(#clip1_1_2579)" fill-rule="evenodd" clip-rule="evenodd"><path d="M18.05 114.809l-1.445.668a.561.561 0 01-.753-.301.62.62 0 01-.046-.303l.164-1.639-1.057-1.227a.612.612 0 01.043-.839.57.57 0 01.262-.139l1.547-.344.792-1.427a.557.557 0 01.779-.216.58.58 0 01.208.216l.792 1.427 1.547.344a.595.595 0 01.438.706.602.602 0 01-.133.272l-1.057 1.227.163 1.639a.588.588 0 01-.508.652.539.539 0 01-.29-.048l-1.446-.668zm0-16.418l-1.445.669a.561.561 0 01-.753-.302.617.617 0 01-.046-.303l.164-1.64-1.057-1.225a.612.612 0 01.043-.84.563.563 0 01.262-.138l1.547-.345.792-1.426a.558.558 0 01.987 0l.792 1.426 1.547.345a.594.594 0 01.438.705.603.603 0 01-.133.273l-1.057 1.226.163 1.64a.589.589 0 01-.508.652.55.55 0 01-.29-.048l-1.446-.669zm0-16.418l-1.445.669a.561.561 0 01-.753-.302.617.617 0 01-.046-.303l.164-1.639-1.057-1.226a.612.612 0 01.043-.84.563.563 0 01.262-.138l1.547-.345.792-1.426a.558.558 0 01.987 0l.792 1.426 1.547.345a.595.595 0 01.438.705.604.604 0 01-.133.273l-1.057 1.226.163 1.64a.589.589 0 01-.508.652.55.55 0 01-.29-.048l-1.446-.669z"/></g><rect x="29.543" y="108.962" width="40.059" height="6.567" rx="3.284"/><rect x="29.543" y="92.544" width="55.492" height="6.567" rx="3.284"/><rect x="29.543" y="76.126" width="45.313" height="6.567" rx="3.284"/></g><g opacity=".2" filter="url(#filter7_d_1_2579)"><rect x="13.125" y="28.547" width="26.25" height="26.25" rx="6.563" fill="#C0D4E3"/></g><path fill-rule="evenodd" clip-rule="evenodd" d="M26.25 45.515l-2.167 1.002a.841.841 0 01-1.128-.453.924.924 0 01-.069-.453l.245-2.457-1.584-1.838a.917.917 0 01.065-1.258.842.842 0 01.392-.209l2.319-.516 1.187-2.138a.836.836 0 011.168-.325.87.87 0 01.312.325l1.187 2.138 2.319.517c.461.102.756.576.657 1.057a.905.905 0 01-.2.409l-1.585 1.838.246 2.457c.049.49-.293.927-.762.978a.825.825 0 01-.435-.072l-2.167-1.002z" fill="#C0D4E3"/><rect x="45.937" y="44.013" width="25.94" height="6.567" rx="3.284" fill="#E1E8F1"/><rect x="45.938" y="32.201" width="39.074" height="6.567" rx="3.284" fill="#E1E8F1"/><path d="M0 6.563A6.562 6.562 0 016.563 0h616.875A6.562 6.562 0 01630 6.563v8.859H0v-8.86z" fill="#DDEAF3"/><circle cx="8.367" cy="8.039" r="3.117" fill="#F6F9FA"/><circle cx="16.57" cy="8.039" r="3.117" fill="#F6F9FA"/><circle cx="24.773" cy="8.039" r="3.117" fill="#F6F9FA"/><g filter="url(#filter8_d_1_2579)"><rect x="496.781" y="98.437" width="120.094" height="204.75" rx="6.563" fill="#fff"/></g><g opacity=".2" filter="url(#filter9_d_1_2579)"><rect x="509.906" y="234.281" width="25.94" height="25.94" rx="6.567" fill="#C0D4E3"/></g><path fill-rule="evenodd" clip-rule="evenodd" d="M522.906 251.127l-2.168 1.003a.842.842 0 01-1.129-.453.938.938 0 01-.069-.454l.246-2.459-1.586-1.839a.917.917 0 01.065-1.259.834.834 0 01.393-.208l2.32-.517 1.188-2.14a.838.838 0 011.481 0l1.188 2.14 2.32.517c.462.102.756.576.658 1.057a.913.913 0 01-.201.41l-1.585 1.839.245 2.459c.049.49-.292.928-.762.979a.824.824 0 01-.435-.072l-2.169-1.003z" fill="#C0D4E3"/><rect x="542.719" y="250.04" width="40.716" height="6.567" rx="3.284" fill="#E1E8F1"/><rect x="542.719" y="238.219" width="61.074" height="6.567" rx="3.284" fill="#E1E8F1"/><g filter="url(#filter10_d_1_2579)"><rect x="509.906" y="270.047" width="94" height="20" rx="6.567" fill="#32C5FF"/></g><rect x="538.059" y="276.326" width="38.089" height="6.567" rx="3.284" fill="#E1E8F1" opacity=".3"/><rect x="509.906" y="111.562" width="20.03" height="3.94" rx="1.97" fill="#E1E8F1"/><rect x="588" y="111.562" width="15.75" height="9.844" rx="4.922" fill="#E1E8F1"/><circle cx="598.875" cy="116.203" r="3.284" fill="#32C5FF"/><circle cx="43.641" cy="43.641" r="43.641" transform="matrix(-1 0 0 1 600.469 131.25)" stroke="#32C5FF" stroke-width="6.563" stroke-linecap="round" opacity=".2"/><path d="M556.828 131.25c24.102 0 43.641 19.539 43.641 43.641 0 24.102-19.539 43.64-43.641 43.64a43.438 43.438 0 01-25.555-8.261" stroke="#32C5FF" stroke-width="6.563" stroke-linecap="round"/><circle cx="33.797" cy="33.797" r="33.797" transform="matrix(-1 0 0 1 590.625 141.094)" stroke="#FFC500" stroke-width="6.563" stroke-linecap="round" opacity=".2"/><path d="M556.828 141.094c18.666 0 33.797 15.131 33.797 33.797 0 18.665-15.131 33.797-33.797 33.797-18.665 0-33.797-15.132-33.797-33.797 0-3.614.568-7.095 1.618-10.359" stroke="#FFC500" stroke-width="6.563" stroke-linecap="round"/><circle cx="22.969" cy="22.969" r="22.969" transform="matrix(-1 0 0 1 579.797 151.922)" stroke="#FE905F" stroke-width="6.563" stroke-linecap="round" opacity=".2"/><path d="M556.828 151.922c12.685 0 22.969 10.283 22.969 22.969 0 7.442-3.54 14.058-9.028 18.255" stroke="#FE905F" stroke-width="6.563" stroke-linecap="round"/><g filter="url(#filter11_d_1_2579)"><rect x="400.26" y="184.735" width="83" height="119" rx="6.567" fill="#fff"/></g><rect x="412.729" y="209.68" width="38.417" height="6.567" rx="3.284" fill="#E1E8F1"/><rect x="412.729" y="197.86" width="57.462" height="6.567" rx="3.284" fill="#E1E8F1"/><g filter="url(#filter12_d_1_2579)"><rect x="412.729" y="222.469" width="43.999" height="18.059" rx="6.567" fill="#32C5FF"/></g><rect x="426.045" y="228.186" width="17.731" height="6.567" rx="3.284" fill="#E1E8F1" opacity=".3"/><g opacity=".2" filter="url(#filter13_d_1_2579)"><rect x="411.416" y="247.406" width="60.089" height="43.014" rx="6.567" fill="#C0D4E3"/></g><path fill-rule="evenodd" clip-rule="evenodd" d="M444.072 266.139l.047.048 4.328 4.806a1 1 0 01-.09 1.429 1.043 1.043 0 01-.683.253h-12.45c-.57 0-1.032-.453-1.032-1.012 0-.273.113-.534.313-.725l1.766-1.686a1.048 1.048 0 011.213-.163l.717.384c.403.216.903.144 1.226-.176l3.186-3.152a1.045 1.045 0 011.459-.006zm-5.326-2.001a1.423 1.423 0 11-.001 2.845 1.423 1.423 0 01.001-2.845z" fill="#C0D4E3"/><g filter="url(#filter14_d_1_2579)"><rect x="111.956" y="184.735" width="274.969" height="118.453" rx="6.563" fill="#fff"/></g><rect x="369.969" y="197.86" width="3.94" height="3.94" rx="1.97" fill="#E1E8F1"/><rect x="364.063" y="197.86" width="3.94" height="3.94" rx="1.97" fill="#E1E8F1"/><rect x="358.157" y="197.86" width="3.94" height="3.94" rx="1.97" fill="#E1E8F1"/><g clip-path="url(#clip2_1_2579)"><rect x="125.016" y="249.733" width="9.851" height="3.94" rx="1.97" fill="#E1E8F1" opacity=".9"/><rect x="125.016" y="263.514" width="9.851" height="3.94" rx="1.97" fill="#E1E8F1" opacity=".9"/><rect x="125.016" y="277.296" width="9.851" height="3.94" rx="1.97" fill="#E1E8F1" opacity=".9"/><rect x="148.969" y="286.155" width="20.03" height="3.94" rx="1.97" fill="#E1E8F1" opacity=".9"/><rect x="183.094" y="286.155" width="20.03" height="3.94" rx="1.97" fill="#E1E8F1" opacity=".9"/><rect x="217.219" y="286.155" width="20.03" height="3.94" rx="1.97" fill="#E1E8F1" opacity=".9"/><rect x="251.344" y="286.155" width="20.03" height="3.94" rx="1.97" fill="#E1E8F1" opacity=".9"/><rect x="285.469" y="286.155" width="20.03" height="3.94" rx="1.97" fill="#E1E8F1" opacity=".9"/><rect x="319.594" y="286.155" width="20.03" height="3.94" rx="1.97" fill="#E1E8F1" opacity=".9"/><rect x="353.719" y="286.155" width="20.03" height="3.94" rx="1.97" fill="#E1E8F1" opacity=".9"/><rect x="125.016" y="235.952" width="9.851" height="3.94" rx="1.97" fill="#E1E8F1" opacity=".9"/><rect x="125.016" y="222.171" width="9.851" height="3.94" rx="1.97" fill="#E1E8F1" opacity=".9"/><rect x="125.016" y="208.389" width="9.851" height="3.94" rx="1.97" fill="#E1E8F1" opacity=".9"/><g filter="url(#filter15_d_1_2579)" opacity=".3"><rect x="145.031" y="259.875" width="13.125" height="16.406" rx="6.563" fill="#FFC500"/></g><g filter="url(#filter16_d_1_2579)"><rect x="159.469" y="249.113" width="13.125" height="27.234" rx="6.563" fill="#FFC500"/></g><g filter="url(#filter17_d_1_2579)" opacity=".3"><rect x="213.281" y="243.469" width="13.125" height="32.813" rx="6.563" fill="#FFC500"/></g><g filter="url(#filter18_d_1_2579)"><rect x="227.719" y="221.944" width="13.125" height="54.469" rx="6.563" fill="#FFC500"/></g><g filter="url(#filter19_d_1_2579)" opacity=".3"><rect x="179.156" y="250.031" width="13.125" height="26.25" rx="6.563" fill="#FFC500"/></g><g filter="url(#filter20_d_1_2579)"><rect x="193.594" y="229.688" width="13.125" height="46.594" rx="6.563" fill="#FFC500"/></g><g filter="url(#filter21_d_1_2579)" opacity=".3"><rect x="315.657" y="249.113" width="13.125" height="27.234" rx="6.563" fill="#FFC500"/></g><g filter="url(#filter22_d_1_2579)"><rect x="330.094" y="221.944" width="13.125" height="54.469" rx="6.563" fill="#FFC500"/></g><g filter="url(#filter25_d_1_2579)" opacity=".3"><rect x="281.532" y="243.469" width="13.125" height="32.813" rx="6.563" fill="#FFC500"/></g><g filter="url(#filter26_d_1_2579)"><rect x="295.969" y="217.219" width="13.125" height="59.063" rx="6.563" fill="#FFC500"/></g><g filter="url(#filter27_d_1_2579)" opacity=".3"><rect x="247.407" y="259.301" width="13.125" height="17.063" rx="6.563" fill="#FFC500"/></g><g filter="url(#filter28_d_1_2579)"><rect x="261.844" y="243.469" width="13.125" height="32.813" rx="6.563" fill="#FFC500"/></g><g filter="url(#filter29_d_1_2579)" opacity=".3"><rect x="349.782" y="259.301" width="13.125" height="17.063" rx="6.563" fill="#FFC500"/></g><g filter="url(#filter30_d_1_2579)"><rect x="364.219" y="233.625" width="13.125" height="42.656" rx="6.563" fill="#FFC500"/></g></g><g filter="url(#filter31_d_1_2579)"><rect x="112.127" y="98.426" width="82.031" height="73.172" rx="6.563" fill="#fff"/></g><circle opacity=".2" cx="153.194" cy="122.722" r="13.125" fill="#FE905F"/><path fill-rule="evenodd" clip-rule="evenodd" d="M152.693 128.749c-3.163-2.754-5.097-5.149-5.803-7.186-.681-1.964.283-4.135 2.153-4.849 1.571-.601 3.281.018 4.191 1.396.91-1.378 2.62-1.997 4.191-1.396 1.87.714 2.834 2.885 2.153 4.849-.69 1.992-2.556 4.328-5.598 7.007l-.204.179a.82.82 0 01-1.083 0z" fill="#FE905F"/><rect x="140.069" y="153.939" width="25.94" height="6.567" rx="3.284" fill="#E1E8F1"/><rect x="133.507" y="142.126" width="39.074" height="6.567" rx="3.284" fill="#E1E8F1"/><g filter="url(#filter32_d_1_2579)"><rect x="208.267" y="98.426" width="82.031" height="73.172" rx="6.563" fill="#fff"/></g><circle opacity=".2" cx="249.335" cy="122.722" r="13.125" fill="#FFC500"/><path fill-rule="evenodd" clip-rule="evenodd" d="M249.375 127.586l-2.745 1.27c-.546.253-1.186-.004-1.429-.573a1.178 1.178 0 01-.087-.575l.311-3.112-2.007-2.328a1.163 1.163 0 01.081-1.594c.141-.131.313-.222.498-.264l2.936-.654 1.505-2.708a1.058 1.058 0 011.479-.411c.164.098.3.24.395.411l1.504 2.708 2.937.654c.584.131.957.73.832 1.339-.04.193-.127.372-.253.519l-2.007 2.328.31 3.112c.062.62-.37 1.175-.964 1.239a1.05 1.05 0 01-.552-.091l-2.744-1.27z" fill="#FFC500"/><rect x="236.21" y="153.939" width="25.94" height="6.567" rx="3.284" fill="#E1E8F1"/><rect x="229.647" y="142.126" width="39.074" height="6.567" rx="3.284" fill="#E1E8F1"/><g filter="url(#filter33_d_1_2579)"><rect x="304.408" y="98.426" width="82.031" height="73.172" rx="6.563" fill="#fff"/></g><circle opacity=".2" cx="345.476" cy="122.722" r="13.125" fill="#66C109"/><path d="M342.087 124.855c0 1.18.933 2.129 2.078 2.129h2.34c.995 0 1.804-.827 1.804-1.862 0-1.107-.498-1.509-1.232-1.764l-3.746-1.278c-.734-.256-1.231-.645-1.231-1.765 0-1.022.808-1.862 1.804-1.862h2.339c1.145 0 2.078.949 2.078 2.13m-3.234-3.114v10.5" stroke="#66C109" stroke-width="2.2" stroke-linecap="round" stroke-linejoin="round"/><rect x="332.351" y="153.939" width="25.94" height="6.567" rx="3.284" fill="#E1E8F1"/><rect x="325.788" y="142.126" width="39.074" height="6.567" rx="3.284" fill="#E1E8F1"/><g filter="url(#filter34_d_1_2579)"><rect x="400.549" y="98.426" width="82.031" height="73.172" rx="6.563" fill="#fff"/></g><circle opacity=".2" cx="441.616" cy="122.722" r="13.125" fill="#32C5FF"/><path fill-rule="evenodd" clip-rule="evenodd" d="M441.736 123.207c2.944 0 5.331 1.898 5.331 2.873 0 .975-2.387 2.873-5.331 2.873-2.943 0-5.33-1.898-5.33-2.873 0-.975 2.387-2.873 5.33-2.873zm.001-6.722a2.875 2.875 0 110 5.75 2.875 2.875 0 010-5.75z" fill="#32C5FF"/><rect x="428.491" y="153.939" width="25.94" height="6.567" rx="3.284" fill="#E1E8F1"/><rect x="421.929" y="142.126" width="39.074" height="6.567" rx="3.284" fill="#E1E8F1"/></g><defs><filter id="filter0_d_1_2579" x="0" y="0" width="630" height="366.828" filterUnits="userSpaceOnUse" color-interpolation-filters="sRGB"><feFlood flood-opacity="0" result="BackgroundImageFix"/><feColorMatrix in="SourceAlpha" values="0 0 0 0 0 0 0 0 0 0 0 0 0 0 0 0 0 0 127 0" result="hardAlpha"/><feMorphology radius="40" in="SourceAlpha" result="effect1_dropShadow_1_2579"/><feOffset dy="20"/><feGaussianBlur stdDeviation="20"/><feColorMatrix values="0 0 0 0 0.858824 0 0 0 0 0.890196 0 0 0 0 0.929412 0 0 0 0.4 0"/><feBlend in2="BackgroundImageFix" result="effect1_dropShadow_1_2579"/><feBlend in="SourceGraphic" in2="effect1_dropShadow_1_2579" result="shape"/></filter><filter id="filter1_d_1_2579" x="0" y="0" width="630" height="348.125" filterUnits="userSpaceOnUse" color-interpolation-filters="sRGB"><feFlood flood-opacity="0" result="BackgroundImageFix"/><feColorMatrix in="SourceAlpha" values="0 0 0 0 0 0 0 0 0 0 0 0 0 0 0 0 0 0 127 0" result="hardAlpha"/><feMorphology radius="40" in="SourceAlpha" result="effect1_dropShadow_1_2579"/><feOffset dy="20"/><feGaussianBlur stdDeviation="20"/><feColorMatrix values="0 0 0 0 0.858824 0 0 0 0 0.890196 0 0 0 0 0.929412 0 0 0 0.4 0"/><feBlend in2="BackgroundImageFix" result="effect1_dropShadow_1_2579"/><feBlend in="SourceGraphic" in2="effect1_dropShadow_1_2579" result="shape"/></filter><filter id="filter2_d_1_2579" x="111.562" y="28.547" width="505.313" height="51.516" filterUnits="userSpaceOnUse" color-interpolation-filters="sRGB"><feFlood flood-opacity="0" result="BackgroundImageFix"/><feColorMatrix in="SourceAlpha" values="0 0 0 0 0 0 0 0 0 0 0 0 0 0 0 0 0 0 127 0" result="hardAlpha"/><feMorphology radius="13.125" in="SourceAlpha" result="effect1_dropShadow_1_2579"/><feOffset dy="6.563"/><feGaussianBlur stdDeviation="6.563"/><feColorMatrix values="0 0 0 0 0.858824 0 0 0 0 0.890196 0 0 0 0 0.929412 0 0 0 0.4 0"/><feBlend in2="BackgroundImageFix" result="effect1_dropShadow_1_2579"/><feBlend in="SourceGraphic" in2="effect1_dropShadow_1_2579" result="shape"/></filter><filter id="filter3_d_1_2579" x="111.562" y="28.547" width="505.313" height="51.516" filterUnits="userSpaceOnUse" color-interpolation-filters="sRGB"><feFlood flood-opacity="0" result="BackgroundImageFix"/><feColorMatrix in="SourceAlpha" values="0 0 0 0 0 0 0 0 0 0 0 0 0 0 0 0 0 0 127 0" result="hardAlpha"/><feMorphology radius="13.125" in="SourceAlpha" result="effect1_dropShadow_1_2579"/><feOffset dy="6.563"/><feGaussianBlur stdDeviation="6.563"/><feColorMatrix values="0 0 0 0 0.858824 0 0 0 0 0.890196 0 0 0 0 0.929412 0 0 0 0.4 0"/><feBlend in2="BackgroundImageFix" result="effect1_dropShadow_1_2579"/><feBlend in="SourceGraphic" in2="effect1_dropShadow_1_2579" result="shape"/></filter><filter id="filter4_d_1_2579" x="584.063" y="41.344" width="20" height="40" filterUnits="userSpaceOnUse" color-interpolation-filters="sRGB"><feFlood flood-opacity="0" result="BackgroundImageFix"/><feColorMatrix in="SourceAlpha" values="0 0 0 0 0 0 0 0 0 0 0 0 0 0 0 0 0 0 127 0" result="hardAlpha"/><feMorphology radius="40" in="SourceAlpha" result="effect1_dropShadow_1_2579"/><feOffset dy="20"/><feGaussianBlur stdDeviation="20"/><feColorMatrix values="0 0 0 0 0.858824 0 0 0 0 0.890196 0 0 0 0 0.929412 0 0 0 0.4 0"/><feBlend in2="BackgroundImageFix" result="effect1_dropShadow_1_2579"/><feBlend in="SourceGraphic" in2="effect1_dropShadow_1_2579" result="shape"/></filter><filter id="filter5_d_1_2579" x="124.688" y="41.344" width="204" height="40" filterUnits="userSpaceOnUse" color-interpolation-filters="sRGB"><feFlood flood-opacity="0" result="BackgroundImageFix"/><feColorMatrix in="SourceAlpha" values="0 0 0 0 0 0 0 0 0 0 0 0 0 0 0 0 0 0 127 0" result="hardAlpha"/><feMorphology radius="40" in="SourceAlpha" result="effect1_dropShadow_1_2579"/><feOffset dy="20"/><feGaussianBlur stdDeviation="20"/><feColorMatrix values="0 0 0 0 0.858824 0 0 0 0 0.890196 0 0 0 0 0.929412 0 0 0 0.4 0"/><feBlend in2="BackgroundImageFix" result="effect1_dropShadow_1_2579"/><feBlend in="SourceGraphic" in2="effect1_dropShadow_1_2579" result="shape"/></filter><filter id="filter6_d_1_2579" x="13.125" y="230.016" width="72.238" height="104.059" filterUnits="userSpaceOnUse" color-interpolation-filters="sRGB"><feFlood flood-opacity="0" result="BackgroundImageFix"/><feColorMatrix in="SourceAlpha" values="0 0 0 0 0 0 0 0 0 0 0 0 0 0 0 0 0 0 127 0" result="hardAlpha"/><feMorphology radius="40" in="SourceAlpha" result="effect1_dropShadow_1_2579"/><feOffset dy="20"/><feGaussianBlur stdDeviation="20"/><feColorMatrix values="0 0 0 0 0.858824 0 0 0 0 0.890196 0 0 0 0 0.929412 0 0 0 0.4 0"/><feBlend in2="BackgroundImageFix" result="effect1_dropShadow_1_2579"/><feBlend in="SourceGraphic" in2="effect1_dropShadow_1_2579" result="shape"/></filter><filter id="filter7_d_1_2579" x="13.125" y="28.547" width="26.25" height="32.813" filterUnits="userSpaceOnUse" color-interpolation-filters="sRGB"><feFlood flood-opacity="0" result="BackgroundImageFix"/><feColorMatrix in="SourceAlpha" values="0 0 0 0 0 0 0 0 0 0 0 0 0 0 0 0 0 0 127 0" result="hardAlpha"/><feMorphology radius="13.125" in="SourceAlpha" result="effect1_dropShadow_1_2579"/><feOffset dy="6.563"/><feGaussianBlur stdDeviation="6.563"/><feColorMatrix values="0 0 0 0 0.858824 0 0 0 0 0.890196 0 0 0 0 0.929412 0 0 0 0.4 0"/><feBlend in2="BackgroundImageFix" result="effect1_dropShadow_1_2579"/><feBlend in="SourceGraphic" in2="effect1_dropShadow_1_2579" result="shape"/></filter><filter id="filter8_d_1_2579" x="496.781" y="98.437" width="120.094" height="254.953" filterUnits="userSpaceOnUse" color-interpolation-filters="sRGB"><feFlood flood-opacity="0" result="BackgroundImageFix"/><feColorMatrix in="SourceAlpha" values="0 0 0 0 0 0 0 0 0 0 0 0 0 0 0 0 0 0 127 0" result="hardAlpha"/><feMorphology radius="13.125" in="SourceAlpha" result="effect1_dropShadow_1_2579"/><feOffset dy="6.563"/><feGaussianBlur stdDeviation="6.563"/><feColorMatrix values="0 0 0 0 0.858824 0 0 0 0 0.890196 0 0 0 0 0.929412 0 0 0 0.4 0"/><feBlend in2="BackgroundImageFix" result="effect1_dropShadow_1_2579"/><feBlend in="SourceGraphic" in2="effect1_dropShadow_1_2579" result="shape"/></filter><filter id="filter9_d_1_2579" x="509.906" y="234.281" width="26" height="46" filterUnits="userSpaceOnUse" color-interpolation-filters="sRGB"><feFlood flood-opacity="0" result="BackgroundImageFix"/><feColorMatrix in="SourceAlpha" values="0 0 0 0 0 0 0 0 0 0 0 0 0 0 0 0 0 0 127 0" result="hardAlpha"/><feMorphology radius="40" in="SourceAlpha" result="effect1_dropShadow_1_2579"/><feOffset dy="20"/><feGaussianBlur stdDeviation="20"/><feColorMatrix values="0 0 0 0 0.858824 0 0 0 0 0.890196 0 0 0 0 0.929412 0 0 0 0.4 0"/><feBlend in2="BackgroundImageFix" result="effect1_dropShadow_1_2579"/><feBlend in="SourceGraphic" in2="effect1_dropShadow_1_2579" result="shape"/></filter><filter id="filter10_d_1_2579" x="509.906" y="270.047" width="94" height="40" filterUnits="userSpaceOnUse" color-interpolation-filters="sRGB"><feFlood flood-opacity="0" result="BackgroundImageFix"/><feColorMatrix in="SourceAlpha" values="0 0 0 0 0 0 0 0 0 0 0 0 0 0 0 0 0 0 127 0" result="hardAlpha"/><feMorphology radius="40" in="SourceAlpha" result="effect1_dropShadow_1_2579"/><feOffset dy="20"/><feGaussianBlur stdDeviation="20"/><feColorMatrix values="0 0 0 0 0.858824 0 0 0 0 0.890196 0 0 0 0 0.929412 0 0 0 0.4 0"/><feBlend in2="BackgroundImageFix" result="effect1_dropShadow_1_2579"/><feBlend in="SourceGraphic" in2="effect1_dropShadow_1_2579" result="shape"/></filter><filter id="filter11_d_1_2579" x="400.26" y="184.735" width="83" height="139" filterUnits="userSpaceOnUse" color-interpolation-filters="sRGB"><feFlood flood-opacity="0" result="BackgroundImageFix"/><feColorMatrix in="SourceAlpha" values="0 0 0 0 0 0 0 0 0 0 0 0 0 0 0 0 0 0 127 0" result="hardAlpha"/><feMorphology radius="40" in="SourceAlpha" result="effect1_dropShadow_1_2579"/><feOffset dy="20"/><feGaussianBlur stdDeviation="20"/><feColorMatrix values="0 0 0 0 0.858824 0 0 0 0 0.890196 0 0 0 0 0.929412 0 0 0 0.4 0"/><feBlend in2="BackgroundImageFix" result="effect1_dropShadow_1_2579"/><feBlend in="SourceGraphic" in2="effect1_dropShadow_1_2579" result="shape"/></filter><filter id="filter12_d_1_2579" x="412.729" y="222.469" width="44" height="38.06" filterUnits="userSpaceOnUse" color-interpolation-filters="sRGB"><feFlood flood-opacity="0" result="BackgroundImageFix"/><feColorMatrix in="SourceAlpha" values="0 0 0 0 0 0 0 0 0 0 0 0 0 0 0 0 0 0 127 0" result="hardAlpha"/><feMorphology radius="40" in="SourceAlpha" result="effect1_dropShadow_1_2579"/><feOffset dy="20"/><feGaussianBlur stdDeviation="20"/><feColorMatrix values="0 0 0 0 0.858824 0 0 0 0 0.890196 0 0 0 0 0.929412 0 0 0 0.4 0"/><feBlend in2="BackgroundImageFix" result="effect1_dropShadow_1_2579"/><feBlend in="SourceGraphic" in2="effect1_dropShadow_1_2579" result="shape"/></filter><filter id="filter13_d_1_2579" x="411.416" y="247.406" width="60.089" height="63.014" filterUnits="userSpaceOnUse" color-interpolation-filters="sRGB"><feFlood flood-opacity="0" result="BackgroundImageFix"/><feColorMatrix in="SourceAlpha" values="0 0 0 0 0 0 0 0 0 0 0 0 0 0 0 0 0 0 127 0" result="hardAlpha"/><feMorphology radius="40" in="SourceAlpha" result="effect1_dropShadow_1_2579"/><feOffset dy="20"/><feGaussianBlur stdDeviation="20"/><feColorMatrix values="0 0 0 0 0.858824 0 0 0 0 0.890196 0 0 0 0 0.929412 0 0 0 0.4 0"/><feBlend in2="BackgroundImageFix" result="effect1_dropShadow_1_2579"/><feBlend in="SourceGraphic" in2="effect1_dropShadow_1_2579" result="shape"/></filter><filter id="filter14_d_1_2579" x="111.956" y="184.735" width="274.983" height="125.016" filterUnits="userSpaceOnUse" color-interpolation-filters="sRGB"><feFlood flood-opacity="0" result="BackgroundImageFix"/><feColorMatrix in="SourceAlpha" values="0 0 0 0 0 0 0 0 0 0 0 0 0 0 0 0 0 0 127 0" result="hardAlpha"/><feMorphology radius="13.125" in="SourceAlpha" result="effect1_dropShadow_1_2579"/><feOffset dy="6.563"/><feGaussianBlur stdDeviation="6.563"/><feColorMatrix values="0 0 0 0 0.858824 0 0 0 0 0.890196 0 0 0 0 0.929412 0 0 0 0.4 0"/><feBlend in2="BackgroundImageFix" result="effect1_dropShadow_1_2579"/><feBlend in="SourceGraphic" in2="effect1_dropShadow_1_2579" result="shape"/></filter><filter id="filter15_d_1_2579" x="145.031" y="259.875" width="13.125" height="22.969" filterUnits="userSpaceOnUse" color-interpolation-filters="sRGB"><feFlood flood-opacity="0" result="BackgroundImageFix"/><feColorMatrix in="SourceAlpha" values="0 0 0 0 0 0 0 0 0 0 0 0 0 0 0 0 0 0 127 0" result="hardAlpha"/><feMorphology radius="13.125" in="SourceAlpha" result="effect1_dropShadow_1_2579"/><feOffset dy="6.563"/><feGaussianBlur stdDeviation="6.563"/><feColorMatrix values="0 0 0 0 0.858824 0 0 0 0 0.890196 0 0 0 0 0.929412 0 0 0 0.4 0"/><feBlend in2="BackgroundImageFix" result="effect1_dropShadow_1_2579"/><feBlend in="SourceGraphic" in2="effect1_dropShadow_1_2579" result="shape"/></filter><filter id="filter16_d_1_2579" x="159.469" y="249.113" width="13.125" height="33.797" filterUnits="userSpaceOnUse" color-interpolation-filters="sRGB"><feFlood flood-opacity="0" result="BackgroundImageFix"/><feColorMatrix in="SourceAlpha" values="0 0 0 0 0 0 0 0 0 0 0 0 0 0 0 0 0 0 127 0" result="hardAlpha"/><feMorphology radius="13.125" in="SourceAlpha" result="effect1_dropShadow_1_2579"/><feOffset dy="6.563"/><feGaussianBlur stdDeviation="6.563"/><feColorMatrix values="0 0 0 0 0.858824 0 0 0 0 0.890196 0 0 0 0 0.929412 0 0 0 0.4 0"/><feBlend in2="BackgroundImageFix" result="effect1_dropShadow_1_2579"/><feBlend in="SourceGraphic" in2="effect1_dropShadow_1_2579" result="shape"/></filter><filter id="filter17_d_1_2579" x="213.281" y="243.469" width="13.125" height="39.375" filterUnits="userSpaceOnUse" color-interpolation-filters="sRGB"><feFlood flood-opacity="0" result="BackgroundImageFix"/><feColorMatrix in="SourceAlpha" values="0 0 0 0 0 0 0 0 0 0 0 0 0 0 0 0 0 0 127 0" result="hardAlpha"/><feMorphology radius="13.125" in="SourceAlpha" result="effect1_dropShadow_1_2579"/><feOffset dy="6.563"/><feGaussianBlur stdDeviation="6.563"/><feColorMatrix values="0 0 0 0 0.858824 0 0 0 0 0.890196 0 0 0 0 0.929412 0 0 0 0.4 0"/><feBlend in2="BackgroundImageFix" result="effect1_dropShadow_1_2579"/><feBlend in="SourceGraphic" in2="effect1_dropShadow_1_2579" result="shape"/></filter><filter id="filter18_d_1_2579" x="227.719" y="221.944" width="13.125" height="61.031" filterUnits="userSpaceOnUse" color-interpolation-filters="sRGB"><feFlood flood-opacity="0" result="BackgroundImageFix"/><feColorMatrix in="SourceAlpha" values="0 0 0 0 0 0 0 0 0 0 0 0 0 0 0 0 0 0 127 0" result="hardAlpha"/><feMorphology radius="13.125" in="SourceAlpha" result="effect1_dropShadow_1_2579"/><feOffset dy="6.563"/><feGaussianBlur stdDeviation="6.563"/><feColorMatrix values="0 0 0 0 0.858824 0 0 0 0 0.890196 0 0 0 0 0.929412 0 0 0 0.4 0"/><feBlend in2="BackgroundImageFix" result="effect1_dropShadow_1_2579"/><feBlend in="SourceGraphic" in2="effect1_dropShadow_1_2579" result="shape"/></filter><filter id="filter19_d_1_2579" x="179.156" y="221.944" width="13.125" height="60.9" filterUnits="userSpaceOnUse" color-interpolation-filters="sRGB"><feFlood flood-opacity="0" result="BackgroundImageFix"/><feColorMatrix in="SourceAlpha" values="0 0 0 0 0 0 0 0 0 0 0 0 0 0 0 0 0 0 127 0" result="hardAlpha"/><feMorphology radius="13.125" in="SourceAlpha" result="effect1_dropShadow_1_2579"/><feOffset dy="6.563"/><feGaussianBlur stdDeviation="6.563"/><feColorMatrix values="0 0 0 0 0.858824 0 0 0 0 0.890196 0 0 0 0 0.929412 0 0 0 0.4 0"/><feBlend in2="BackgroundImageFix" result="effect1_dropShadow_1_2579"/><feBlend in="SourceGraphic" in2="effect1_dropShadow_1_2579" result="shape"/></filter><filter id="filter20_d_1_2579" x="193.594" y="229.688" width="13.125" height="53.156" filterUnits="userSpaceOnUse" color-interpolation-filters="sRGB"><feFlood flood-opacity="0" result="BackgroundImageFix"/><feColorMatrix in="SourceAlpha" values="0 0 0 0 0 0 0 0 0 0 0 0 0 0 0 0 0 0 127 0" result="hardAlpha"/><feMorphology radius="13.125" in="SourceAlpha" result="effect1_dropShadow_1_2579"/><feOffset dy="6.563"/><feGaussianBlur stdDeviation="6.563"/><feColorMatrix values="0 0 0 0 0.858824 0 0 0 0 0.890196 0 0 0 0 0.929412 0 0 0 0.4 0"/><feBlend in2="BackgroundImageFix" result="effect1_dropShadow_1_2579"/><feBlend in="SourceGraphic" in2="effect1_dropShadow_1_2579" result="shape"/></filter><filter id="filter21_d_1_2579" x="315.657" y="249.113" width="13.125" height="33.797" filterUnits="userSpaceOnUse" color-interpolation-filters="sRGB"><feFlood flood-opacity="0" result="BackgroundImageFix"/><feColorMatrix in="SourceAlpha" values="0 0 0 0 0 0 0 0 0 0 0 0 0 0 0 0 0 0 127 0" result="hardAlpha"/><feMorphology radius="13.125" in="SourceAlpha" result="effect1_dropShadow_1_2579"/><feOffset dy="6.563"/><feGaussianBlur stdDeviation="6.563"/><feColorMatrix values="0 0 0 0 0.858824 0 0 0 0 0.890196 0 0 0 0 0.929412 0 0 0 0.4 0"/><feBlend in2="BackgroundImageFix" result="effect1_dropShadow_1_2579"/><feBlend in="SourceGraphic" in2="effect1_dropShadow_1_2579" result="shape"/></filter><filter id="filter22_d_1_2579" x="330.094" y="221.944" width="13.125" height="61.031" filterUnits="userSpaceOnUse" color-interpolation-filters="sRGB"><feFlood flood-opacity="0" result="BackgroundImageFix"/><feColorMatrix in="SourceAlpha" values="0 0 0 0 0 0 0 0 0 0 0 0 0 0 0 0 0 0 127 0" result="hardAlpha"/><feMorphology radius="13.125" in="SourceAlpha" result="effect1_dropShadow_1_2579"/><feOffset dy="6.563"/><feGaussianBlur stdDeviation="6.563"/><feColorMatrix values="0 0 0 0 0.858824 0 0 0 0 0.890196 0 0 0 0 0.929412 0 0 0 0.4 0"/><feBlend in2="BackgroundImageFix" result="effect1_dropShadow_1_2579"/><feBlend in="SourceGraphic" in2="effect1_dropShadow_1_2579" result="shape"/></filter><filter id="filter25_d_1_2579" x="281.532" y="243.469" width="13.125" height="39.375" filterUnits="userSpaceOnUse" color-interpolation-filters="sRGB"><feFlood flood-opacity="0" result="BackgroundImageFix"/><feColorMatrix in="SourceAlpha" values="0 0 0 0 0 0 0 0 0 0 0 0 0 0 0 0 0 0 127 0" result="hardAlpha"/><feMorphology radius="13.125" in="SourceAlpha" result="effect1_dropShadow_1_2579"/><feOffset dy="6.563"/><feGaussianBlur stdDeviation="6.563"/><feColorMatrix values="0 0 0 0 0.858824 0 0 0 0 0.890196 0 0 0 0 0.929412 0 0 0 0.4 0"/><feBlend in2="BackgroundImageFix" result="effect1_dropShadow_1_2579"/><feBlend in="SourceGraphic" in2="effect1_dropShadow_1_2579" result="shape"/></filter><filter id="filter26_d_1_2579" x="295.969" y="217.219" width="13.125" height="65.625" filterUnits="userSpaceOnUse" color-interpolation-filters="sRGB"><feFlood flood-opacity="0" result="BackgroundImageFix"/><feColorMatrix in="SourceAlpha" values="0 0 0 0 0 0 0 0 0 0 0 0 0 0 0 0 0 0 127 0" result="hardAlpha"/><feMorphology radius="13.125" in="SourceAlpha" result="effect1_dropShadow_1_2579"/><feOffset dy="6.563"/><feGaussianBlur stdDeviation="6.563"/><feColorMatrix values="0 0 0 0 0.858824 0 0 0 0 0.890196 0 0 0 0 0.929412 0 0 0 0.4 0"/><feBlend in2="BackgroundImageFix" result="effect1_dropShadow_1_2579"/><feBlend in="SourceGraphic" in2="effect1_dropShadow_1_2579" result="shape"/></filter><filter id="filter27_d_1_2579" x="247.407" y="259.301" width="13.125" height="23.625" filterUnits="userSpaceOnUse" color-interpolation-filters="sRGB"><feFlood flood-opacity="0" result="BackgroundImageFix"/><feColorMatrix in="SourceAlpha" values="0 0 0 0 0 0 0 0 0 0 0 0 0 0 0 0 0 0 127 0" result="hardAlpha"/><feMorphology radius="13.125" in="SourceAlpha" result="effect1_dropShadow_1_2579"/><feOffset dy="6.563"/><feGaussianBlur stdDeviation="6.563"/><feColorMatrix values="0 0 0 0 0.858824 0 0 0 0 0.890196 0 0 0 0 0.929412 0 0 0 0.4 0"/><feBlend in2="BackgroundImageFix" result="effect1_dropShadow_1_2579"/><feBlend in="SourceGraphic" in2="effect1_dropShadow_1_2579" result="shape"/></filter><filter id="filter28_d_1_2579" x="261.844" y="243.469" width="13.125" height="39.375" filterUnits="userSpaceOnUse" color-interpolation-filters="sRGB"><feFlood flood-opacity="0" result="BackgroundImageFix"/><feColorMatrix in="SourceAlpha" values="0 0 0 0 0 0 0 0 0 0 0 0 0 0 0 0 0 0 127 0" result="hardAlpha"/><feMorphology radius="13.125" in="SourceAlpha" result="effect1_dropShadow_1_2579"/><feOffset dy="6.563"/><feGaussianBlur stdDeviation="6.563"/><feColorMatrix values="0 0 0 0 0.858824 0 0 0 0 0.890196 0 0 0 0 0.929412 0 0 0 0.4 0"/><feBlend in2="BackgroundImageFix" result="effect1_dropShadow_1_2579"/><feBlend in="SourceGraphic" in2="effect1_dropShadow_1_2579" result="shape"/></filter><filter id="filter29_d_1_2579" x="349.782" y="259.301" width="13.125" height="23.625" filterUnits="userSpaceOnUse" color-interpolation-filters="sRGB"><feFlood flood-opacity="0" result="BackgroundImageFix"/><feColorMatrix in="SourceAlpha" values="0 0 0 0 0 0 0 0 0 0 0 0 0 0 0 0 0 0 127 0" result="hardAlpha"/><feMorphology radius="13.125" in="SourceAlpha" result="effect1_dropShadow_1_2579"/><feOffset dy="6.563"/><feGaussianBlur stdDeviation="6.563"/><feColorMatrix values="0 0 0 0 0.858824 0 0 0 0 0.890196 0 0 0 0 0.929412 0 0 0 0.4 0"/><feBlend in2="BackgroundImageFix" result="effect1_dropShadow_1_2579"/><feBlend in="SourceGraphic" in2="effect1_dropShadow_1_2579" result="shape"/></filter><filter id="filter30_d_1_2579" x="364.219" y="233.625" width="13.125" height="49.219" filterUnits="userSpaceOnUse" color-interpolation-filters="sRGB"><feFlood flood-opacity="0" result="BackgroundImageFix"/><feColorMatrix in="SourceAlpha" values="0 0 0 0 0 0 0 0 0 0 0 0 0 0 0 0 0 0 127 0" result="hardAlpha"/><feMorphology radius="13.125" in="SourceAlpha" result="effect1_dropShadow_1_2579"/><feOffset dy="6.563"/><feGaussianBlur stdDeviation="6.563"/><feColorMatrix values="0 0 0 0 0.858824 0 0 0 0 0.890196 0 0 0 0 0.929412 0 0 0 0.4 0"/><feBlend in2="BackgroundImageFix" result="effect1_dropShadow_1_2579"/><feBlend in="SourceGraphic" in2="effect1_dropShadow_1_2579" result="shape"/></filter><filter id="filter31_d_1_2579" x="112.127" y="98.426" width="82.135" height="79.788" filterUnits="userSpaceOnUse" color-interpolation-filters="sRGB"><feFlood flood-opacity="0" result="BackgroundImageFix"/><feColorMatrix in="SourceAlpha" values="0 0 0 0 0 0 0 0 0 0 0 0 0 0 0 0 0 0 127 0" result="hardAlpha"/><feMorphology radius="13.125" in="SourceAlpha" result="effect1_dropShadow_1_2579"/><feOffset dy="6.563"/><feGaussianBlur stdDeviation="6.563"/><feColorMatrix values="0 0 0 0 0.858824 0 0 0 0 0.890196 0 0 0 0 0.929412 0 0 0 0.4 0"/><feBlend in2="BackgroundImageFix" result="effect1_dropShadow_1_2579"/><feBlend in="SourceGraphic" in2="effect1_dropShadow_1_2579" result="shape"/></filter><filter id="filter32_d_1_2579" x="208.267" y="98.426" width="82.135" height="79.788" filterUnits="userSpaceOnUse" color-interpolation-filters="sRGB"><feFlood flood-opacity="0" result="BackgroundImageFix"/><feColorMatrix in="SourceAlpha" values="0 0 0 0 0 0 0 0 0 0 0 0 0 0 0 0 0 0 127 0" result="hardAlpha"/><feMorphology radius="13.125" in="SourceAlpha" result="effect1_dropShadow_1_2579"/><feOffset dy="6.563"/><feGaussianBlur stdDeviation="6.563"/><feColorMatrix values="0 0 0 0 0.858824 0 0 0 0 0.890196 0 0 0 0 0.929412 0 0 0 0.4 0"/><feBlend in2="BackgroundImageFix" result="effect1_dropShadow_1_2579"/><feBlend in="SourceGraphic" in2="effect1_dropShadow_1_2579" result="shape"/></filter><filter id="filter33_d_1_2579" x="304.408" y="98.426" width="82.135" height="79.788" filterUnits="userSpaceOnUse" color-interpolation-filters="sRGB"><feFlood flood-opacity="0" result="BackgroundImageFix"/><feColorMatrix in="SourceAlpha" values="0 0 0 0 0 0 0 0 0 0 0 0 0 0 0 0 0 0 127 0" result="hardAlpha"/><feMorphology radius="13.125" in="SourceAlpha" result="effect1_dropShadow_1_2579"/><feOffset dy="6.563"/><feGaussianBlur stdDeviation="6.563"/><feColorMatrix values="0 0 0 0 0.858824 0 0 0 0 0.890196 0 0 0 0 0.929412 0 0 0 0.4 0"/><feBlend in2="BackgroundImageFix" result="effect1_dropShadow_1_2579"/><feBlend in="SourceGraphic" in2="effect1_dropShadow_1_2579" result="shape"/></filter><filter id="filter34_d_1_2579" x="400.549" y="98.426" width="82.136" height="79.788" filterUnits="userSpaceOnUse" color-interpolation-filters="sRGB"><feFlood flood-opacity="0" result="BackgroundImageFix"/><feColorMatrix in="SourceAlpha" values="0 0 0 0 0 0 0 0 0 0 0 0 0 0 0 0 0 0 127 0" result="hardAlpha"/><feMorphology radius="13.125" in="SourceAlpha" result="effect1_dropShadow_1_2579"/><feOffset dy="6.563"/><feGaussianBlur stdDeviation="6.563"/><feColorMatrix values="0 0 0 0 0.858824 0 0 0 0 0.890196 0 0 0 0 0.929412 0 0 0 0.4 0"/><feBlend in2="BackgroundImageFix" result="effect1_dropShadow_1_2579"/><feBlend in="SourceGraphic" in2="effect1_dropShadow_1_2579" result="shape"/></filter><clipPath id="clip0_1_2579"><path fill="#fff" transform="translate(13.125 74.484)" d="M0 0h72.238v43.343H0z"/></clipPath><clipPath id="clip1_1_2579"><path fill="#fff" transform="translate(13.125 74.484)" d="M0 0h9.851v157.61H0z"/></clipPath><clipPath id="clip2_1_2579"><path fill="#fff" transform="translate(125.016 208.359)" d="M0 0h252.328v81.703H0z"/></clipPath></defs></svg>