<svg width="630" height="349" fill="none" xmlns="http://www.w3.org/2000/svg"><g filter="url(#filter0_d_1_1997)"><rect width="630" height="328.125" rx="6.563" fill="#F6F9FA"/><g filter="url(#filter1_d_1_1997)"><g filter="url(#filter2_d_1_1997)"><rect x="111.562" y="28.547" width="505.313" height="44.953" rx="6.563" fill="#fff"/></g></g><g opacity=".2" filter="url(#filter3_d_1_1997)"><rect x="584.063" y="41.344" width="20" height="20" rx="6.567" fill="#C0D4E3"/></g><path fill-rule="evenodd" clip-rule="evenodd" d="M594.334 51.985c2.17 0 3.93 1.4 3.93 2.118 0 .72-1.76 2.119-3.93 2.119-2.171 0-3.931-1.4-3.931-2.119 0-.719 1.76-2.118 3.931-2.118zm0-4.957a2.12 2.12 0 11-.001 4.24 2.12 2.12 0 01.001-4.24z" fill="#C0D4E3"/><g filter="url(#filter4_d_1_1997)"><rect x="124.688" y="41.344" width="204" height="20" rx="6.567" fill="#F6F8FA"/></g><rect x="144.375" y="47.623" width="39.074" height="6.567" rx="3.284" fill="#E1E8F1" opacity=".9"/><path fill-rule="evenodd" clip-rule="evenodd" d="M134.25 53.47l-1.446.668a.56.56 0 01-.752-.302.614.614 0 01-.046-.302l.163-1.64-1.057-1.226a.613.613 0 01.043-.839.569.569 0 01.262-.139l1.547-.344.792-1.427a.558.558 0 01.987 0l.793 1.427 1.546.344a.595.595 0 01.439.705.602.602 0 01-.134.273l-1.057 1.226.164 1.64a.589.589 0 01-.508.652.555.555 0 01-.291-.048l-1.445-.668z" fill="#E1E8F1"/><path d="M0 15.422h98.438v312.703H6.561A6.562 6.562 0 010 321.563V15.423z" fill="#fff"/><rect x="15.75" y="179.485" width="40.059" height="8.866" rx="4.433" fill="#C0D4E3"/><rect x="15.75" y="210.336" width="44.656" height="6.567" rx="3.284" fill="#E1E8F1"/><rect x="15.75" y="198.516" width="66.984" height="6.567" rx="3.284" fill="#E1E8F1"/><g opacity=".2" filter="url(#filter5_d_1_1997)"><rect x="13.125" y="230.016" width="72" height="84" rx="6.567" fill="#C0D4E3"/></g><path fill-rule="evenodd" clip-rule="evenodd" d="M52.312 270.185a.982.982 0 01.047.049l4.328 4.806a.998.998 0 01-.09 1.428 1.04 1.04 0 01-.683.254h-12.45c-.57 0-1.031-.453-1.031-1.012a1 1 0 01.312-.725l1.766-1.686a1.048 1.048 0 011.213-.163l.717.384c.403.215.903.144 1.227-.176l3.185-3.152a1.046 1.046 0 011.459-.007zm-5.326-2a1.423 1.423 0 110 2.846 1.423 1.423 0 010-2.846z" fill="#C0D4E3"/><g clip-path="url(#clip0_1_1997)" fill="#E1E8F1"><g clip-path="url(#clip1_1_1997)" fill-rule="evenodd" clip-rule="evenodd"><path d="M18.05 114.809l-1.445.668a.56.56 0 01-.753-.301.618.618 0 01-.046-.303l.164-1.639-1.057-1.227a.612.612 0 01.043-.839.568.568 0 01.262-.139l1.547-.344.792-1.427a.557.557 0 01.779-.216.58.58 0 01.208.216l.792 1.427 1.547.344a.595.595 0 01.438.706.602.602 0 01-.133.272l-1.057 1.227.163 1.639a.588.588 0 01-.508.652.539.539 0 01-.29-.048l-1.446-.668zm0-16.418l-1.445.669a.561.561 0 01-.753-.302.616.616 0 01-.046-.303l.164-1.64-1.057-1.225a.612.612 0 01.043-.84.562.562 0 01.262-.138l1.547-.345.792-1.426a.558.558 0 01.987 0l.792 1.426 1.547.345a.594.594 0 01.438.705.603.603 0 01-.133.273l-1.057 1.226.163 1.64a.589.589 0 01-.508.652.55.55 0 01-.29-.048l-1.446-.669zm0-16.418l-1.445.669a.561.561 0 01-.753-.302.616.616 0 01-.046-.303l.164-1.639-1.057-1.226a.612.612 0 01.043-.84.562.562 0 01.262-.138l1.547-.345.792-1.426a.558.558 0 01.987 0l.792 1.426 1.547.345a.595.595 0 01.438.705.604.604 0 01-.133.273l-1.057 1.226.163 1.64a.589.589 0 01-.508.652.55.55 0 01-.29-.048l-1.446-.669z"/></g><rect x="29.543" y="108.962" width="40.059" height="6.567" rx="3.284"/><rect x="29.543" y="92.544" width="55.492" height="6.567" rx="3.284"/><rect x="29.543" y="76.126" width="45.313" height="6.567" rx="3.284"/></g><g opacity=".2" filter="url(#filter6_d_1_1997)"><rect x="13.125" y="28.547" width="26.25" height="26.25" rx="6.563" fill="#C0D4E3"/></g><path fill-rule="evenodd" clip-rule="evenodd" d="M26.25 45.515l-2.167 1.002a.841.841 0 01-1.128-.453.924.924 0 01-.069-.453l.245-2.457-1.584-1.838a.917.917 0 01.065-1.258.842.842 0 01.392-.209l2.319-.516 1.187-2.138a.836.836 0 011.168-.325.87.87 0 01.312.325l1.187 2.138 2.319.517c.461.102.756.576.657 1.057a.905.905 0 01-.2.409l-1.585 1.838.246 2.457c.048.49-.293.927-.762.978a.825.825 0 01-.435-.072l-2.167-1.002z" fill="#C0D4E3"/><rect x="45.937" y="44.013" width="25.94" height="6.567" rx="3.284" fill="#E1E8F1"/><rect x="45.938" y="32.201" width="39.074" height="6.567" rx="3.284" fill="#E1E8F1"/><path d="M0 6.563A6.562 6.562 0 016.563 0h616.875A6.562 6.562 0 01630 6.563v8.859H0v-8.86z" fill="#DDEAF3"/><circle cx="8.367" cy="8.039" r="3.117" fill="#F6F9FA"/><circle cx="16.57" cy="8.039" r="3.117" fill="#F6F9FA"/><circle cx="24.773" cy="8.039" r="3.117" fill="#F6F9FA"/><g filter="url(#filter7_d_1_1997)"><g filter="url(#filter8_d_1_1997)"><rect x="111.562" y="118.453" width="246.094" height="164.063" rx="6.563" fill="#fff"/></g><rect width="19.688" height="19.688" rx="6.563" transform="matrix(-1 0 0 1 144.375 131.578)" fill="#E1E8F1"/><g clip-path="url(#clip2_1_1997)"><mask id="a" style="mask-type:luminance" maskUnits="userSpaceOnUse" x="185" y="120" width="99" height="111"><rect x="185.391" y="120.75" width="98.438" height="109.266" rx="6.563" fill="#fff"/></mask><g mask="url(#a)"><g opacity=".2" filter="url(#filter9_d_1_1997)"><rect x="185.39" y="131.578" width="98.438" height="98.438" rx="6.563" fill="#32C5FF"/></g><path opacity=".5" fill-rule="evenodd" clip-rule="evenodd" d="M497.109 215.114V381.61H185.391V172.691l16.477-10.431a23.313 23.313 0 0123.392-.901 23.316 23.316 0 0027.009-3.726l1.989-1.896c12.402-11.824 32.524-9.332 41.666 5.161l2.114 3.352c6.408 10.158 19.371 13.965 30.254 8.886a23.851 23.851 0 0121.856.87l.744.423c10.229 5.806 23.102 3.863 31.163-4.702l6.484-6.89a20.897 20.897 0 0124.027-4.628 20.9 20.9 0 0025.202-5.989l3.303-4.178c11.035-13.955 32.188-14.004 43.287-.1l5.583 6.995a32.808 32.808 0 017.168 20.47v39.707z" fill="#32C5FF"/><path fill-rule="evenodd" clip-rule="evenodd" d="M497.109 212.317v103.668H185.391V193.008l9.272-8.223c6.483-5.749 16.133-6.119 23.048-.898 7.338 5.539 17.672 4.731 24.044-1.896l.852-.887c7.078-7.362 18.996-6.899 25.481.99a17.063 17.063 0 0019.48 5.023l2.214-.879a20.32 20.32 0 0116.345.588l.298.144a21.08 21.08 0 0023.31-3.348l3.866-3.496a17.275 17.275 0 0117.943-3.252 17.274 17.274 0 0019.012-4.306l4.438-4.777c7.047-7.586 19.127-7.352 25.875.502l3.16 3.677a12.099 12.099 0 0016.303 1.893 12.1 12.1 0 0116.319 1.911l6.22 7.267c5.081 5.937 13.905 6.895 20.142 2.186 7.206-5.44 17.563-3.208 21.888 4.718l12.208 22.372z" fill="#32C5FF"/></g></g></g><g filter="url(#filter10_d_1_1997)"><rect x="185.39" y="239.859" width="98.438" height="22.969" rx="6.563" fill="#C0D4E3"/></g><rect x="214.922" y="248.062" width="39.375" height="6.563" rx="3.281" fill="#fff" opacity=".3"/><g filter="url(#filter11_d_1_1997)"><g filter="url(#filter12_d_1_1997)"><rect x="370.781" y="118.453" width="246.094" height="164.063" rx="6.563" fill="#fff"/></g><rect width="19.688" height="19.688" rx="6.563" transform="matrix(-1 0 0 1 399.328 131.578)" fill="#E1E8F1"/><path d="M394.078 138.141l-4.667 5.334a1.64 1.64 0 01-2.309.16l-2.211-1.915" stroke="#32C5FF" stroke-width="4.922" stroke-linecap="round" stroke-linejoin="round"/><g filter="url(#filter13_d_1_1997)"><rect x="425.25" y="131.578" width="41.743" height="41.743" rx="5.963" fill="#fff"/></g><mask id="b" style="mask-type:luminance" maskUnits="userSpaceOnUse" x="431" y="137" width="31" height="31"><rect x="431.213" y="137.542" width="29.817" height="29.817" rx="5.963" fill="#fff"/></mask><g mask="url(#b)"><rect opacity=".5" x="431.213" y="137.542" width="29.817" height="29.817" rx="5.963" fill="#32C5FF"/><mask id="c" style="mask-type:luminance" maskUnits="userSpaceOnUse" x="431" y="137" width="31" height="31"><rect x="431.213" y="137.542" width="29.817" height="29.817" rx="5.963" fill="#fff"/></mask><g mask="url(#c)"><path d="M450.843 149.297l-4.667 5.334a1.64 1.64 0 01-2.309.16l-2.211-1.914" stroke="#fff" stroke-width="4.922" stroke-linecap="round" stroke-linejoin="round"/></g></g><g filter="url(#filter14_d_1_1997)"><rect x="472.956" y="131.578" width="41.743" height="41.743" rx="5.963" fill="#fff"/></g><mask id="d" style="mask-type:luminance" maskUnits="userSpaceOnUse" x="478" y="137" width="31" height="31"><rect x="478.92" y="137.542" width="29.817" height="29.817" rx="5.963" fill="#fff"/></mask><g mask="url(#d)"><rect opacity=".5" x="478.92" y="137.542" width="29.817" height="29.817" rx="5.963" fill="#FFC500"/></g><g filter="url(#filter15_d_1_1997)"><rect x="520.663" y="131.578" width="41.743" height="41.743" rx="5.963" fill="#fff"/></g><mask id="e" style="mask-type:luminance" maskUnits="userSpaceOnUse" x="526" y="137" width="31" height="31"><rect x="526.626" y="137.542" width="29.817" height="29.817" rx="5.963" fill="#fff"/></mask><g mask="url(#e)"><rect opacity=".5" x="526.626" y="137.542" width="29.817" height="29.817" rx="5.963" fill="#66C109"/></g><g clip-path="url(#clip3_1_1997)" fill="#E1E8F1"><rect x="447.234" y="220.5" width="83.672" height="6.563" rx="3.281"/><rect x="447.234" y="204.094" width="115.172" height="6.563" rx="3.281"/><rect x="447.234" y="187.688" width="94.172" height="6.563" rx="3.281"/></g><g clip-path="url(#clip4_1_1997)"><rect x="425.369" y="219.59" width="15.761" height="9.851" rx="4.925" fill="#E1E8F1"/><circle cx="430.623" cy="224.516" r="3.284" fill="#C0D4E3"/><rect x="425.369" y="203.184" width="15.761" height="9.851" rx="4.925" fill="#E1E8F1"/><circle cx="436.533" cy="208.11" r="3.284" fill="#32C5FF"/><rect x="425.369" y="186.778" width="15.761" height="9.851" rx="4.925" fill="#E1E8F1"/><circle cx="436.533" cy="191.703" r="3.284" fill="#32C5FF"/></g><g filter="url(#filter16_d_1_1997)"><rect x="444.609" y="239.859" width="98.438" height="22.969" rx="6.563" fill="#32C5FF"/></g><rect x="474.14" y="248.062" width="39.074" height="6.895" rx="3.448" fill="#E1E8F1" opacity=".3"/></g></g><defs><filter id="filter0_d_1_1997" x="0" y="0" width="630" height="348.125" filterUnits="userSpaceOnUse" color-interpolation-filters="sRGB"><feFlood flood-opacity="0" result="BackgroundImageFix"/><feColorMatrix in="SourceAlpha" values="0 0 0 0 0 0 0 0 0 0 0 0 0 0 0 0 0 0 127 0" result="hardAlpha"/><feMorphology radius="40" in="SourceAlpha" result="effect1_dropShadow_1_1997"/><feOffset dy="20"/><feGaussianBlur stdDeviation="20"/><feColorMatrix values="0 0 0 0 0.858824 0 0 0 0 0.890196 0 0 0 0 0.929412 0 0 0 0.4 0"/><feBlend in2="BackgroundImageFix" result="effect1_dropShadow_1_1997"/><feBlend in="SourceGraphic" in2="effect1_dropShadow_1_1997" result="shape"/></filter><filter id="filter1_d_1_1997" x="111.562" y="28.547" width="505.313" height="51.516" filterUnits="userSpaceOnUse" color-interpolation-filters="sRGB"><feFlood flood-opacity="0" result="BackgroundImageFix"/><feColorMatrix in="SourceAlpha" values="0 0 0 0 0 0 0 0 0 0 0 0 0 0 0 0 0 0 127 0" result="hardAlpha"/><feMorphology radius="13.125" in="SourceAlpha" result="effect1_dropShadow_1_1997"/><feOffset dy="6.563"/><feGaussianBlur stdDeviation="6.563"/><feColorMatrix values="0 0 0 0 0.858824 0 0 0 0 0.890196 0 0 0 0 0.929412 0 0 0 0.4 0"/><feBlend in2="BackgroundImageFix" result="effect1_dropShadow_1_1997"/><feBlend in="SourceGraphic" in2="effect1_dropShadow_1_1997" result="shape"/></filter><filter id="filter2_d_1_1997" x="111.562" y="28.547" width="505.313" height="51.516" filterUnits="userSpaceOnUse" color-interpolation-filters="sRGB"><feFlood flood-opacity="0" result="BackgroundImageFix"/><feColorMatrix in="SourceAlpha" values="0 0 0 0 0 0 0 0 0 0 0 0 0 0 0 0 0 0 127 0" result="hardAlpha"/><feMorphology radius="13.125" in="SourceAlpha" result="effect1_dropShadow_1_1997"/><feOffset dy="6.563"/><feGaussianBlur stdDeviation="6.563"/><feColorMatrix values="0 0 0 0 0.858824 0 0 0 0 0.890196 0 0 0 0 0.929412 0 0 0 0.4 0"/><feBlend in2="BackgroundImageFix" result="effect1_dropShadow_1_1997"/><feBlend in="SourceGraphic" in2="effect1_dropShadow_1_1997" result="shape"/></filter><filter id="filter3_d_1_1997" x="584.063" y="41.344" width="20" height="40" filterUnits="userSpaceOnUse" color-interpolation-filters="sRGB"><feFlood flood-opacity="0" result="BackgroundImageFix"/><feColorMatrix in="SourceAlpha" values="0 0 0 0 0 0 0 0 0 0 0 0 0 0 0 0 0 0 127 0" result="hardAlpha"/><feMorphology radius="40" in="SourceAlpha" result="effect1_dropShadow_1_1997"/><feOffset dy="20"/><feGaussianBlur stdDeviation="20"/><feColorMatrix values="0 0 0 0 0.858824 0 0 0 0 0.890196 0 0 0 0 0.929412 0 0 0 0.4 0"/><feBlend in2="BackgroundImageFix" result="effect1_dropShadow_1_1997"/><feBlend in="SourceGraphic" in2="effect1_dropShadow_1_1997" result="shape"/></filter><filter id="filter4_d_1_1997" x="124.688" y="41.344" width="204" height="40" filterUnits="userSpaceOnUse" color-interpolation-filters="sRGB"><feFlood flood-opacity="0" result="BackgroundImageFix"/><feColorMatrix in="SourceAlpha" values="0 0 0 0 0 0 0 0 0 0 0 0 0 0 0 0 0 0 127 0" result="hardAlpha"/><feMorphology radius="40" in="SourceAlpha" result="effect1_dropShadow_1_1997"/><feOffset dy="20"/><feGaussianBlur stdDeviation="20"/><feColorMatrix values="0 0 0 0 0.858824 0 0 0 0 0.890196 0 0 0 0 0.929412 0 0 0 0.4 0"/><feBlend in2="BackgroundImageFix" result="effect1_dropShadow_1_1997"/><feBlend in="SourceGraphic" in2="effect1_dropShadow_1_1997" result="shape"/></filter><filter id="filter5_d_1_1997" x="13.125" y="230.016" width="72.238" height="104.059" filterUnits="userSpaceOnUse" color-interpolation-filters="sRGB"><feFlood flood-opacity="0" result="BackgroundImageFix"/><feColorMatrix in="SourceAlpha" values="0 0 0 0 0 0 0 0 0 0 0 0 0 0 0 0 0 0 127 0" result="hardAlpha"/><feMorphology radius="40" in="SourceAlpha" result="effect1_dropShadow_1_1997"/><feOffset dy="20"/><feGaussianBlur stdDeviation="20"/><feColorMatrix values="0 0 0 0 0.858824 0 0 0 0 0.890196 0 0 0 0 0.929412 0 0 0 0.4 0"/><feBlend in2="BackgroundImageFix" result="effect1_dropShadow_1_1997"/><feBlend in="SourceGraphic" in2="effect1_dropShadow_1_1997" result="shape"/></filter><filter id="filter6_d_1_1997" x="13.125" y="28.547" width="26.25" height="32.813" filterUnits="userSpaceOnUse" color-interpolation-filters="sRGB"><feFlood flood-opacity="0" result="BackgroundImageFix"/><feColorMatrix in="SourceAlpha" values="0 0 0 0 0 0 0 0 0 0 0 0 0 0 0 0 0 0 127 0" result="hardAlpha"/><feMorphology radius="13.125" in="SourceAlpha" result="effect1_dropShadow_1_1997"/><feOffset dy="6.563"/><feGaussianBlur stdDeviation="6.563"/><feColorMatrix values="0 0 0 0 0.858824 0 0 0 0 0.890196 0 0 0 0 0.929412 0 0 0 0.4 0"/><feBlend in2="BackgroundImageFix" result="effect1_dropShadow_1_1997"/><feBlend in="SourceGraphic" in2="effect1_dropShadow_1_1997" result="shape"/></filter><filter id="filter7_d_1_1997" x="111.562" y="118.453" width="246.094" height="170.625" filterUnits="userSpaceOnUse" color-interpolation-filters="sRGB"><feFlood flood-opacity="0" result="BackgroundImageFix"/><feColorMatrix in="SourceAlpha" values="0 0 0 0 0 0 0 0 0 0 0 0 0 0 0 0 0 0 127 0" result="hardAlpha"/><feMorphology radius="13.125" in="SourceAlpha" result="effect1_dropShadow_1_1997"/><feOffset dy="6.563"/><feGaussianBlur stdDeviation="6.563"/><feColorMatrix values="0 0 0 0 0.858824 0 0 0 0 0.890196 0 0 0 0 0.929412 0 0 0 0.4 0"/><feBlend in2="BackgroundImageFix" result="effect1_dropShadow_1_1997"/><feBlend in="SourceGraphic" in2="effect1_dropShadow_1_1997" result="shape"/></filter><filter id="filter8_d_1_1997" x="111.562" y="118.453" width="246.094" height="170.625" filterUnits="userSpaceOnUse" color-interpolation-filters="sRGB"><feFlood flood-opacity="0" result="BackgroundImageFix"/><feColorMatrix in="SourceAlpha" values="0 0 0 0 0 0 0 0 0 0 0 0 0 0 0 0 0 0 127 0" result="hardAlpha"/><feMorphology radius="13.125" in="SourceAlpha" result="effect1_dropShadow_1_1997"/><feOffset dy="6.563"/><feGaussianBlur stdDeviation="6.563"/><feColorMatrix values="0 0 0 0 0.858824 0 0 0 0 0.890196 0 0 0 0 0.929412 0 0 0 0.4 0"/><feBlend in2="BackgroundImageFix" result="effect1_dropShadow_1_1997"/><feBlend in="SourceGraphic" in2="effect1_dropShadow_1_1997" result="shape"/></filter><filter id="filter9_d_1_1997" x="185.39" y="131.578" width="98.438" height="105" filterUnits="userSpaceOnUse" color-interpolation-filters="sRGB"><feFlood flood-opacity="0" result="BackgroundImageFix"/><feColorMatrix in="SourceAlpha" values="0 0 0 0 0 0 0 0 0 0 0 0 0 0 0 0 0 0 127 0" result="hardAlpha"/><feMorphology radius="13.125" in="SourceAlpha" result="effect1_dropShadow_1_1997"/><feOffset dy="6.563"/><feGaussianBlur stdDeviation="6.563"/><feColorMatrix values="0 0 0 0 0.858824 0 0 0 0 0.890196 0 0 0 0 0.929412 0 0 0 0.4 0"/><feBlend in2="BackgroundImageFix" result="effect1_dropShadow_1_1997"/><feBlend in="SourceGraphic" in2="effect1_dropShadow_1_1997" result="shape"/></filter><filter id="filter10_d_1_1997" x="185.39" y="239.859" width="98.438" height="29.531" filterUnits="userSpaceOnUse" color-interpolation-filters="sRGB"><feFlood flood-opacity="0" result="BackgroundImageFix"/><feColorMatrix in="SourceAlpha" values="0 0 0 0 0 0 0 0 0 0 0 0 0 0 0 0 0 0 127 0" result="hardAlpha"/><feMorphology radius="13.125" in="SourceAlpha" result="effect1_dropShadow_1_1997"/><feOffset dy="6.563"/><feGaussianBlur stdDeviation="6.563"/><feColorMatrix values="0 0 0 0 0.858824 0 0 0 0 0.890196 0 0 0 0 0.929412 0 0 0 0.4 0"/><feBlend in2="BackgroundImageFix" result="effect1_dropShadow_1_1997"/><feBlend in="SourceGraphic" in2="effect1_dropShadow_1_1997" result="shape"/></filter><filter id="filter11_d_1_1997" x="370.781" y="118.453" width="246.094" height="170.625" filterUnits="userSpaceOnUse" color-interpolation-filters="sRGB"><feFlood flood-opacity="0" result="BackgroundImageFix"/><feColorMatrix in="SourceAlpha" values="0 0 0 0 0 0 0 0 0 0 0 0 0 0 0 0 0 0 127 0" result="hardAlpha"/><feMorphology radius="13.125" in="SourceAlpha" result="effect1_dropShadow_1_1997"/><feOffset dy="6.563"/><feGaussianBlur stdDeviation="6.563"/><feColorMatrix values="0 0 0 0 0.858824 0 0 0 0 0.890196 0 0 0 0 0.929412 0 0 0 0.4 0"/><feBlend in2="BackgroundImageFix" result="effect1_dropShadow_1_1997"/><feBlend in="SourceGraphic" in2="effect1_dropShadow_1_1997" result="shape"/></filter><filter id="filter12_d_1_1997" x="370.781" y="118.453" width="246.094" height="170.625" filterUnits="userSpaceOnUse" color-interpolation-filters="sRGB"><feFlood flood-opacity="0" result="BackgroundImageFix"/><feColorMatrix in="SourceAlpha" values="0 0 0 0 0 0 0 0 0 0 0 0 0 0 0 0 0 0 127 0" result="hardAlpha"/><feMorphology radius="13.125" in="SourceAlpha" result="effect1_dropShadow_1_1997"/><feOffset dy="6.563"/><feGaussianBlur stdDeviation="6.563"/><feColorMatrix values="0 0 0 0 0.858824 0 0 0 0 0.890196 0 0 0 0 0.929412 0 0 0 0.4 0"/><feBlend in2="BackgroundImageFix" result="effect1_dropShadow_1_1997"/><feBlend in="SourceGraphic" in2="effect1_dropShadow_1_1997" result="shape"/></filter><filter id="filter13_d_1_1997" x="425.25" y="131.578" width="41.743" height="47.706" filterUnits="userSpaceOnUse" color-interpolation-filters="sRGB"><feFlood flood-opacity="0" result="BackgroundImageFix"/><feColorMatrix in="SourceAlpha" values="0 0 0 0 0 0 0 0 0 0 0 0 0 0 0 0 0 0 127 0" result="hardAlpha"/><feMorphology radius="11.927" in="SourceAlpha" result="effect1_dropShadow_1_1997"/><feOffset dy="5.963"/><feGaussianBlur stdDeviation="5.963"/><feColorMatrix values="0 0 0 0 0.858824 0 0 0 0 0.890196 0 0 0 0 0.929412 0 0 0 0.4 0"/><feBlend in2="BackgroundImageFix" result="effect1_dropShadow_1_1997"/><feBlend in="SourceGraphic" in2="effect1_dropShadow_1_1997" result="shape"/></filter><filter id="filter14_d_1_1997" x="472.956" y="131.578" width="41.743" height="47.706" filterUnits="userSpaceOnUse" color-interpolation-filters="sRGB"><feFlood flood-opacity="0" result="BackgroundImageFix"/><feColorMatrix in="SourceAlpha" values="0 0 0 0 0 0 0 0 0 0 0 0 0 0 0 0 0 0 127 0" result="hardAlpha"/><feMorphology radius="11.927" in="SourceAlpha" result="effect1_dropShadow_1_1997"/><feOffset dy="5.963"/><feGaussianBlur stdDeviation="5.963"/><feColorMatrix values="0 0 0 0 0.858824 0 0 0 0 0.890196 0 0 0 0 0.929412 0 0 0 0.4 0"/><feBlend in2="BackgroundImageFix" result="effect1_dropShadow_1_1997"/><feBlend in="SourceGraphic" in2="effect1_dropShadow_1_1997" result="shape"/></filter><filter id="filter15_d_1_1997" x="520.663" y="131.578" width="41.743" height="47.706" filterUnits="userSpaceOnUse" color-interpolation-filters="sRGB"><feFlood flood-opacity="0" result="BackgroundImageFix"/><feColorMatrix in="SourceAlpha" values="0 0 0 0 0 0 0 0 0 0 0 0 0 0 0 0 0 0 127 0" result="hardAlpha"/><feMorphology radius="11.927" in="SourceAlpha" result="effect1_dropShadow_1_1997"/><feOffset dy="5.963"/><feGaussianBlur stdDeviation="5.963"/><feColorMatrix values="0 0 0 0 0.858824 0 0 0 0 0.890196 0 0 0 0 0.929412 0 0 0 0.4 0"/><feBlend in2="BackgroundImageFix" result="effect1_dropShadow_1_1997"/><feBlend in="SourceGraphic" in2="effect1_dropShadow_1_1997" result="shape"/></filter><filter id="filter16_d_1_1997" x="444.609" y="239.859" width="98.438" height="29.531" filterUnits="userSpaceOnUse" color-interpolation-filters="sRGB"><feFlood flood-opacity="0" result="BackgroundImageFix"/><feColorMatrix in="SourceAlpha" values="0 0 0 0 0 0 0 0 0 0 0 0 0 0 0 0 0 0 127 0" result="hardAlpha"/><feMorphology radius="13.125" in="SourceAlpha" result="effect1_dropShadow_1_1997"/><feOffset dy="6.563"/><feGaussianBlur stdDeviation="6.563"/><feColorMatrix values="0 0 0 0 0.858824 0 0 0 0 0.890196 0 0 0 0 0.929412 0 0 0 0.4 0"/><feBlend in2="BackgroundImageFix" result="effect1_dropShadow_1_1997"/><feBlend in="SourceGraphic" in2="effect1_dropShadow_1_1997" result="shape"/></filter><clipPath id="clip0_1_1997"><path fill="#fff" transform="translate(13.125 74.484)" d="M0 0h72.238v43.343H0z"/></clipPath><clipPath id="clip1_1_1997"><path fill="#fff" transform="translate(13.125 74.484)" d="M0 0h9.851v157.61H0z"/></clipPath><clipPath id="clip2_1_1997"><path fill="#fff" transform="translate(185.39 131.578)" d="M0 0h98.438v98.438H0z"/></clipPath><clipPath id="clip3_1_1997"><path fill="#fff" transform="translate(447.234 187.688)" d="M0 0h115.172v39.375H0z"/></clipPath><clipPath id="clip4_1_1997"><path fill="#fff" transform="translate(425.25 186.703)" d="M0 0h15.75v42.656H0z"/></clipPath></defs></svg>